<?xml version="1.0" encoding="UTF-8"?>
<svg data-bbox="0 0 264.482 128.967" viewBox="0 0 264.482 128.967" xmlns="http://www.w3.org/2000/svg" data-type="color">
    <g>
        <path d="M28.392 20.244C20.87 20.244-.379-4.688.005.785c.003.036.003 9.767.005 9.802.42 5.955 16.03 26.35 16.836 33.983 1.15 10.92.924 13.582 2.097 21.935.579 4.12 1.186 7.401 1.593 9.466.378 1.714 1.391 6.44 1.83 10.475.107.983.187 1.693.202 2.697.043 2.757-.472 4.218.065 7.943.458 3.178.98 3.142 1.618 7.554.214 1.476.362 3.025.656 6.121.253 2.649.394 4.138.467 5.418.01.181.019.359.026.535.025.57.005.446.042 2.634.047 2.844.072 4.279.128 4.85.258 2.632 1.083 4.957 1.386 4.757.314-.207-.275-2.91.4-6.124.28-1.336.503-1.445.765-3.062.23-1.417.29-2.758.34-3.86a43.79 43.79 0 0 0 .051-2.661c-.052-1.952-.31-3.176-.357-6.45 0-.046-.002-.084-.003-.131-.036-2.988.166-4.566.396-6.165.124-.863.256-1.731.362-2.83.161-1.662.185-2.968.204-3.766a62.881 62.881 0 0 0-.16-6.16c-.248-3.183-.611-3.544-.746-6.425a38.51 38.51 0 0 1 .238-6.295c.263-2.333.568-5.033 1.617-7.15.72-1.452 1.01-1.017 1.784-2.729.991-2.19 1.02-3.92 1.544-4.104.719-.251 1.584 2.71 2.139 5.127 1.186 5.168 1.04 12.866 1.653 15.131.007.024.012.056.019.078.125.43.244.726.274.79.213.46.183 1.168.522 2.336.146.503.156.387.46 1.334.167.524.218.803.29.784.225-.061.197-2 .222-2.33.076-.985.221-1.949.43-2.854.17-.729.163-1.538.191-2.322.031-.843.19-1.418.363-2.172.16-.697.17-1.527.156-2.281-.002-.12-.01-.411-.013-.838-.002-.253-.001-.445-.002-.709 0-.234.004-.511.018-.876.026-.673.045-.732.08-1.594.05-1.208.035-1.54.145-2.597.292-2.824.66-3.03 1.03-5.873.378-2.915.036-3.046.42-5.487.373-2.367.674-2.116 1.336-5.234.691-3.256.605-3.621 1.152-4.983.498-1.242 1.328-2.886 2.161-2.752.773.126 1.449 1.055 2.13 1.744.654.662 1.227 1.068 1.816 2.034.58.953 1.266 1.543 1.987 1.838.585.237.986.615 1.3 1.745.545 1.96.457 4.401.89 6.453.547 2.584.834 2.238 1.773 6.117.55 2.27.825 3.404.98 4.972.099 1.001.118 2.001.112 3.019a52.124 52.124 0 0 0 .074 3.014c.019.374.035.6.083.875.037.217.06.271.102.47.039.188.07.394.12 1.034.063.811.057 1.063.128 1.919 0 0 .014.196.03.356.135 1.301.489 1.697.796 2.997.071-1.085.165-1.952.24-2.558.092-.75.173-1.233.24-2.118.026-.327.069-.881.076-1.52.017-1.463-.17-1.802-.21-3.102-.03-.965.07-.84.15-2.773.052-1.27.048-2.288.045-3.072-.005-1.379-.044-2.403.08-3.653.045-.456.099-.844.099-.844.093-.593.204-.91.324-1.836.085-.655.12-1.194.127-1.661.04-2.28-.064-2.638.04-3.656.164-1.594.948-3.196 1.743-3.408.346-.093.838-.168 1.314.07.337.169.56.412.988.438.293.017.383-.084.699-.158.387-.09 1.09-.252 1.618.356.455.525.257 1.024.819 1.949.45.74.65.542 1.218 1.43a8.27 8.27 0 0 1 .682 1.364c.348.854.52 1.648.714 2.384.546 2.058.921 4.229 1.208 6.498.09.722.182 1.621.27 2.899.255 3.714.005 3.76.25 7.271.178 2.524.323 2.73 1.045 8.543.545 4.391.818 6.587.922 8.545.106 1.999.05 2.544.036 4.455-.017 2.546-.092 3.067.033 3.965.089.635.212 1.12.297 1.417.23-.478.57-1.262.883-2.357.262-.915.287-1.286.6-2.594.404-1.694.552-1.864.833-3.046.303-1.279.414-2.273.584-3.802.214-1.914.44-4.85.514-7.19.015-.474.03-.96.132-1.598.132-.825.398-1.542.58-2.324.28-1.21.498-2.434.665-3.71.312-2.384.166-4.704.112-7.116a388.41 388.41 0 0 1-.08-5.207c-.025-2.694-.026-4.51.177-6.89.125-1.48.28-2.6.583-4.577.954-6.223 1.403-9.353 1.84-10.21 1.238-2.434 3.244-3.02 4.697-2.08.911.589.805 1.322 1.78 1.91 1.745 1.052 2.445-1.008 3.856.11 1.05.83 1.643 2.746 2.014 3.947.489 1.577.723 3.143.902 5.065.486 5.225-.024 6.214.18 11.644.12 3.176.444 5.586 1.046 10.074.835 6.225 1.141 5.84 1.104 8.034-.027 1.633.094 9.044.132 9.078.378.332 1.937-4.532 2.731-9.216a29.71 29.71 0 0 0 .385-3.14c.115-1.825.108-3.134.105-3.823-.01-1.761.156-2.524 1.18-9.289.597-3.949.896-5.923.927-6.382.316-4.584-.37-5.862.246-8.436.515-2.157 1.076-1.59 2.137-4.501 1-2.746.78-.948 1.606-3.103.316-.824 1.555.17 3.115.158 1.905-.014 2.032 4.683 4.697 5.929 1.241.581 2.185.015 2.772 1.583.354.943.343 2.027 1.01 3.378.369.75.52.717.762 1.401.34.962.276 1.69.43 3.443.246 2.812.574 2.788.648 4.966.049 1.424-.086 1.578-.031 3.069l.226 5.922.992-5.607c.05-.287.212-1.225.362-2.526.308-2.695.098-2.907.362-4.24a11.41 11.41 0 0 1 1.216-3.32c.434-.783.684-.94.942-1.79.29-.953.254-1.673.352-2.483.301-2.478 1.723-4.732 2.468-4.2.606.431.29 2.365 1.275 4.803.597 1.477.87 1.157 1.372 2.661.375 1.125.54 2.471.703 3.757.13 1.015.307 2 .454 3.004.177 1.213.266 2.452.295 3.71.034 1.487-.011 2.57.209 4.34.166 1.328.497 5.062.63 6.13.219 1.771.808 3.489.808 3.476.001.013.59-1.705.81-3.475.132-1.07.463-4.803.629-6.132.22-1.769.175-2.852.209-4.339.029-1.258.118-2.497.295-3.71.147-1.004.325-1.989.454-3.004.163-1.286.328-2.632.703-3.757.501-1.504.775-1.184 1.372-2.661.985-2.438.669-4.372 1.275-4.803.745-.532 2.167 1.722 2.467 4.2.099.81.063 1.53.353 2.483.258.85.508 1.007.942 1.79.18.324.866 1.559 1.216 3.32.264 1.333.054 1.545.362 4.24.15 1.3.311 2.239.362 2.526l.992 5.607.226-5.922c.055-1.49-.08-1.645-.031-3.069.074-2.178.402-2.154.648-4.966.154-1.752.09-2.481.43-3.443.242-.684.393-.65.763-1.4.666-1.352.655-2.436 1.008-3.38.588-1.567 1.532-1 2.773-1.582 2.664-1.246 2.792-5.943 4.697-5.93 1.56.012 2.799-.981 3.115-.157.827 2.155.605.357 1.606 3.103 1.06 2.911 1.621 2.344 2.137 4.501.616 2.574-.07 3.852.246 8.436.031.459.33 2.433.927 6.382 1.024 6.765 1.19 7.528 1.18 9.29-.003.688-.01 1.997.105 3.822.053.834.16 1.813.385 3.14.793 4.684 2.353 9.548 2.73 9.216.039-.034.16-7.445.133-9.078-.037-2.193.269-1.809 1.104-8.034.602-4.488.925-6.898 1.045-10.074.205-5.43-.305-6.42.181-11.644.179-1.922.413-3.488.902-5.065.371-1.201.965-3.117 2.014-3.948 1.41-1.117 2.111.943 3.856-.109.975-.588.868-1.321 1.78-1.91 1.453-.94 3.459-.354 4.698 2.08.436.857.885 3.987 1.84 10.21.302 1.977.457 3.098.582 4.577.202 2.38.202 4.196.176 6.89-.015 1.736-.04 3.472-.079 5.207-.054 2.412-.2 4.732.112 7.116.167 1.276.384 2.5.665 3.71.182.782.448 1.499.58 2.324.101.638.117 1.124.132 1.599.073 2.339.3 5.275.514 7.19.17 1.528.28 2.522.584 3.8.281 1.183.429 1.353.833 3.047.313 1.308.338 1.68.6 2.594.313 1.095.654 1.88.883 2.357.085-.296.208-.782.297-1.417.125-.898.05-1.419.033-3.965-.014-1.911-.07-2.456.036-4.455.104-1.958.377-4.154.922-8.545.722-5.813.867-6.02 1.044-8.543.245-3.51-.004-3.557.25-7.271.089-1.278.18-2.177.271-2.899.286-2.269.662-4.44 1.208-6.498.195-.736.366-1.53.714-2.384.126-.308.34-.83.682-1.363.568-.889.769-.691 1.218-1.431.562-.925.364-1.424.819-1.95.527-.607 1.231-.445 1.618-.355.316.074.406.175.699.158.428-.026.65-.27.988-.438.476-.238.968-.163 1.314-.07.795.212 1.579 1.814 1.743 3.408.104 1.018 0 1.376.04 3.656.008.467.042 1.006.127 1.661.12.925.23 1.243.324 1.836 0 0 .054.388.1.844.123 1.25.084 2.274.079 3.653-.003.784-.007 1.801.045 3.072.08 1.934.18 1.808.15 2.773-.04 1.3-.227 1.64-.21 3.102.007.639.05 1.193.075 1.52.068.885.148 1.369.241 2.118.075.606.169 1.473.24 2.558.307-1.3.66-1.696.795-2.997.017-.16.031-.356.031-.356.07-.856.065-1.108.128-1.919.05-.64.081-.846.12-1.033.042-.2.065-.254.102-.47.048-.277.064-.502.083-.876a52.124 52.124 0 0 0 .074-3.014c-.006-1.018.013-2.018.112-3.02.155-1.567.43-2.702.98-4.971.94-3.88 1.226-3.533 1.772-6.117.434-2.052.346-4.493.89-6.453.315-1.13.716-1.508 1.301-1.745.72-.295 1.407-.885 1.987-1.838.588-.966 1.162-1.372 1.816-2.034.681-.689 1.356-1.618 2.13-1.744.833-.134 1.662 1.51 2.161 2.752.547 1.362.46 1.727 1.152 4.983.662 3.118.963 2.867 1.336 5.234.384 2.44.042 2.572.42 5.487.37 2.843.738 3.05 1.03 5.873.11 1.058.096 1.39.145 2.597.035.862.054.92.08 1.594.014.365.019.642.018.876 0 .264 0 .456-.002.709-.003.427-.011.718-.013.838-.015.754-.003 1.584.156 2.28.173.755.332 1.33.363 2.173.028.784.022 1.593.19 2.322.21.905.355 1.869.43 2.854.026.33-.002 2.269.224 2.33.07.019.122-.26.29-.784.303-.947.312-.831.458-1.334.34-1.168.31-1.876.523-2.336.03-.064.149-.36.274-.79.007-.022.012-.054.019-.078.612-2.265.466-9.963 1.653-15.131.555-2.416 1.42-5.378 2.138-5.127.525.183.554 1.915 1.545 4.104.774 1.712 1.064 1.277 1.784 2.728 1.049 2.118 1.354 4.818 1.617 7.15a38.51 38.51 0 0 1 .238 6.296c-.135 2.88-.498 3.242-.746 6.425-.022.276-.043.567-.063.89a62.881 62.881 0 0 0-.097 5.27c.019.798.043 2.104.204 3.765.106 1.1.238 1.968.362 2.83.23 1.6.432 3.178.396 6.166 0 .047-.002.085-.003.131-.046 3.274-.305 4.498-.357 6.45a43.17 43.17 0 0 0 .052 2.66c.05 1.103.11 2.444.339 3.86.262 1.618.485 1.727.765 3.063.675 3.214.086 5.917.4 6.124.303.2 1.128-2.125 1.386-4.757.055-.571.08-2.006.128-4.85.037-2.188.017-2.064.041-2.634l.027-.535c.073-1.28.214-2.77.466-5.418.295-3.096.443-4.645.657-6.12.637-4.413 1.16-4.377 1.618-7.555.537-3.725.022-5.186.065-7.943.015-1.004.095-1.714.202-2.697.439-4.034 1.451-8.76 1.83-10.475a173.441 173.441 0 0 0 1.593-9.466c1.173-8.353.946-11.016 2.097-21.935.805-7.632 15.558-25.197 15.978-31.152.003-.035.652-5.08.654-5.117.384-5.473-20.656 11.943-28.178 11.943H28.392Z" fill="#22d5ff" data-color="1"/>
    </g>
</svg>
