<?xml version="1.0" encoding="UTF-8"?>
<svg data-bbox="-0.001 0 127.436 61.548" viewBox="0 0 127.434 61.548" xmlns="http://www.w3.org/2000/svg" data-type="ugc">
    <g>
        <g>
            <path d="M127.384 32.395c-.288-3.88-1.697-8.225-4.573-10.962-.18-.17-.75-.673-.997-.669.344-.006.796.029 1.294.19 1.273.416 1.963 1.378 2.2 1.748.556-7.021-3.933-12.293-9.628-15.696a26.233 26.233 0 0 0-2.258-1.205c-1.116-.526-2.268-.951-3.419-1.388l.04-.009c.029 0 .063-.013.092-.019.195 0 .413-.074.608-.099.193 0 .384-.044.576-.055a9.912 9.912 0 0 1 2.037.098c.29.043.578.1.865.163.246.055.497.105.72.229a15.858 15.858 0 0 0-2.115-1.65C107.182-.653 100.72.014 98.23.284a26.353 26.353 0 0 0-5.025 1.074c-3.888 1.218-7.4 3.79-9.54 7.279a16.174 16.174 0 0 0-1.956 4.768c-.264 1.125-.435 2.22-.412 3.303-5.392-2.859-11.492-4.496-17.696-4.523-6.14-.027-12.127 1.526-17.435 4.266-.002-1.008-.167-2.028-.41-3.074-.39-1.68-1.048-3.3-1.948-4.771-2.136-3.491-5.643-6.07-9.53-7.294A26.368 26.368 0 0 0 29.256.23c-2.49-.273-8.951-.95-14.601 2.765a15.844 15.844 0 0 0-2.117 1.647c.246-.23.619-.253.936-.307.212-.036.424-.075.638-.097a12.6 12.6 0 0 1 1.963-.064c.46.024.917.032 1.36.175-.144.068-.289.143-.45.15-.765.035-1.524.183-2.145.631-.973.702-2.035 1.195-3.045 1.796-5.7 3.393-10.198 8.658-9.653 15.68.238-.368.93-1.33 2.203-1.743.499-.161.95-.196 1.295-.189-.248-.005-.819.497-.999.668-2.88 2.733-4.295 7.075-4.59 10.955a15.77 15.77 0 0 0 .106 3.511c.063.427.143.852.239 1.273.07.311.298.77.281 1.083 0 0 .195-3.665 2.473-6.468-.373.458-.432 1.72-.538 2.3-.146.793-.25 1.595-.292 2.4-.083 1.562.064 3.147.572 4.633 1.982 5.796 8.838 8.425 14.507 8.331 3.206-.053 6.353-.98 9.145-2.538-.076 3.257.247 7.143 1.544 11.011h70.327c1.334-3.685 1.915-7.574 1.904-11.274 2.923 1.755 6.272 2.81 9.692 2.873 5.668.102 12.528-2.516 14.52-8.31.51-1.484.658-3.069.578-4.63a18.852 18.852 0 0 0-.288-2.402c-.105-.58-.162-1.842-.534-2.3 2.273 2.806 2.462 6.472 2.462 6.472-.016-.314.213-.772.284-1.083a15.673 15.673 0 0 0 .351-4.783Z" fill="#b7b7b7"/>
            <g>
                <path d="M29.361 32.469c1.216-4.227 4.207-8.48 7.998-10.816a.359.359 0 0 0 .172-.318c-.07-1.846-.529-3.669-1.463-5.266-1.641-2.81-4.813-4.394-7.97-4.74-1.388-.153-4.989-.53-8.137 1.54a8.834 8.834 0 0 0-1.18.918c.124-.068.264-.096.4-.126.16-.036.321-.067.483-.09a5.533 5.533 0 0 1 1.135-.054c.108.007.214.032.322.032.108.014.23.055.338.055.016.004.035.01.052.01l.022.006c-.642.242-1.284.478-1.907.77-.43.203-.85.427-1.26.67-2.922 1.74-5.278 4.363-5.4 7.82a.361.361 0 0 0 .582.303 2.18 2.18 0 0 1 1.388-.46c-.138-.003-.456.277-.556.372-1.605 1.523-2.394 3.943-2.558 6.105a8.79 8.79 0 0 0 .192 2.666c.039.174.166.43.157.604 0 0 .108-2.043 1.378-3.605-.208.256-.241.959-.3 1.281a10.5 10.5 0 0 0-.163 1.339c-.046.87.036 1.754.319 2.581 1.104 3.23 4.925 4.696 8.085 4.644 2.518-.042 4.886-.741 6.992-1.918l.168-.094a.33.33 0 0 0 .169-.292c-.01-1.334.178-2.672.542-3.937Z" fill="#2d2722"/>
                <path d="M97.217 32.521c-1.21-4.229-4.193-8.487-7.98-10.828a.359.359 0 0 1-.173-.319c.072-1.845.535-3.667 1.471-5.263 1.646-2.807 4.82-4.386 7.978-4.728 1.388-.15 4.99-.522 8.135 1.554.416.274.815.578 1.178.92-.124-.07-.263-.098-.4-.128a6.577 6.577 0 0 0-.483-.091 5.533 5.533 0 0 0-1.135-.055c-.107.006-.213.031-.321.03-.109.015-.23.056-.339.056-.016.003-.035.01-.051.01l-.022.005c.641.244 1.283.48 1.905.774.43.203.85.428 1.259.672 2.92 1.745 5.271 4.371 5.387 7.828a.361.361 0 0 1-.582.302 2.18 2.18 0 0 0-1.387-.463c.138-.002.456.278.556.373 1.603 1.526 2.388 3.947 2.549 6.11a8.79 8.79 0 0 1-.196 2.666c-.04.173-.167.428-.158.603 0 0-.106-2.043-1.373-3.607.207.256.24.96.298 1.282.08.442.137.89.16 1.338.045.871-.038 1.754-.322 2.582-1.11 3.228-4.933 4.687-8.092 4.63-2.519-.045-4.886-.748-6.99-1.928l-.168-.094a.33.33 0 0 1-.168-.292 13.914 13.914 0 0 0-.536-3.939Z" fill="#2d2722"/>
            </g>
            <path d="M54.63 44.987a5.003 5.003 0 0 0-5.323-4.993c-2.547.158-4.596 2.273-4.68 4.825-.022.669.087 1.31.305 1.898.246.669 1.222.484 1.217-.23v-.035c0-2.202 1.557-3.987 3.478-3.987s3.478 1.785 3.478 3.987v.036c-.005.71.97.9 1.216.232.2-.54.309-1.124.309-1.733Z" fill="#2d2722"/>
            <path d="M81.329 44.987a5.003 5.003 0 0 0-5.323-4.993c-2.547.158-4.596 2.273-4.68 4.825-.022.669.087 1.31.304 1.898.247.669 1.223.484 1.218-.23v-.035c0-2.202 1.557-3.987 3.478-3.987s3.478 1.785 3.478 3.987v.036c-.006.71.97.9 1.216.232.2-.54.309-1.124.309-1.733Z" fill="#2d2722"/>
            <path d="M68.28 54.217c.003-5.351-2.367-9.692-5.296-9.694-2.929-.002-5.306 4.334-5.31 9.686a16.865 16.865 0 0 0 .381 3.624h9.839a16.87 16.87 0 0 0 .385-3.616Z" fill="#2d2722"/>
            <path fill="#49423d" d="M62.14 46.812c.583.224.566 1.681-.038 3.256-.604 1.575-1.566 2.67-2.15 2.446s-.566-1.681.038-3.256c.604-1.575 1.566-2.67 2.15-2.446z"/>
            <path d="M43.239 58.126c-.111-2.579-2.587-3.901-5.062-3.946-2.475.045-4.951 1.367-5.062 3.946-.215 2.289 2.424 3.426 5.062 3.422 2.638.004 5.276-1.133 5.062-3.422Z" fill="#aaaaaa"/>
            <path d="M93.48 58.126c-.11-2.579-2.586-3.901-5.061-3.946-2.475.045-4.951 1.367-5.062 3.946-.215 2.289 2.424 3.426 5.062 3.422 2.638.004 5.276-1.133 5.062-3.422Z" fill="#aaaaaa"/>
            <g>
                <path d="M63.717 12.896a3.828 3.828 0 0 0-3.83-3.83" fill="none" stroke="#b7b7b7" stroke-linecap="round" stroke-miterlimit="10" stroke-width="2"/>
                <path d="M63.717 12.896a3.187 3.187 0 0 1 3.188-3.188" fill="none" stroke="#b7b7b7" stroke-linecap="round" stroke-miterlimit="10" stroke-width="2"/>
            </g>
        </g>
    </g>
</svg>
