<?xml version="1.0" encoding="utf-8"?>
<!-- Generator: Adobe Illustrator 28.3.0, SVG Export Plug-In . SVG Version: 6.00 Build 0)  -->
<svg version="1.1" id="Layer_1" xmlns="http://www.w3.org/2000/svg" xmlns:xlink="http://www.w3.org/1999/xlink" x="0px" y="0px"
	 viewBox="0 0 1894.1259766 349" style="enable-background:new 0 0 1894.1259766 349;" xml:space="preserve">
<style type="text/css">
	.st0{fill:#E9FFFF;}
</style>
<g>
	<path class="st0" d="M0,0c0.026,0.207,0.05,0.412,0.077,0.619c2.7260001,21.0499992,5.0370002,23.066,10.2510004,50.0470009
		c7.46,38.5979996,5.9889994,48.0090027,13.592,77.5370026c2.9096298,11.3110504,6.3555241,22.4773254,10.3260021,33.4609985
		c2.4510002,6.0599976,9.0130005,22.7669983,11.8570023,37.0270081c0.6930008,3.477005,1.2099991,5.9859924,1.3110008,9.5359955
		c0.2779999,9.7449951-3.0579987,14.9080048,0.4199982,28.0769958c2.9669991,11.2339935,6.3549995,11.1069946,10.487999,26.7029877
		c1.3849983,5.2170105,2.3400002,10.6900024,4.2509995,21.6369934c1.6349983,9.3619995,2.5529976,14.625,3.0219994,19.1530151
		c0.0670013,0.6390076,0.1240005,1.2669983,0.1740036,1.8900146c0.1600037,2.0140076,0.0299988,1.5769958,0.2669983,9.3099976
		c0.3099976,10.053009,0.4720001,15.1260071,0.8330002,17.1430054c1.6689987,9.3059998,7.0159988,17.5249939,8.9790039,16.8169861
		c2.0360031-0.730011-1.7829971-10.2869873,2.5920029-21.6489868c1.8170013-4.7220154,3.2600021-5.1069946,4.9589996-10.822998
		c1.4899979-5.0069885,1.8769989-9.7470093,2.1989975-13.644989c0.3659973-4.446991,0.4069977-7.9240112,0.3359985-9.4060059
		c-0.3389969-6.8980103-2.0139999-11.2269897-2.3150024-22.7990112c-0.0039978-0.1629944-0.0139999-0.2980042-0.0179977-0.4649963
		c-0.2330017-10.5599976,1.0780029-16.1399994,2.5670013-21.7919922c0.8040009-3.0480042,1.6569977-6.1190033,2.3470001-10.0050049
		c1.0429993-5.8730011,1.197998-10.4880066,1.3199997-13.3119965c0.1699982-3.8999939,0.2679977-10.5670013-0.6320038-18.628006
		c-0.1186295-1.0509949-0.2533112-2.1001282-0.4039993-3.1470032c-1.6110001-11.25-3.9629974-12.526001-4.8339996-22.7089996
		c-0.8779984-10.2810059,0.7229996-18.3130035,1.5390015-22.2550049
		c1.7080002-8.2429962,3.6849976-17.7899933,10.4830017-25.2749939c4.663002-5.1320038,6.5419998-3.5919952,11.5620041-9.6439972
		c6.4209976-7.7389984,6.6080017-13.8600006,10.0070038-14.5070038c4.6529999-0.8880005,10.2610016,9.5820007,13.8569946,18.1220016
		c7.6900024,18.2679977,6.7440033,45.4820023,10.7160034,53.487999c0.0429993,0.0829926,0.076004,0.1959991,0.1179962,0.276001
		c0.8119965,1.5209961,1.5859985,2.5659943,1.779007,2.7929993c1.3809967,1.6239929,1.1889954,4.1260071,3.3849945,8.2570038
		c0.9459991,1.7769928,1.0099945,1.3679962,2.973999,4.7140045c1.0850067,1.8529968,1.4190063,2.8379974,1.8789978,2.7700043
		c1.4600067-0.2140045,1.2819977-7.0690002,1.4459991-8.2339935c0.4866791-3.469162,1.423584-6.8600769,2.7870026-10.0870056
		c1.0939941-2.5780029,1.0509949-5.4380035,1.2359924-8.2089996c0.1999969-2.9799957,1.2299957-5.0149994,2.3480072-7.6799927
		c1.0350037-2.4640045,1.1109924-5.3950043,1.0169983-8.0619965c-0.0160065-0.4250031-0.0659943-1.4539948-0.0890045-2.9629974
		c-0.0130005-0.8919983-0.0059967-1.5709991-0.0110016-2.5050049c-0.0039978-0.8280029,0.0240021-1.8070068,0.1150055-3.095993
		c0.1690063-2.3809967,0.2910004-2.5879974,0.5189972-5.6340027c0.3200073-4.2700043,0.2279968-5.4420013,0.9380035-9.1829987
		c1.8959961-9.9799957,4.2799988-10.7099991,6.6730042-20.7579956c2.4550018-10.3069992,0.2389984-10.7700043,2.7290039-19.3980026
		c2.4140015-8.3649979,4.3639984-7.4800034,8.6569977-18.5019989c4.4799957-11.5089989,3.9210052-12.7999992,7.4620056-17.6110001
		c3.2330017-4.3909988,8.6060028-10.2019997,14.0070038-9.7299995c5.0119934,0.4459991,9.3890076,3.7299995,13.8009949,6.1650009
		c4.2380066,2.3409996,7.9570007,3.7750015,11.7720032,7.1889992c3.7599945,3.3700027,8.2059937,5.4550018,12.8739929,6.4960022
		c3.7920074,0.8399963,6.3950043,2.1760025,8.4279938,6.1699982c3.5279999,6.927002,2.9589996,15.5579987,5.7700043,22.8099976
		c3.5440063,9.1350021,5.3999939,7.9110031,11.4859924,21.6220016c3.5629883,8.0240021,5.3450012,12.0359955,6.348999,17.576004
		c0.6419983,3.5410004,0.7650146,7.076004,0.7319946,10.6730042c-0.0209961,2.3529968,0.0539856,4.7059937,0.197998,7.0540009
		c0.0759888,1.2030029,0.1700134,2.4029999,0.2799988,3.6000061c0.1199951,1.3240051,0.2260132,2.1199951,0.5329895,3.0950012
		c0.2420044,0.7660065,0.3940125,0.9570007,0.6619873,1.6620026c0.2550049,0.6640015,0.4599915,1.3899994,0.7799988,3.654007
		c0.4079895,2.8679962,0.3699951,3.7579956,0.8269958,6.7830048c0,0,0.0929871,0.6929932,0.2000122,1.2590027
		c0.8739929,4.598999,3.1650085,5.996994,5.1549988,10.5919952c0.3639832-3.0385284,0.8829956-6.0564575,1.5549927-9.0420074
		c0.6000061-2.647995,1.1199951-4.3600006,1.5610046-7.4850006c0.1640015-1.1580048,0.4400024-3.1150055,0.4869995-5.375
		c0.1069946-5.1699982-1.1019897-6.3699951-1.3649902-10.9660034c-0.1960144-3.4109955,0.4599915-2.9640045,0.9750061-9.802002
		c0.3389893-4.4900055,0.3129883-8.0850067,0.2929993-10.8589935c-0.0350037-4.8720016-0.2850037-8.4919968,0.5159912-12.9100037
		c0.2929993-1.6139984,0.6419983-2.9860001,0.6419983-2.9860001c0.6069946-2.0950012,1.3269958-3.2190018,2.1019897-6.487999
		c0.5499878-2.3160019,0.7720032-4.2220001,0.8250122-5.8730011c0.2619934-8.0579987-0.4179993-9.3239975,0.2600098-12.9219971
		c1.0599976-5.6350021,6.1400146-11.3000031,11.2940063-12.048996c2.2399902-0.3280029,5.427002-0.5940018,8.5130005,0.2480011
		c2.1870117,0.5960007,3.6270142,1.4580002,6.4060059,1.5469971c1.894989,0.0619965,2.480011-0.2969971,4.5270081-0.5559998
		c2.5079956-0.3180008,7.0690002-0.8909988,10.4859924,1.2570038c2.9509888,1.8550034,1.6679993,3.6190033,5.3059998,6.8899994
		c2.9129944,2.6149979,4.2139893,1.9160004,7.894989,5.0569992c2.2099915,1.887001,3.605011,3.7300034,4.4200134,4.8199997
		c2.256012,3.0169983,3.3659973,5.826004,4.6300049,8.4250031c3.5339966,7.276001,5.9700012,14.9499969,7.8240051,22.9720001
		c0.5899963,2.5500031,1.1830139,5.7299957,1.7539978,10.2449951c1.6499939,13.1300049,0.0329895,13.2960052,1.6229858,25.7050018
		c1.1459961,8.9210052,2.0859985,9.647995,6.7659912,30.1990051c3.5350037,15.5220032,5.302002,23.2830048,5.9750061,30.2050018
		c0.6879883,7.0659943,0.322998,8.9909973,0.2369995,15.7460022c-0.1149902,9.0019989-0.6000061,10.8439941,0.2120056,14.0169983
		c0.4459839,1.737854,1.0905762,3.4185791,1.92099,5.0090027c2.2369995-2.5372314,4.1601868-5.3347168,5.7279968-8.3320007
		c1.6950073-3.2330017,1.8559875-4.5440063,3.8829956-9.1690063c2.6210022-5.9880066,3.5780029-6.5899963,5.3980103-10.7680054
		c1.9670105-4.5200043,2.6849976-8.0330048,3.7900085-13.4380035c1.3819885-6.7669983,2.8529968-17.1459961,3.3309937-25.4129944
		c0.0969849-1.6799927,0.1960144-3.397995,0.855011-5.6519928c0.8529968-2.9179993,2.5799866-5.4499969,3.756012-8.2149963
		c1.8006287-4.2442322,3.2423401-8.6319275,4.3099976-13.1170044c2.0249939-8.4259949,1.0759888-16.6260071,0.723999-25.1539917
		c-0.2464905-6.1329956-0.4174805-12.2687912-0.5130005-18.4059982c-0.1679993-9.5199966-0.1690063-15.9400024,1.1419983-24.3560028
		c0.8120117-5.2269974,1.8139954-9.1870041,3.7780151-16.1780014c6.1820068-21.9960022,9.0960083-33.0600014,11.9219971-36.0880013
		c8.0270081-8.6079979,21.0289917-10.6769981,30.4419861-7.3579979c5.9079895,2.0849991,5.2160034,4.677002,11.5369873,6.7550011
		c11.3059998,3.7190018,15.8470154-3.5639992,24.9899902,0.3860016c6.7999878,2.9370003,10.6440125,9.7089996,13.052002,13.9539986
		c3.1650085,5.576004,4.6869812,11.1100006,5.8429871,17.9049988c3.1489868,18.4700012-0.1550293,21.9669952,1.1719971,41.1589966
		c0.7769775,11.2279968,2.8709717,19.7480011,6.7750244,35.6119995c5.4119873,22.0050049,7.3950195,20.6459961,7.1550293,28.3999939
		c-0.177002,5.7709961,0.6099854,31.9700012,0.8549805,32.0899963c2.4489746,1.1730042,12.5560303-16.0220032,17.697998-32.5789948
		c1.4580078-4.6900024,2.1500244-8.1499939,2.492981-11.1000061c0.75-6.4499969,0.7050171-11.0769958,0.6820068-13.5119934
		c-0.0609741-6.2279968,1.0130005-8.9250031,7.6439819-32.8349991c3.8729858-13.9599991,5.8079834-20.9400024,6.0120239-22.5629959
		c2.0479736-16.2019958-2.4000244-20.7200012,1.5900269-29.8170013c3.3439941-7.625,6.9799805-5.6210022,13.8540039-15.913002
		c6.4819946-9.7070007,5.0479736-3.3520012,10.4060059-10.9680023c2.0499878-2.9140015,10.0750122,0.5970001,20.1849976,0.5579987
		c12.3460083-0.0499992,13.1740112,16.5530014,30.4390259,20.9580002
		c8.0460205,2.0550003,14.1599731,0.0530014,17.9699707,5.5960007c2.2919922,3.3330002,2.2199707,7.1660004,6.5360107,11.9420013
		c2.3950195,2.651001,3.3729858,2.5319977,4.9420166,4.9530029c2.2050171,3.3980026,1.789978,5.9759979,2.7869873,12.1699982
		c1.598999,9.9400024,3.7249756,9.8539963,4.2030029,17.5540009c0.3150024,5.0319977-0.5599976,5.5780029-0.2050171,10.8469925
		l1.4680176,20.9349976l6.4290161-19.8200073c0.3289795-1.0149994,1.3759766-4.3320007,2.3430176-8.9300003
		c2-9.526001,0.6380005-10.2770004,2.3499756-14.9850006c2.2659912-6.2289963,6.7089844-10.5940018,7.875-11.7399979
		c2.8150024-2.7659988,4.4349976-3.3239975,6.1069946-6.3270035c1.8770142-3.3680038,1.6480103-5.9140015,2.2849731-8.7779999
		c1.2780151-5.7409973,7.9559937-14.1539993,15.9910278-14.8450012c5.6929932-0.4899979,10.3759766,2.9570007,18.4979858,8.935997
		c5.0380249,3.7080002,6.5620117,6.1900024,7.1420288,7.2509995c0.1030273,0.189003,0.0430298,0.0879974,2.3809814,5.439003
		c1.586853,3.6257401,3.1751099,7.2508469,4.7609863,10.8769989c4.7579956,10.8669968,4.7160034,10.7669983,4.7620239,10.8769989
		c2.8330078,6.7959976,2.1589966,6.4680023,4.7609863,12.6900024c2.5390015,6.0699997,3.0800171,6.1399994,4.7620239,10.8769989
		c1.3770142,3.878006,2.1950073,7.1499939,2.3800049,10.8769989c0.0839844,1.6670074-0.0679932,1.2380066,0,3.6260071
		c0.1350098,4.6660004,0.882019,8.279007,1.2750244,11.0659943c0.2030029,1.447998,0.5319824,3.121994,1.1060181,5.25
		c0.1950073,0.7200012,0.1599731,0.5359955,2.3800049,7.2510071c2.9559937,8.9309998,2.8790283,8.8280029,4.7620239,14.503006
		c4.026001,12.1269989,4.059021,11.6679993,4.7620239,14.503006c0.434021,1.7480011,1.0880127,5.4199982,2.3800049,12.6900024
		c2.0200195,11.3600006,1.8660278,11.1990051,2.3809814,12.6900024c2.3220215,6.7180023,4.6220093,7.6329956,4.7620239,12.6900024
		c0.072998,2.6450043-0.5139771,3.9100037,0,7.25c0.5579834,3.6269989,1.8770142,6.2129974,2.3800049,7.2519989
		c1.6660156,3.4389954,3.6099854,8.973999,4.7620239,18.1289978c1.6507568-4.8131714,3.237854-9.6479492,4.7609863-14.503006
		c2.2919922-7.3070068,2.8800049-9.7050018,4.7620239-14.503006c2.8720093-7.322998,3.3930054-6.5570068,4.7609863-10.8769989
		c1.9450073-6.1399994,0.7600098-7.2630005,2.3809814-18.1289978c0.5750122-3.8529968,0.5640259-2.6360016,2.3800049-12.6900024
		c1.4990234-8.2879944,2.2479858-12.4329987,2.382019-14.5019989c0.401001-6.2339935-0.3120117-8.7149963,0.7180176-14.8300018
		c0.1749878-1.0370026,0.4940186-2.7140045,0.822998-5.2839966c1.5900269-12.4089966-0.0280151-12.5749969,1.6229858-25.7050018
		c0.5700073-4.5160065,1.164978-7.6950073,1.7540283-10.2450027c1.8549805-8.0210037,4.289978-15.6959991,7.8239746-22.9720001
		c1.2639771-2.5999985,2.3740234-5.4079971,4.6300049-8.4250031c0.8140259-1.0899963,2.2089844-2.9329987,4.4199829-4.8199997
		c3.6799927-3.1409988,4.9810181-2.4420013,7.8939819-5.0569992c3.6389771-3.2710037,2.3560181-5.034996,5.3070068-6.8899994
		c3.4169922-2.1480026,7.9780273-1.5749969,10.4869995-1.2569962c2.0449829,0.2590027,2.6300049,0.6179962,4.526001,0.5559998
		c2.7800293-0.0899963,4.2189941-0.9509964,6.4060059-1.5469971c3.0859985-0.8420029,6.2730103-0.5759964,8.5130005-0.2480011
		c5.1550293,0.7490005,10.2340088,6.4140015,11.2940063,12.048996c0.6779785,3.5979996-0.0020142,4.8639984,0.2600098,12.9219971
		c0.0529785,1.6500015,0.2750244,3.5569992,0.8250122,5.8730011c0.776001,3.2699966,1.4949951,4.3929977,2.1019897,6.487999
		c0,0,0.348999,1.3720016,0.6420288,2.9850006c0.8010254,4.4189987,0.5510254,8.0390015,0.5159912,12.909996
		c-0.0200195,2.7749939-0.0460205,6.3699951,0.2930298,10.8600006c0.5159912,6.8379974,1.1699829,6.3899994,0.9749756,9.802002
		c-0.2630005,4.595993-1.4730225,5.7960052-1.3649902,10.9660034c0.0469971,2.2599945,0.3220215,4.2169952,0.4869995,5.375
		c0.4420166,3.1260071,0.9609985,4.8370056,1.5609741,7.4850006c0.6721191,2.9855194,1.1911011,6.0034637,1.5549927,9.0419922
		c1.9899902-4.5950012,4.2800293-5.9929962,5.1550293-10.5919952c0.1069946-0.5670013,0.2000122-1.2599945,0.2000122-1.2599945
		c0.4559937-3.0240021,0.4190063-3.9140015,0.8259888-6.7819977c0.3220215-2.2639923,0.526001-2.9900055,0.7800293-3.654007
		c0.2689819-0.7050018,0.4219971-0.8959961,0.6619873-1.6620026c0.3079834-0.9750061,0.4130249-1.7709961,0.53302-3.0950012
		c0.1099854-1.1970062,0.2050171-2.3970032,0.2810059-3.6000061c0.1439819-2.3480072,0.2189941-4.6999969,0.197998-7.0540009
		c-0.03302-3.5970001,0.0900269-7.1320038,0.7319946-10.6730042c1.0040283-5.5399933,2.7860107-9.552002,6.348999-17.576004
		c6.0859985-13.7099991,7.9420166-12.4869995,11.4849854-21.6230011c2.8120117-7.25,2.242981-15.8820038,5.7700195-22.8089981
		c2.0339966-3.9940033,4.6370239-5.3300018,8.4290161-6.1699982c4.6680298-1.0410004,9.1129761-3.1259995,12.8740234-6.4959984
		c3.8150024-3.4140015,7.5339966-4.8479996,11.7719727-7.1899986c4.4119873-2.4339981,8.7880249-5.7190018,13.7999878-6.1640015
		c5.4019775-0.4720001,10.7750244,5.3390007,14.0079956,9.7299995c3.5410156,4.8110008,2.9819946,6.1020012,7.4630127,17.6099968
		c4.2919922,11.0230026,6.2420044,10.1380005,8.6560059,18.5029984c2.4899902,8.6279984,0.2739868,9.0909958,2.7290039,19.3980026
		c2.3930054,10.0469971,4.7769775,10.7789993,6.6729736,20.7579956c0.7099609,3.7409973,0.618042,4.9120026,0.9379883,9.1829987
		c0.2280273,3.0460052,0.3499756,3.253006,0.519043,5.6340027c0.0909424,1.2899933,0.1190186,2.2680054,0.1149902,3.095993
		c-0.0050049,0.9340057,0.0019531,1.6130066-0.0109863,2.5050049c-0.0229492,1.5090027-0.072998,2.5379944-0.0889893,2.9629974
		c-0.0939941,2.6660004-0.0169678,5.5980072,1.0169678,8.0619965c1.118042,2.6649933,2.1469727,4.6999969,2.3470459,7.6799927
		c0.1860352,2.7700043,0.1429443,5.6300049,1.2370605,8.2089996c1.3634033,3.226593,2.300293,6.6171722,2.7869873,10.0859985
		c0.1639404,1.1660004-0.0140381,8.0209961,1.4470215,8.2359924c0.4589844,0.0670013,0.7929688-0.9179993,1.8780518-2.7700043
		c1.9639893-3.3470001,2.0279541-2.9380035,2.973999-4.7149963c2.1960449-4.1309967,2.0040283-6.6329956,3.3850098-8.2570038
		c0.1929932-0.227005,0.967041-1.2720032,1.7790527-2.7929993c0.0410156-0.0800018,0.0749512-0.1929932,0.1169434-0.276001
		c3.9730225-8.0059967,3.0269775-35.2200012,10.717041-53.487999c3.5959473-8.5400009,9.2039795-19.0100021,13.8570557-18.1220016
		c3.4000244,0.6470032,3.5849609,6.7679977,10.006958,14.5070038c5.0200195,6.052002,6.8990479,4.512001,11.5620117,9.6439972
		c6.7979736,7.4850006,8.7750244,17.0319977,10.4830322,25.2749939c0.81604,3.9420013,2.4160156,11.973999,1.5389404,22.2550049
		c-0.8709717,10.1829987-3.2230225,11.4600067-4.8339844,22.7100067c-0.1400146,0.977005-0.276001,2.0039978-0.4040527,3.1459961
		c-0.6878662,6.18396-0.8995361,12.4116211-0.6330566,18.628006c0.1230469,2.8240051,0.2779541,7.4389954,1.3210449,13.3119965
		c0.6899414,3.8860016,1.5429688,6.9570007,2.3470459,10.0050049c1.4880371,5.6519928,2.8000488,11.2309875,2.5670166,21.7919922
		c-0.0040283,0.1669922-0.0140381,0.302002-0.0179443,0.4649963c-0.3010254,11.571991-1.9759521,15.901001-2.3149414,22.7990112
		c-0.0710449,1.4819946-0.0300293,4.9590149,0.3360596,9.4060059c0.3220215,3.8980103,0.7099609,8.6380005,2.1989746,13.644989
		c1.697998,5.7160034,3.1419678,6.1000061,4.9589844,10.822998c4.375,11.3619995,0.5560303,20.9200134,2.592041,21.6499939
		c1.9630127,0.7070007,7.3100586-7.5119934,8.9790039-16.8179932c0.3609619-2.0169983,0.5229492-7.0899963,0.8330078-17.1419983
		c0.2370605-7.7340088,0.1080322-7.2969971,0.2669678-9.3099976c0.0500488-0.6239929,0.1070557-1.2520142,0.1739502-1.8909912
		c0.4689941-4.5279846,1.3869629-9.7909851,3.0219727-19.1529846c1.9100342-10.9460144,2.8659668-16.4200134,4.2509766-21.6369934
		c4.1330566-15.595993,7.5209961-15.4689941,10.4880371-26.7030029c3.4780273-13.1699982,0.1419678-18.3320007,0.4200439-28.0769958
		c0.0999756-3.5500031,0.618042-6.0599976,1.3110352-9.5359955c2.8439941-14.2599945,9.4060059-30.9680023,11.8570557-37.0269928
		c3.4053955-9.4238281,6.4246826-18.9827881,9.0500488-28.6529999l0.0009766,0.0019989
		c7.9160156-12.5400009,9.3969727-22.1159973,9.1459961-28.7480011c-0.0699463-1.8300018-0.4300537-7.5879974,2.3800049-14.5019989
		c1.5539551-3.8249969,3.8809814-9.552002,9.5229492-10.8769989c2.2659912-0.5329971,5.4790039,0.2490005,11.9040527,1.8119965
		c5.7419434,1.3980026,9.9530029,2.9000015,11.9029541,3.6259995c3.3000488,1.2289963,6.8389893,2.5469971,10.5179443,4.6080017
		c4.1049805,2.2990036,10.6359863,5.9570007,13.2900391,11.7080002c2.7740479,6.012001-1.8769531,7.4049988,0,16.3150024
		c1.2290039,5.8349991,3.4420166,6.2779999,4.7609863,12.6900024c1.0400391,5.0559998,0.2149658,7.4600067,0,12.6900024
		c-0.493042,12.0279999,2.8769531,23.5879974,4.7609863,23.5670013c1.1970215-0.0130005,1.1739502-4.6900024,4.7619629-16.3150024
		c1.6120605-5.2220001,3.2480469-9.5659943,3.9959717-11.5440063c3.4620361-9.1459961,4.1899414-9.147995,5.5269775-13.8359985
		c2.0510254-7.197998,0.6099854-8.1579971,2.3800049-14.5029984c2.3299561-8.3460007,4.9460449-7.1149979,7.1429443-14.5029984
		c2.5679932-8.6330032,0.9649658-16.9349976,4.092041-23.8970032c0.4370117-0.9749985,1.1419678-2.512001,2.6369629-4.2890015
		c2.2159424-2.6340027,3.6550293-2.8030014,5.8900146-5.1520004c2.3330078-2.4529991,0.9599609-2.4720001,4.0460205-6.5439987
		c2.1169434-2.7939987,4.0629883-4.5,6.3039551-5.855999c0.052002-0.0320015,0.8520508-0.5139999,1.6529541-0.9099998
		c5.4069824-2.677002,12.6459961-2.3440018,13.4699707-2.2989998c6.0600586,0.3300018,8.6600342,2.8979988,26.1870117,12.6899986
		c11.2740479,6.2979965,12.8699951,6.7279968,14.6949463,6.9950027c5.2740479,0.7699966,10.1080322,0.1470032,14.9589844,2.8160019
		c1.1240234,0.6179962,2.1300049,1.4970016,3.0109863,2.7799988c2.2919922,3.3330002,2.2220459,7.1660004,6.5369873,11.9420013
		c2.3950195,2.651001,3.3730469,2.5319977,4.9420166,4.9530029c2.2049561,3.3980026,1.7900391,5.9759979,2.7860107,12.1699982
		c1.5999756,9.9400024,3.7249756,9.8540039,4.2030029,17.5540009c0.3149414,5.0319977-0.5600586,5.5780029-0.2049561,10.8470001
		l1.4689941,20.9349976l6.4279785-19.8200073c0.3299561-1.0160065,1.3769531-4.3320007,2.3439941-8.9300003
		c2-9.526001,0.6379395-10.2770004,2.3499756-14.9850006c2.2659912-6.2289963,6.7080078-10.5940018,7.875-11.7399979
		c2.8149414-2.7659988,4.4350586-3.3239975,6.1070557-6.3270035c1.8769531-3.3680038,1.6479492-5.9140015,2.2850342-8.7779999
		c1.2769775-5.7409973,7.9549561-14.1539993,15.9899902-14.8450012c5.6929932-0.4899979,10.3769531,2.9570007,18.4990234,8.935997
		c5.0379639,3.7080002,6.5620117,6.1900024,7.1419678,7.2509995c0.1030273,0.189003,0.0429688,0.0879974,2.3800049,5.439003
		c1.5869141,3.6258163,3.1744385,7.2514191,4.7619629,10.8769989c4.756958,10.8669968,4.7159424,10.7669983,4.7619629,10.8769989
		c2.8320312,6.7959976,2.157959,6.4680023,4.7609863,12.6900024c2.5389404,6.0699997,3.0799561,6.1399994,4.7619629,10.8769989
		c1.3769531,3.878006,2.1939697,7.1499939,2.3800049,10.8769989c0.0830078,1.6670074-0.0689697,1.2380066,0,3.6260071
		c0.1350098,4.6660004,0.881958,8.279007,1.2740479,11.0659943c0.2039795,1.447998,0.532959,3.121994,1.1070557,5.25
		c0.1939697,0.7200012,0.1600342,0.5359955,2.3800049,7.2510071c2.9560547,8.9309998,2.8780518,8.8280029,4.7619629,14.503006
		c4.026001,12.1269989,4.0579834,11.6679993,4.7619629,14.503006c0.4329834,1.7480011,1.0880127,5.4199982,2.3800049,12.6900024
		c2.0200195,11.3600006,1.8659668,11.1990051,2.3809814,12.6900024c2.3220215,6.7180023,4.6209717,7.6329956,4.7619629,12.6900024
		c0.072998,2.6450043-0.5140381,3.9100037,0,7.25c0.5570068,3.6269989,1.8769531,6.2129974,2.3800049,7.2519989
		c1.6650391,3.4389954,3.6099854,8.973999,4.7619629,18.1289978c1.651001-4.8130798,3.2381592-9.6478577,4.7609863-14.503006
		c2.2910156-7.3070068,2.8800049-9.7050018,4.7619629-14.503006c2.8719482-7.322998,3.3929443-6.5570068,4.7609863-10.8769989
		c1.9449463-6.1399994,0.7600098-7.2630005,2.3800049-18.1289978c0.5760498-3.8529968,0.5639648-2.6360016,2.3809814-12.6900024
		c1.4990234-8.2890015,2.2469482-12.4329987,2.3809814-14.5019989c0.4019775-6.2339935-0.3110352-8.7149963,0.7199707-14.8300018
		c0.1739502-1.0370026,0.493042-2.7140045,0.8220215-5.2839966c1.5899658-12.4089966-0.0279541-12.5749969,1.6230469-25.7050018
		c0.5699463-4.5160065,1.1639404-7.6950073,1.7540283-10.2450027c1.8540039-8.0220032,4.2900391-15.6959991,7.8239746-22.9720001
		c1.2640381-2.5999985,2.3730469-5.4079971,4.6300049-8.4250031c0.8139648-1.0899963,2.2089844-2.9329987,4.4200439-4.8199997
		c3.6800537-3.1409988,4.980957-2.4420013,7.894043-5.0579987c3.6390381-3.2699966,2.3549805-5.0339966,5.3070068-6.8899994
		c3.4169922-2.1470032,7.9780273-1.5739975,10.4859619-1.2559967c2.0460205,0.2590027,2.6309814,0.6179962,4.5269775,0.5559998
		c2.7790527-0.0899963,4.2189941-0.9509964,6.4060059-1.5469971c3.0849609-0.8420029,6.2719727-0.5759964,8.5129395-0.2480011
		c5.1540527,0.7490005,10.2330322,6.4140015,11.2939453,12.048996c0.6779785,3.5979996-0.0019531,4.8639984,0.2600098,12.9219971
		c0.0529785,1.6500015,0.2740479,3.5569992,0.8249512,5.8730011c0.7750244,3.2699966,1.4949951,4.3929977,2.1020508,6.487999
		c0,0,0.3480225,1.3720016,0.6409912,2.9850006c0.802002,4.4189987,0.552002,8.0390015,0.5169678,12.909996
		c-0.0200195,2.7749939-0.0460205,6.3699951,0.2919922,10.8600006c0.5169678,6.8379974,1.1710205,6.3899994,0.9759521,9.802002
		c-0.2629395,4.595993-1.4730225,5.7960052-1.3649902,10.9660034c0.0469971,2.2599945,0.3220215,4.2169952,0.4870605,5.375
		c0.44104,3.1260071,0.9610596,4.8359985,1.5600586,7.4850006c0.6724854,2.9855042,1.1917725,6.0034485,1.5560303,9.0419922
		c1.9899902-4.5950012,4.2800293-5.9929962,5.1550293-10.5919952c0.1070557-0.5670013,0.1999512-1.2599945,0.1999512-1.2599945
		c0.4560547-3.0240021,0.4179688-3.9140015,0.8260498-6.7819977c0.3210449-2.2639923,0.526001-2.9900055,0.7800293-3.654007
		c0.2679443-0.7050018,0.4210205-0.8959961,0.6619873-1.6620026c0.3079834-0.9750061,0.4129639-1.7720032,0.532959-3.0950012
		c0.1099854-1.1970062,0.2049561-2.3970032,0.2800293-3.6000061c0.1450195-2.3480072,0.2199707-4.6999969,0.1989746-7.0540009
		c-0.032959-3.5970001,0.0899658-7.1320038,0.7320557-10.6730042c1.0040283-5.5399933,2.7860107-9.552002,6.3480225-17.576004
		c6.0870361-13.7099991,7.9420166-12.4869995,11.4859619-21.6230011c2.8120117-7.25,2.243042-15.8820038,5.7700195-22.8089981
		c2.0340576-3.9940033,4.6359863-5.3300018,8.4279785-6.1699982c4.6679688-1.0410004,9.1140137-3.1259995,12.875-6.4959984
		c3.8139648-3.4140015,7.5340576-4.8479996,11.7709961-7.1899986c4.4119873-2.4339981,8.7900391-5.7190018,13.802002-6.1640015
		c5.401001-0.4720001,10.7740479,5.3390007,14.006958,9.7299995c3.5400391,4.8110008,2.9820557,6.1020012,7.4620361,17.6099968
		c4.2929688,11.0230026,6.243042,10.1380005,8.6569824,18.5019989c2.4899902,8.6299973,0.2740479,9.0920029,2.7280273,19.3990021
		c2.394043,10.0469971,4.7779541,10.7779999,6.6729736,20.7579956c0.7110596,3.7409973,0.618042,4.9120026,0.9389648,9.1829987
		c0.2270508,3.0460052,0.3499756,3.253006,0.519043,5.6340027c0.0899658,1.2899933,0.1190186,2.2680054,0.1149902,3.095993
		c-0.0050049,0.9340057,0.0019531,1.6130066-0.0109863,2.5050049c-0.0229492,1.5090027-0.072998,2.5379944-0.0899658,2.9629974
		c-0.0930176,2.6660004-0.0169678,5.5980072,1.0169678,8.0619965c1.1190186,2.6649933,2.1479492,4.6999969,2.3480225,7.6799927
		c0.1850586,2.7700043,0.1429443,5.6300049,1.2370605,8.2089996c1.3632812,3.2266235,2.3001709,6.6171875,2.7869873,10.0859985
		c0.1639404,1.1660004-0.0150146,8.0209961,1.4460449,8.2359924c0.4599609,0.0670013,0.7929688-0.9179993,1.8780518-2.7700043
		c1.9639893-3.3470001,2.0279541-2.9380035,2.9749756-4.7149963c2.1960449-4.1309967,2.0040283-6.6329956,3.3850098-8.2570038
		c0.1929932-0.227005,0.967041-1.2720032,1.7779541-2.7929993c0.0419922-0.0800018,0.0760498-0.1929932,0.118042-0.276001
		c3.9730225-8.0059967,3.0269775-35.2200012,10.717041-53.487999c3.5949707-8.5400009,9.2030029-19.0100021,13.8570557-18.1220016
		c3.4000244,0.6470032,3.5849609,6.7679977,10.006958,14.5070038c5.0200195,6.052002,6.8979492,4.512001,11.5620117,9.6439972
		c6.7979736,7.4850006,8.7750244,17.0319977,10.4830322,25.2749939c0.81604,3.9420013,2.4160156,11.973999,1.5379639,22.2550049
		c-0.8699951,10.1829987-3.2220459,11.4600067-4.8330078,22.7100067c-0.1400146,0.977005-0.276001,2.0039978-0.4050293,3.1459961
		c-0.6875,6.1839905-0.8988037,12.4116516-0.631958,18.628006c0.1230469,2.8240051,0.2769775,7.4389954,1.3199463,13.3119965
		c0.6899414,3.8860016,1.5439453,6.9570007,2.3470459,10.0050049c1.4899902,5.6519928,2.8010254,11.2309875,2.5670166,21.7919922
		c-0.0030518,0.1669922-0.0140381,0.302002-0.0179443,0.4649963c-0.3000488,11.571991-1.9759521,15.901001-2.3149414,22.7990112
		c-0.0699463,1.4809875-0.0290527,4.9590149,0.3370361,9.4060059c0.3210449,3.8980103,0.7099609,8.6380005,2.1989746,13.644989
		c1.697998,5.7160034,3.1419678,6.1000061,4.9589844,10.822998c4.375,11.3619995,0.5550537,20.9200134,2.592041,21.6499939
		c1.9630127,0.7070007,7.3100586-7.5119934,8.9780273-16.8179932c0.3620605-2.0169983,0.5240479-7.0899963,0.8330078-17.1419983
		c0.2380371-7.7340088,0.1080322-7.2969971,0.2679443-9.3099976c0.0500488-0.6239929,0.105957-1.2520142,0.1729736-1.8909912
		c0.4699707-4.5279846,1.3879395-9.7909851,3.0219727-19.1529846c1.9110107-10.9460144,2.8669434-16.4200134,4.2519531-21.6369934
		c4.1330566-15.595993,7.5200195-15.4689941,10.4880371-26.7030029c3.4780273-13.1699982,0.1409912-18.3320007,0.4200439-28.0780029
		c0.0999756-3.5500031,0.618042-6.0579987,1.3110352-9.5350037c2.8439941-14.2599945,9.4060059-30.9680023,11.8570557-37.0270081
		c3.9700928-10.9837952,7.4160156-22.1500549,10.3260498-33.4609985
		c7.6030273-29.5279999,6.1309814-38.9389954,13.5909424-77.5370026
		c5.2149658-26.9810009,7.5250244-28.9969997,10.2509766-50.0480003c0.0269775-0.206,0.0510254-0.411,0.0770264-0.618H0V0z"/>
</g>
</svg>
