<?xml version="1.0" encoding="UTF-8"?>
<svg data-bbox="0 0 1894.127 349.001" viewBox="0 0 1894.126 349" xmlns="http://www.w3.org/2000/svg" data-type="color">
    <g>
        <path d="M0 0c.026.207.05.412.077.619 2.726 21.05 5.037 23.066 10.251 50.047 7.46 38.598 5.989 48.009 13.592 77.537a368.385 368.385 0 0 0 10.326 33.461c2.451 6.06 9.013 22.767 11.857 37.027.693 3.477 1.21 5.986 1.311 9.536.278 9.745-3.058 14.908.42 28.077 2.967 11.234 6.355 11.107 10.488 26.703 1.385 5.217 2.34 10.69 4.251 21.637 1.635 9.362 2.553 14.625 3.022 19.153.067.639.124 1.267.174 1.89.16 2.014.03 1.577.267 9.31.31 10.053.472 15.126.833 17.143 1.669 9.306 7.016 17.525 8.979 16.817 2.036-.73-1.783-10.287 2.592-21.649 1.817-4.722 3.26-5.107 4.959-10.823 1.49-5.007 1.877-9.747 2.199-13.645.366-4.447.407-7.924.336-9.406-.339-6.898-2.014-11.227-2.315-22.799-.004-.163-.014-.298-.018-.465-.233-10.56 1.078-16.14 2.567-21.792.804-3.048 1.657-6.119 2.347-10.005 1.043-5.873 1.198-10.488 1.32-13.312.17-3.9.268-10.567-.632-18.628a103.83 103.83 0 0 0-.404-3.147c-1.611-11.25-3.963-12.526-4.834-22.709-.878-10.281.723-18.313 1.539-22.255 1.708-8.243 3.685-17.79 10.483-25.275 4.663-5.132 6.542-3.592 11.562-9.644 6.421-7.739 6.608-13.86 10.007-14.507 4.653-.888 10.261 9.582 13.857 18.122 7.69 18.268 6.744 45.482 10.716 53.488.043.083.076.196.118.276.812 1.521 1.586 2.566 1.779 2.793 1.381 1.624 1.189 4.126 3.385 8.257.946 1.777 1.01 1.368 2.974 4.714 1.085 1.853 1.419 2.838 1.879 2.77 1.46-.214 1.282-7.069 1.446-8.234a40.304 40.304 0 0 1 2.787-10.087c1.094-2.578 1.051-5.438 1.236-8.209.2-2.98 1.23-5.015 2.348-7.68 1.035-2.464 1.111-5.395 1.017-8.062-.016-.425-.066-1.454-.089-2.963-.013-.892-.006-1.571-.011-2.505-.004-.828.024-1.807.115-3.096.169-2.381.291-2.588.519-5.634.32-4.27.228-5.442.938-9.183 1.896-9.98 4.28-10.71 6.673-20.758 2.455-10.307.239-10.77 2.729-19.398 2.414-8.365 4.364-7.48 8.657-18.502 4.48-11.509 3.921-12.8 7.462-17.611 3.233-4.391 8.606-10.202 14.007-9.73 5.012.446 9.389 3.73 13.801 6.165 4.238 2.341 7.957 3.775 11.772 7.189 3.76 3.37 8.206 5.455 12.874 6.496 3.792.84 6.395 2.176 8.428 6.17 3.528 6.927 2.959 15.558 5.77 22.81 3.544 9.135 5.4 7.911 11.486 21.622 3.563 8.024 5.345 12.036 6.349 17.576.642 3.541.765 7.076.732 10.673-.021 2.353.054 4.706.198 7.054.076 1.203.17 2.403.28 3.6.12 1.324.226 2.12.533 3.095.242.766.394.957.662 1.662.255.664.46 1.39.78 3.654.408 2.868.37 3.758.827 6.783 0 0 .093.693.2 1.259.874 4.599 3.165 5.997 5.155 10.592a89.83 89.83 0 0 1 1.555-9.042c.6-2.648 1.12-4.36 1.561-7.485.164-1.158.44-3.115.487-5.375.107-5.17-1.102-6.37-1.365-10.966-.196-3.411.46-2.964.975-9.802.339-4.49.313-8.085.293-10.859-.035-4.872-.285-8.492.516-12.91.293-1.614.642-2.986.642-2.986.607-2.095 1.327-3.219 2.102-6.488.55-2.316.772-4.222.825-5.873.262-8.058-.418-9.324.26-12.922 1.06-5.635 6.14-11.3 11.294-12.049 2.24-.328 5.427-.594 8.513.248 2.187.596 3.627 1.458 6.406 1.547 1.895.062 2.48-.297 4.527-.556 2.508-.318 7.069-.891 10.486 1.257 2.951 1.855 1.668 3.619 5.306 6.89 2.913 2.615 4.214 1.916 7.895 5.057 2.21 1.887 3.605 3.73 4.42 4.82 2.256 3.017 3.366 5.826 4.63 8.425 3.534 7.276 5.97 14.95 7.824 22.972.59 2.55 1.183 5.73 1.754 10.245 1.65 13.13.033 13.296 1.623 25.705 1.146 8.921 2.086 9.648 6.766 30.199 3.535 15.522 5.302 23.283 5.975 30.205.688 7.066.323 8.991.237 15.746-.115 9.002-.6 10.844.212 14.017a23.377 23.377 0 0 0 1.921 5.009 42.115 42.115 0 0 0 5.728-8.332c1.695-3.233 1.856-4.544 3.883-9.169 2.621-5.988 3.578-6.59 5.398-10.768 1.967-4.52 2.685-8.033 3.79-13.438 1.382-6.767 2.853-17.146 3.331-25.413.097-1.68.196-3.398.855-5.652.853-2.918 2.58-5.45 3.756-8.215a82.504 82.504 0 0 0 4.31-13.117c2.025-8.426 1.076-16.626.724-25.154a748.208 748.208 0 0 1-.513-18.406c-.168-9.52-.169-15.94 1.142-24.356.812-5.227 1.814-9.187 3.778-16.178 6.182-21.996 9.096-33.06 11.922-36.088 8.027-8.608 21.029-10.677 30.442-7.358 5.908 2.085 5.216 4.677 11.537 6.755 11.306 3.719 15.847-3.564 24.99.386 6.8 2.937 10.644 9.709 13.052 13.954 3.165 5.576 4.687 11.11 5.843 17.905 3.149 18.47-.155 21.967 1.172 41.159.777 11.228 2.871 19.748 6.775 35.612 5.412 22.005 7.395 20.646 7.155 28.4-.177 5.771.61 31.97.855 32.09 2.449 1.173 12.556-16.022 17.698-32.579 1.458-4.69 2.15-8.15 2.493-11.1.75-6.45.705-11.077.682-13.512-.061-6.228 1.013-8.925 7.644-32.835 3.873-13.96 5.808-20.94 6.012-22.563 2.048-16.202-2.4-20.72 1.59-29.817 3.344-7.625 6.98-5.621 13.854-15.913 6.482-9.707 5.048-3.352 10.406-10.968 2.05-2.914 10.075.597 20.185.558 12.346-.05 13.174 16.553 30.439 20.958 8.046 2.055 14.16.053 17.97 5.596 2.292 3.333 2.22 7.166 6.536 11.942 2.395 2.651 3.373 2.532 4.942 4.953 2.205 3.398 1.79 5.976 2.787 12.17 1.599 9.94 3.725 9.854 4.203 17.554.315 5.032-.56 5.578-.205 10.847l1.468 20.935 6.429-19.82c.329-1.015 1.376-4.332 2.343-8.93 2-9.526.638-10.277 2.35-14.985 2.266-6.229 6.709-10.594 7.875-11.74 2.815-2.766 4.435-3.324 6.107-6.327 1.877-3.368 1.648-5.914 2.285-8.778 1.278-5.741 7.956-14.154 15.991-14.845 5.693-.49 10.376 2.957 18.498 8.936 5.038 3.708 6.562 6.19 7.142 7.251.103.189.043.088 2.381 5.439a125126.395 125126.395 0 0 0 4.761 10.877c4.758 10.867 4.716 10.767 4.762 10.877 2.833 6.796 2.159 6.468 4.761 12.69 2.539 6.07 3.08 6.14 4.762 10.877 1.377 3.878 2.195 7.15 2.38 10.877.084 1.667-.068 1.238 0 3.626.135 4.666.882 8.279 1.275 11.066.203 1.448.532 3.122 1.106 5.25.195.72.16.536 2.38 7.251 2.956 8.931 2.879 8.828 4.762 14.503 4.026 12.127 4.059 11.668 4.762 14.503.434 1.748 1.088 5.42 2.38 12.69 2.02 11.36 1.866 11.199 2.381 12.69 2.322 6.718 4.622 7.633 4.762 12.69.073 2.645-.514 3.91 0 7.25.558 3.627 1.877 6.213 2.38 7.252 1.666 3.439 3.61 8.974 4.762 18.129a578.286 578.286 0 0 0 4.761-14.503c2.292-7.307 2.88-9.705 4.762-14.503 2.872-7.323 3.393-6.557 4.761-10.877 1.945-6.14.76-7.263 2.381-18.129.575-3.853.564-2.636 2.38-12.69 1.499-8.288 2.248-12.433 2.382-14.502.401-6.234-.312-8.715.718-14.83.175-1.037.494-2.714.823-5.284 1.59-12.409-.028-12.575 1.623-25.705.57-4.516 1.165-7.695 1.754-10.245 1.855-8.021 4.29-15.696 7.824-22.972 1.264-2.6 2.374-5.408 4.63-8.425.814-1.09 2.209-2.933 4.42-4.82 3.68-3.141 4.981-2.442 7.894-5.057 3.639-3.271 2.356-5.035 5.307-6.89 3.417-2.148 7.978-1.575 10.487-1.257 2.045.259 2.63.618 4.526.556 2.78-.09 4.219-.951 6.406-1.547 3.086-.842 6.273-.576 8.513-.248 5.155.749 10.234 6.414 11.294 12.049.678 3.598-.002 4.864.26 12.922.053 1.65.275 3.557.825 5.873.776 3.27 1.495 4.393 2.102 6.488 0 0 .349 1.372.642 2.985.801 4.419.551 8.039.516 12.91-.02 2.775-.046 6.37.293 10.86.516 6.838 1.17 6.39.975 9.802-.263 4.596-1.473 5.796-1.365 10.966.047 2.26.322 4.217.487 5.375.442 3.126.961 4.837 1.561 7.485a89.773 89.773 0 0 1 1.555 9.042c1.99-4.595 4.28-5.993 5.155-10.592.107-.567.2-1.26.2-1.26.456-3.024.419-3.914.826-6.782.322-2.264.526-2.99.78-3.654.269-.705.422-.896.662-1.662.308-.975.413-1.771.533-3.095.11-1.197.205-2.397.281-3.6.144-2.348.219-4.7.198-7.054-.033-3.597.09-7.132.732-10.673 1.004-5.54 2.786-9.552 6.349-17.576 6.086-13.71 7.942-12.487 11.485-21.623 2.812-7.25 2.243-15.882 5.77-22.809 2.034-3.994 4.637-5.33 8.429-6.17 4.668-1.041 9.113-3.126 12.874-6.496 3.815-3.414 7.534-4.848 11.772-7.19 4.412-2.434 8.788-5.719 13.8-6.164 5.402-.472 10.775 5.339 14.008 9.73 3.541 4.811 2.982 6.102 7.463 17.61 4.292 11.023 6.242 10.138 8.656 18.503 2.49 8.628.274 9.091 2.729 19.398 2.393 10.047 4.777 10.779 6.673 20.758.71 3.741.618 4.912.938 9.183.228 3.046.35 3.253.519 5.634.091 1.29.119 2.268.115 3.096-.005.934.002 1.613-.011 2.505-.023 1.509-.073 2.538-.089 2.963-.094 2.666-.017 5.598 1.017 8.062 1.118 2.665 2.147 4.7 2.347 7.68.186 2.77.143 5.63 1.237 8.209a40.3 40.3 0 0 1 2.787 10.086c.164 1.166-.014 8.021 1.447 8.236.459.067.793-.918 1.878-2.77 1.964-3.347 2.028-2.938 2.974-4.715 2.196-4.131 2.004-6.633 3.385-8.257.193-.227.967-1.272 1.779-2.793.041-.08.075-.193.117-.276 3.973-8.006 3.027-35.22 10.717-53.488 3.596-8.54 9.204-19.01 13.857-18.122 3.4.647 3.585 6.768 10.007 14.507 5.02 6.052 6.899 4.512 11.562 9.644 6.798 7.485 8.775 17.032 10.483 25.275.816 3.942 2.416 11.974 1.539 22.255-.871 10.183-3.223 11.46-4.834 22.71-.14.977-.276 2.004-.404 3.146a121.46 121.46 0 0 0-.633 18.628c.123 2.824.278 7.439 1.321 13.312.69 3.886 1.543 6.957 2.347 10.005 1.488 5.652 2.8 11.231 2.567 21.792-.004.167-.014.302-.018.465-.301 11.572-1.976 15.901-2.315 22.799-.071 1.482-.03 4.959.336 9.406.322 3.898.71 8.638 2.199 13.645 1.698 5.716 3.142 6.1 4.959 10.823 4.375 11.362.556 20.92 2.592 21.65 1.963.707 7.31-7.512 8.979-16.818.361-2.017.523-7.09.833-17.142.237-7.734.108-7.297.267-9.31.05-.624.107-1.252.174-1.891.469-4.528 1.387-9.791 3.022-19.153 1.91-10.946 2.866-16.42 4.251-21.637 4.133-15.596 7.521-15.469 10.488-26.703 3.478-13.17.142-18.332.42-28.077.1-3.55.618-6.06 1.311-9.536 2.844-14.26 9.406-30.968 11.857-37.027a368.07 368.07 0 0 0 9.05-28.653l.001.002c7.916-12.54 9.397-22.116 9.146-28.748-.07-1.83-.43-7.588 2.38-14.502 1.554-3.825 3.881-9.552 9.523-10.877 2.266-.533 5.479.249 11.904 1.812 5.742 1.398 9.953 2.9 11.903 3.626 3.3 1.229 6.839 2.547 10.518 4.608 4.105 2.299 10.636 5.957 13.29 11.708 2.774 6.012-1.877 7.405 0 16.315 1.229 5.835 3.442 6.278 4.761 12.69 1.04 5.056.215 7.46 0 12.69-.493 12.028 2.877 23.588 4.761 23.567 1.197-.013 1.174-4.69 4.762-16.315 1.612-5.222 3.248-9.566 3.996-11.544 3.462-9.146 4.19-9.148 5.527-13.836 2.051-7.198.61-8.158 2.38-14.503 2.33-8.346 4.946-7.115 7.143-14.503 2.568-8.633.965-16.935 4.092-23.897.437-.975 1.142-2.512 2.637-4.289 2.216-2.634 3.655-2.803 5.89-5.152 2.333-2.453.96-2.472 4.046-6.544 2.117-2.794 4.063-4.5 6.304-5.856.052-.032.852-.514 1.653-.91 5.407-2.677 12.646-2.344 13.47-2.299 6.06.33 8.66 2.898 26.187 12.69 11.274 6.298 12.87 6.728 14.695 6.995 5.274.77 10.108.147 14.959 2.816 1.124.618 2.13 1.497 3.011 2.78 2.292 3.333 2.222 7.166 6.537 11.942 2.395 2.651 3.373 2.532 4.942 4.953 2.205 3.398 1.79 5.976 2.786 12.17 1.6 9.94 3.725 9.854 4.203 17.554.315 5.032-.56 5.578-.205 10.847l1.469 20.935 6.428-19.82c.33-1.016 1.377-4.332 2.344-8.93 2-9.526.638-10.277 2.35-14.985 2.266-6.229 6.708-10.594 7.875-11.74 2.815-2.766 4.435-3.324 6.107-6.327 1.877-3.368 1.648-5.914 2.285-8.778 1.277-5.741 7.955-14.154 15.99-14.845 5.693-.49 10.377 2.957 18.499 8.936 5.038 3.708 6.562 6.19 7.142 7.251.103.189.043.088 2.38 5.439a62022.335 62022.335 0 0 0 4.762 10.877c4.757 10.867 4.716 10.767 4.762 10.877 2.832 6.796 2.158 6.468 4.761 12.69 2.539 6.07 3.08 6.14 4.762 10.877 1.377 3.878 2.194 7.15 2.38 10.877.083 1.667-.069 1.238 0 3.626.135 4.666.882 8.279 1.274 11.066.204 1.448.533 3.122 1.107 5.25.194.72.16.536 2.38 7.251 2.956 8.931 2.878 8.828 4.762 14.503 4.026 12.127 4.058 11.668 4.762 14.503.433 1.748 1.088 5.42 2.38 12.69 2.02 11.36 1.866 11.199 2.381 12.69 2.322 6.718 4.621 7.633 4.762 12.69.073 2.645-.514 3.91 0 7.25.557 3.627 1.877 6.213 2.38 7.252 1.665 3.439 3.61 8.974 4.762 18.129a575.723 575.723 0 0 0 4.761-14.503c2.291-7.307 2.88-9.705 4.762-14.503 2.872-7.323 3.393-6.557 4.761-10.877 1.945-6.14.76-7.263 2.38-18.129.576-3.853.564-2.636 2.381-12.69 1.499-8.289 2.247-12.433 2.381-14.502.402-6.234-.311-8.715.72-14.83.174-1.037.493-2.714.822-5.284 1.59-12.409-.028-12.575 1.623-25.705.57-4.516 1.164-7.695 1.754-10.245 1.854-8.022 4.29-15.696 7.824-22.972 1.264-2.6 2.373-5.408 4.63-8.425.814-1.09 2.209-2.933 4.42-4.82 3.68-3.141 4.981-2.442 7.894-5.058 3.639-3.27 2.355-5.034 5.307-6.89 3.417-2.147 7.978-1.574 10.486-1.256 2.046.259 2.631.618 4.527.556 2.779-.09 4.219-.951 6.406-1.547 3.085-.842 6.272-.576 8.513-.248 5.154.749 10.233 6.414 11.294 12.049.678 3.598-.002 4.864.26 12.922.053 1.65.274 3.557.825 5.873.775 3.27 1.495 4.393 2.102 6.488 0 0 .348 1.372.641 2.985.802 4.419.552 8.039.517 12.91-.02 2.775-.046 6.37.292 10.86.517 6.838 1.171 6.39.976 9.802-.263 4.596-1.473 5.796-1.365 10.966.047 2.26.322 4.217.487 5.375.441 3.126.961 4.836 1.56 7.485a89.773 89.773 0 0 1 1.556 9.042c1.99-4.595 4.28-5.993 5.155-10.592.107-.567.2-1.26.2-1.26.456-3.024.418-3.914.826-6.782.321-2.264.526-2.99.78-3.654.268-.705.421-.896.662-1.662.308-.975.413-1.772.533-3.095.11-1.197.205-2.397.28-3.6.145-2.348.22-4.7.199-7.054-.033-3.597.09-7.132.732-10.673 1.004-5.54 2.786-9.552 6.348-17.576 6.087-13.71 7.942-12.487 11.486-21.623 2.812-7.25 2.243-15.882 5.77-22.809 2.034-3.994 4.636-5.33 8.428-6.17 4.668-1.041 9.114-3.126 12.875-6.496 3.814-3.414 7.534-4.848 11.771-7.19 4.412-2.434 8.79-5.719 13.802-6.164 5.401-.472 10.774 5.339 14.007 9.73 3.54 4.811 2.982 6.102 7.462 17.61 4.293 11.023 6.243 10.138 8.657 18.502 2.49 8.63.274 9.092 2.728 19.399 2.394 10.047 4.778 10.778 6.673 20.758.711 3.741.618 4.912.939 9.183.227 3.046.35 3.253.519 5.634.09 1.29.119 2.268.115 3.096-.005.934.002 1.613-.011 2.505-.023 1.509-.073 2.538-.09 2.963-.093 2.666-.017 5.598 1.017 8.062 1.119 2.665 2.148 4.7 2.348 7.68.185 2.77.143 5.63 1.237 8.209a40.308 40.308 0 0 1 2.787 10.086c.164 1.166-.015 8.021 1.446 8.236.46.067.793-.918 1.878-2.77 1.964-3.347 2.028-2.938 2.975-4.715 2.196-4.131 2.004-6.633 3.385-8.257.193-.227.967-1.272 1.778-2.793.042-.08.076-.193.118-.276 3.973-8.006 3.027-35.22 10.717-53.488 3.595-8.54 9.203-19.01 13.857-18.122 3.4.647 3.585 6.768 10.007 14.507 5.02 6.052 6.898 4.512 11.562 9.644 6.798 7.485 8.775 17.032 10.483 25.275.816 3.942 2.416 11.974 1.538 22.255-.87 10.183-3.222 11.46-4.833 22.71-.14.977-.276 2.004-.405 3.146a121.46 121.46 0 0 0-.632 18.628c.123 2.824.277 7.439 1.32 13.312.69 3.886 1.544 6.957 2.347 10.005 1.49 5.652 2.801 11.231 2.567 21.792-.003.167-.014.302-.018.465-.3 11.572-1.976 15.901-2.315 22.799-.07 1.481-.029 4.959.337 9.406.321 3.898.71 8.638 2.199 13.645 1.698 5.716 3.142 6.1 4.959 10.823 4.375 11.362.555 20.92 2.592 21.65 1.963.707 7.31-7.512 8.978-16.818.362-2.017.524-7.09.833-17.142.238-7.734.108-7.297.268-9.31.05-.624.106-1.252.173-1.891.47-4.528 1.388-9.791 3.022-19.153 1.911-10.946 2.867-16.42 4.252-21.637 4.133-15.596 7.52-15.469 10.488-26.703 3.478-13.17.141-18.332.42-28.078.1-3.55.618-6.058 1.311-9.535 2.844-14.26 9.406-30.968 11.857-37.027a368.641 368.641 0 0 0 10.326-33.461c7.603-29.528 6.131-38.939 13.591-77.537 5.215-26.981 7.525-28.997 10.251-50.048.027-.206.051-.411.077-.618H0Z" fill="#c0f6ff" data-color="1"/>
    </g>
</svg>
