<?xml version="1.0" encoding="UTF-8"?>
<svg data-bbox="0 0 638.085 375.456" viewBox="0 0 638.085 375.456" xmlns="http://www.w3.org/2000/svg" data-type="ugc">
    <g>
        <g>
            <g>
                <path d="M637.838 162.209c-1.444-19.428-8.498-41.183-22.899-54.888-.9-.856-3.754-3.374-4.993-3.35a19.687 19.687 0 0 1 6.479.954c6.377 2.079 9.83 6.897 11.019 8.748 2.781-35.158-19.696-61.555-48.21-78.591a131.161 131.161 0 0 0-11.308-6.034c-5.59-2.637-11.357-4.765-17.12-6.954l.197-.042c.148 0 .32-.066.465-.095.976.001 2.066-.371 3.042-.495.968 0 1.923-.22 2.887-.276 3.393-.197 6.839-.014 10.198.49 1.456.213 2.896.499 4.332.818 1.232.274 2.487.525 3.602 1.145-3.268-3.062-6.85-5.798-10.587-8.263C536.682-3.269 504.324.071 491.855 1.421c-8.525.922-16.989 2.818-25.159 5.378-19.47 6.1-37.05 18.981-47.771 36.446-4.52 7.363-7.825 15.464-9.793 23.874-1.32 5.636-2.18 11.117-2.063 16.54-26.996-14.313-57.544-22.51-88.605-22.646-30.747-.135-60.723 7.643-87.303 21.362-.01-5.049-.833-10.154-2.051-15.395-1.956-8.413-5.248-16.52-9.756-23.89-10.694-17.48-28.255-30.39-47.715-36.52-8.166-2.572-16.627-4.48-25.15-5.416-12.468-1.37-44.82-4.76-73.11 13.842-3.74 2.46-7.326 5.19-10.599 8.246 1.255-1.172 3.177-1.272 4.783-1.552 2.047-.356 4.115-.6 6.189-.732a58.29 58.29 0 0 1 6.74-.06c2.305.121 4.59.162 6.807.88-.376.178-.755.366-1.146.51-7.204 2.643-14.468 5.384-21.207 9.082-1.975 1.083-3.95 2.156-5.888 3.31-28.541 16.992-51.06 43.354-48.332 78.517 1.19-1.85 4.652-6.663 11.033-8.732a19.686 19.686 0 0 1 6.48-.944c-1.24-.025-4.097 2.488-4.998 3.343C8.819 120.546 1.73 142.29.257 161.716c-.446 5.867-.337 11.756.527 17.583a85.621 85.621 0 0 0 1.197 6.373c.353 1.559 1.494 3.854 1.41 5.424 0 0 .975-18.352 12.381-32.39-1.866 2.296-2.161 8.615-2.693 11.514-.729 3.973-1.248 7.99-1.462 12.024-.413 7.82.32 15.755 2.863 23.194 9.925 29.024 44.254 42.187 72.64 41.718 16.054-.266 31.81-4.909 45.791-12.712-.67 28.513 4.754 66.656 31.71 97.097 38.16 43.09 95.31 43.46 154.275 43.843 55.953.364 103.393.671 140.963-34.765 30.637-28.896 42.574-70.122 42.455-107.487 14.637 8.788 31.41 14.073 48.53 14.382 28.384.513 62.733-12.596 72.703-41.606 2.555-7.434 3.3-15.368 2.899-23.189-.208-4.035-.72-8.051-1.443-12.026-.527-2.9-.813-9.219-2.676-11.518 11.385 14.056 12.33 32.41 12.33 32.41-.08-1.571 1.064-3.864 1.42-5.423a85.572 85.572 0 0 0 1.206-6.371c.874-5.825.991-11.714.555-17.582Z" fill="#b7b7b7"/>
                <path d="M147.016 162.578c6.089-21.166 21.064-42.464 40.045-54.159.553-.34.89-.944.865-1.592-.347-9.24-2.649-18.37-7.324-26.368-8.222-14.066-24.105-21.999-39.91-23.734-6.949-.763-24.98-2.653-40.746 7.715-2.084 1.37-4.083 2.892-5.907 4.595.622-.344 1.322-.483 2.008-.634a32.998 32.998 0 0 1 2.415-.452 27.704 27.704 0 0 1 5.684-.265c.538.032 1.07.156 1.609.157.544.07 1.151.277 1.695.278.08.016.177.053.259.053.037.008.073.017.11.024-3.214 1.214-6.43 2.396-9.547 3.861a73.011 73.011 0 0 0-6.308 3.353c-14.635 8.713-26.428 21.847-27.036 39.155-.054 1.54 1.694 2.462 2.911 1.516a10.918 10.918 0 0 1 3.338-1.779c1.39-.45 2.651-.545 3.612-.526-.691-.014-2.284 1.387-2.786 1.864-8.038 7.625-11.988 19.743-12.81 30.57-.248 3.27-.188 6.552.294 9.8.177 1.19.4 2.376.667 3.551.197.869.833 2.148.787 3.023 0 0 .542-10.228 6.9-18.052-1.04 1.28-1.205 4.802-1.502 6.417a52.583 52.583 0 0 0-.814 6.701c-.23 4.359.178 8.781 1.595 12.927 5.532 16.175 24.664 23.511 40.484 23.25 12.61-.208 24.467-3.71 35.01-9.601l.843-.47c.53-.297.848-.857.843-1.463a69.668 69.668 0 0 1 2.716-19.715Z" fill="#2d2722"/>
                <path d="M486.785 162.84c-6.056-21.175-20.998-42.496-39.961-54.22a1.797 1.797 0 0 1-.863-1.594c.362-9.238 2.678-18.365 7.365-26.356 8.244-14.053 24.139-21.961 39.948-23.672 6.949-.752 24.982-2.614 40.733 7.778 2.082 1.373 4.079 2.898 5.9 4.604-.621-.345-1.321-.485-2.008-.637a32.94 32.94 0 0 0-2.414-.456 27.704 27.704 0 0 0-5.683-.274c-.538.032-1.07.155-1.61.154-.544.07-1.15.276-1.695.276-.08.016-.177.053-.259.053l-.11.024c3.212 1.219 6.426 2.405 9.541 3.875a73.012 73.012 0 0 1 6.303 3.363c14.621 8.736 26.395 21.887 26.976 39.196.051 1.542-1.698 2.46-2.914 1.512-.895-.698-2-1.348-3.335-1.784a10.994 10.994 0 0 0-3.611-.532c.691-.012 2.281 1.391 2.783 1.868 8.026 7.638 11.957 19.763 12.762 30.59.243 3.27.178 6.553-.309 9.8a47.742 47.742 0 0 1-.672 3.55c-.199.868-.836 2.147-.792 3.022 0 0-.526-10.23-6.871-18.062 1.038 1.28 1.197 4.803 1.49 6.418.404 2.216.69 4.454.805 6.703.224 4.359-.191 8.78-1.615 12.924-5.557 16.167-24.7 23.473-40.52 23.188-12.61-.228-24.461-3.749-34.996-9.656l-.842-.472a1.652 1.652 0 0 1-.84-1.463 69.668 69.668 0 0 0-2.686-19.72Z" fill="#2d2722"/>
            </g>
            <g>
                <path fill="#2d2722" d="M341.888 271.457c0 26.799-11.888 48.523-26.553 48.523-14.665 0-26.553-21.724-26.553-48.523 0-26.799 11.888-48.523 26.553-48.523 14.665 0 26.553 21.724 26.553 48.523z"/>
                <path fill="#49423d" d="M311.148 234.392c2.921 1.12 2.836 8.422-.19 16.308s-7.845 13.37-10.766 12.25-2.837-8.422.189-16.308 7.845-13.371 10.767-12.25z"/>
                <path d="M296.057 341.437c10.617 10.634 27.814 10.647 38.447.03" fill="none" stroke="#1a1a1a" stroke-linecap="round" stroke-miterlimit="10" stroke-width="4"/>
            </g>
        </g>
        <path d="M272.56 224.02c0-14.684-12.359-26.48-27.242-25.556-13.04.81-23.527 11.635-23.956 24.693a25.578 25.578 0 0 0 1.559 9.718c1.263 3.423 6.26 2.474 6.231-1.175v-.18c0-11.272 7.97-20.41 17.802-20.41s17.802 9.138 17.802 20.41v.181c-.028 3.64 4.963 4.603 6.225 1.19a25.532 25.532 0 0 0 1.58-8.871Z" fill="#2d2722"/>
        <path d="M409.214 224.02c0-14.684-12.36-26.48-27.242-25.556-13.04.81-23.528 11.635-23.957 24.693a25.578 25.578 0 0 0 1.56 9.718c1.262 3.423 6.259 2.474 6.23-1.175v-.18c0-11.272 7.97-20.41 17.802-20.41s17.803 9.138 17.803 20.41l-.001.181c-.028 3.64 4.964 4.603 6.225 1.19a25.532 25.532 0 0 0 1.58-8.871Z" fill="#2d2722"/>
    </g>
</svg>
