<?xml version="1.0" encoding="UTF-8"?>
<svg data-bbox="0 60.742 831.024 294.578" viewBox="0 0 831.024 355.319" xmlns="http://www.w3.org/2000/svg" data-type="ugc">
    <g>
        <path d="M190.843 134.817c.393-1.412.481-3.12-.106-4.425-.037-.082-.158-.327-.239-.354.112.038.254.103.395.218.36.296.462.717.492.876 1.059-2.43.267-4.823-1.148-6.693a8.849 8.849 0 0 0-.58-.69c-.294-.317-.613-.602-.93-.89l.013.001c.01.003.023.003.033.004.063.023.142.022.208.035.063.023.13.03.194.048.224.065.442.157.646.271.088.049.174.103.259.159.073.047.147.094.204.164a5.599 5.599 0 0 0-.477-.831c-1.359-1.978-3.531-2.492-4.37-2.685a8.334 8.334 0 0 0-1.759-.202 5.989 5.989 0 0 0-3.995 1.478 6.395 6.395 0 0 0-1.229 1.467c-.226.37-.418.738-.546 1.126-1.385-1.642-3.153-2.931-5.154-3.661-1.982-.723-4.112-.866-6.17-.509.125-.358.2-.74.252-1.14a6.474 6.474 0 0 0-.033-1.92 6.095 6.095 0 0 0-2.168-3.698 8.41 8.41 0 0 0-1.488-.967c-.77-.386-2.775-1.377-5.066-.713a5.492 5.492 0 0 0-.89.34c.107-.054.231-.019.34 0 .073.011.147.022.219.039a3.9 3.9 0 0 1 .642.205c.146.062.293.118.418.22a4.136 4.136 0 0 1-.164.001c-2.079-.027-4.38.747-5.875 2.466a5.563 5.563 0 0 0-1.058 1.823c-.029.083-.073.37-.132.42.124-.103.467-.364.931-.363.181 0 .332.04.442.083-.08-.03-.327.081-.406.121-1.273.637-2.274 2.015-2.855 3.359a6.511 6.511 0 0 0-.488 1.74c-.016.118 0 .307-.044.417 0 0 .522-1.28 1.609-2.011-.178.12-.355.561-.462.754-.146.265-.28.538-.395.82-.222.545-.373 1.125-.395 1.711-.084 2.29 1.803 4.02 3.647 4.644 1.044.354 2.177.39 3.274.16-.432 1.148-.814 2.566-.878 4.091l8.208 2.948 1.479.53 3.18 1.143 2.629.944 7.238 2.6a13.506 13.506 0 0 0 2.026-3.785c.726.963 1.676 1.727 2.774 2.146 1.82.694 4.365.56 5.734-1.266.35-.469.597-1.014.766-1.578a7.77 7.77 0 0 0 .208-.887c.038-.218.178-.673.115-.88.384 1.262-.014 2.586-.014 2.586.034-.113.165-.25.227-.352a6.505 6.505 0 0 0 .712-1.658z" fill="#b7b7b8"/>
        <path d="M159.146 123.463c.922-1.36 2.421-2.524 3.94-2.913a.138.138 0 0 0 .095-.093c.208-.664.288-1.365.186-2.04-.18-1.19-1.006-2.12-1.983-2.61-.43-.215-1.547-.767-2.824-.397-.169.049-.336.11-.496.189.049-.01.097-.004.145.001a1.733 1.733 0 0 1 .54.137c.035.015.066.036.101.049.034.017.068.046.103.059.004.003.01.008.015.01l.007.004c-.238.011-.475.02-.713.052a4.837 4.837 0 0 0-.491.092c-1.163.279-2.253.937-2.724 2.151-.042.108.047.214.15.175a.69.69 0 0 1 .506-.002c-.044-.017-.182.045-.226.067-.71.355-1.268 1.123-1.592 1.872a3.629 3.629 0 0 0-.271.97c-.01.066 0 .171-.025.232 0 0 .29-.713.897-1.12-.1.066-.198.312-.258.42a4.31 4.31 0 0 0-.22.457 2.822 2.822 0 0 0-.22.954c-.047 1.275 1.005 2.24 2.033 2.588a4.72 4.72 0 0 0 2.5.13l.066-.014a.126.126 0 0 0 .091-.084c.164-.475.392-.928.668-1.336z" fill="#2d2722"/>
        <path d="M181.075 131.36c.139-1.643-.293-3.502-1.224-4.774a.14.14 0 0 1-.016-.133c.254-.647.632-1.24 1.134-1.699.883-.806 2.107-.998 3.17-.753.468.108 1.679.394 2.436 1.496.1.146.191.3.266.463a.476.476 0 0 0-.114-.091 1.737 1.737 0 0 0-.505-.24c-.035-.01-.072-.014-.107-.026-.037-.008-.081-.007-.116-.02-.006 0-.013 0-.018-.002l-.008-.001c.177.16.355.32.519.496a4.8 4.8 0 0 1 .323.385c.725.959 1.157 2.165.762 3.406-.035.11-.171.135-.226.04a.694.694 0 0 0-.39-.325c.044.015.112.151.132.196.328.728.278 1.68.06 2.467a3.626 3.626 0 0 1-.397.924c-.035.057-.108.133-.127.196 0 0 .222-.738.008-1.44.035.114-.043.368-.064.49a4.33 4.33 0 0 1-.116.493 2.812 2.812 0 0 1-.427.88c-.763 1.018-2.182 1.092-3.196.705a4.767 4.767 0 0 1-2.018-1.496l-.042-.053a.128.128 0 0 1-.018-.123c.171-.473.278-.97.32-1.462z" fill="#2d2722"/>
        <path d="M165.748 130.844c.36-1.02-.133-2.118-1.095-2.392-.844-.24-1.77.274-2.117 1.17a2.07 2.07 0 0 0-.14.71c-.003.267.335.314.423.06l.004-.012c.276-.783 1.003-1.236 1.624-1.013.62.223.9 1.038.625 1.82a2.072 2.072 0 0 1-.004.013c-.091.252.2.432.364.224.132-.169.24-.364.316-.58z" fill="#2d2722"/>
        <path d="M174.38 133.943c.358-1.019-.134-2.118-1.097-2.391-.843-.24-1.77.274-2.116 1.17a2.065 2.065 0 0 0-.14.71c-.003.266.335.314.423.06l.004-.013c.276-.782 1.003-1.236 1.624-1.013.62.223.9 1.038.625 1.82a1.758 1.758 0 0 1-.005.013c-.09.252.201.432.365.224.132-.169.24-.363.316-.58z" fill="#2d2722"/>
        <path d="M169.006 135.707c.67-1.9.447-3.718-.499-4.058s-2.258.923-2.929 2.824a6.96 6.96 0 0 0-.33 1.332l3.18 1.142c.22-.368.417-.786.578-1.24z" fill="#2d2722"/>
        <path fill="#49433d" d="M167.94 132.357c.17.135-.006.643-.394 1.136-.388.493-.841.784-1.012.65-.17-.135.006-.643.394-1.136.388-.493.841-.784 1.012-.65z"/>
        <path d="M172.702 120.499c.265-.752-.075-1.56-.759-1.805" fill="none" stroke="#b7b7b8" stroke-width=".75" stroke-linecap="round" stroke-miterlimit="10"/>
        <path d="M172.702 120.499c.22-.626.86-.967 1.43-.763" fill="none" stroke="#b7b7b8" stroke-width=".75" stroke-linecap="round" stroke-miterlimit="10"/>
        <path d="M692.552 108.468c-.551-1.388-1.53-2.823-2.808-3.51-.08-.043-.329-.165-.41-.136.113-.04.268-.077.453-.072.473.013.815.29.937.399-.637-2.63-2.75-4.068-5.045-4.691a8.878 8.878 0 0 0-.894-.194c-.433-.07-.867-.1-1.301-.135l.012-.007c.01-.003.02-.012.029-.017.064-.022.128-.073.19-.103.065-.021.123-.058.186-.083a3.17 3.17 0 0 1 .69-.187c.102-.016.204-.026.307-.034.088-.007.178-.016.266.005a5.605 5.605 0 0 0-.897-.373c-2.316-.746-4.39.204-5.188.574a8.582 8.582 0 0 0-1.548.942 6.223 6.223 0 0 0-2.325 3.705 6.604 6.604 0 0 0-.093 1.957c.044.441.115.86.25 1.254-2.13-.457-4.355-.39-6.424.278-2.049.66-3.86 1.882-5.308 3.464a5.744 5.744 0 0 0-.496-1.08 6.517 6.517 0 0 0-1.208-1.532 6.106 6.106 0 0 0-4.029-1.628 8.511 8.511 0 0 0-1.8.153c-.86.171-3.092.63-4.539 2.605a5.71 5.71 0 0 0-.512.834c.055-.11.176-.16.276-.214a3.19 3.19 0 0 1 .2-.106c.21-.096.425-.179.647-.238.156-.04.31-.088.474-.084l-.132.104c-1.7 1.284-3.087 3.356-3.24 5.685a5.728 5.728 0 0 0 .265 2.138c.027.085.17.346.152.423.036-.161.154-.589.53-.879.147-.113.293-.175.409-.21-.083.025-.215.27-.255.353-.639 1.314-.602 3.057-.245 4.509a6.634 6.634 0 0 0 .675 1.713c.06.106.19.249.22.365 0 0-.364-1.362.067-2.636-.07.208.057.676.09.9.044.306.104.61.184.91.155.58.39 1.144.733 1.632 1.34 1.904 3.93 2.118 5.808 1.464 1.062-.37 2.001-1.052 2.749-1.927.356 1.2.92 2.586 1.804 3.86l8.458-2.773 1.524-.5 3.277-1.074 2.708-.888 7.458-2.445c.012-1.494-.25-2.98-.687-4.332 1.18.323 2.419.343 3.565-.008 1.9-.581 3.878-2.288 3.862-4.625-.004-.599-.14-1.195-.35-1.758a7.886 7.886 0 0 0-.377-.847c-.103-.2-.27-.656-.447-.783 1.086.779 1.578 2.099 1.578 2.099-.042-.113-.02-.305-.032-.427a6.64 6.64 0 0 0-.443-1.788z" fill="#b7b7b8"/>
        <path d="M659.91 119.2c-.09-1.68.408-3.563 1.397-4.831a.143.143 0 0 0 .02-.135c-.239-.668-.606-1.285-1.104-1.767-.876-.848-2.118-1.082-3.21-.864-.48.096-1.724.351-2.53 1.453-.106.145-.204.3-.285.464.033-.039.076-.064.119-.09a1.775 1.775 0 0 1 .522-.229c.036-.01.074-.012.11-.024.038-.006.083-.004.12-.016.005 0 .012 0 .018-.002h.008c-.186.158-.372.315-.545.49-.12.12-.233.248-.341.382-.77.956-1.247 2.173-.882 3.45.032.114.17.143.229.048a.71.71 0 0 1 .408-.32c-.046.014-.12.151-.142.197-.356.732-.335 1.704-.136 2.513a3.696 3.696 0 0 0 .376.954c.033.06.105.139.123.204 0 0-.203-.76.036-1.47-.039.117.033.378.05.502.026.17.059.34.103.508.087.323.218.637.409.91.746 1.06 2.19 1.18 3.237.815a4.869 4.869 0 0 0 2.104-1.465l.045-.053a.13.13 0 0 0 .022-.125 5.842 5.842 0 0 1-.28-1.5z" fill="#2d2722"/>
        <path d="M682.518 111.809c-.898-1.415-2.39-2.647-3.927-3.09a.14.14 0 0 1-.094-.098c-.192-.683-.252-1.4-.127-2.086.22-1.207 1.092-2.131 2.103-2.601.445-.207 1.601-.736 2.892-.32.17.055.339.123.5.208-.05-.012-.1-.007-.148-.003a1.77 1.77 0 0 0-.556.123c-.035.014-.068.035-.104.047-.034.016-.07.045-.106.057l-.016.01-.007.003c.243.02.484.036.726.075.167.028.333.064.498.109 1.177.319 2.268 1.023 2.711 2.275.04.112-.055.217-.158.174a.705.705 0 0 0-.516-.018c.045-.016.184.052.228.076.713.383 1.258 1.183 1.565 1.957a3.697 3.697 0 0 1 .247.997c.007.068-.005.175.018.238 0 0-.274-.736-.88-1.17.1.07.193.325.25.436.078.153.15.31.21.473.117.313.193.645.195.98.009 1.302-1.094 2.253-2.153 2.577a4.816 4.816 0 0 1-2.554.058l-.067-.016a.129.129 0 0 1-.09-.089 5.813 5.813 0 0 0-.64-1.382z" fill="#2d2722"/>
        <path d="M669.794 121.02c-.336-1.05-1.41-1.63-2.358-1.246-.83.336-1.265 1.334-.994 2.276.071.248.183.47.324.662.16.217.464.043.379-.217a.98.98 0 0 1-.004-.013c-.258-.806.051-1.629.69-1.839.64-.21 1.368.274 1.626 1.08a.99.99 0 0 1 .005.012c.081.261.428.223.432-.048a2.089 2.089 0 0 0-.1-.667z" fill="#2d2722"/>
        <path d="M678.687 118.104c-.337-1.05-1.41-1.629-2.358-1.245-.83.336-1.265 1.333-.994 2.276.071.247.183.47.324.661.16.218.464.044.379-.217a13.1 13.1 0 0 1-.005-.013c-.258-.805.052-1.628.692-1.838.64-.21 1.367.273 1.625 1.079l.004.013c.082.26.429.223.433-.048a2.087 2.087 0 0 0-.1-.668z" fill="#2d2722"/>
        <path d="M675.422 122.906c-.626-1.958-1.924-3.287-2.9-2.968s-1.26 2.165-.634 4.123c.15.47.338.902.552 1.284l3.277-1.074a7.096 7.096 0 0 0-.295-1.365z" fill="#2d2722"/>
        <path fill="#49433d" d="M672.5 120.867c.22.004.39.528.379 1.17-.012.642-.202 1.16-.422 1.156-.22-.004-.39-.528-.378-1.17.012-.642.202-1.16.422-1.156z"/>
        <path d="M669.06 108.287c-.247-.774-1.019-1.214-1.724-.983" stroke-width=".5" fill="none" stroke="#b7b7b8" stroke-linecap="round" stroke-miterlimit="10"/>
        <path d="M669.06 108.287c-.206-.645.102-1.322.69-1.515" stroke-width=".5" fill="none" stroke="#b7b7b8" stroke-linecap="round" stroke-miterlimit="10"/>
        <path d="M800.666 154.089c-1.035-4.457-3.8-8.216-7.79-11.11 1.696-6.392 1.43-12.376-1.206-17.056-6.952-12.349-27.73-10.946-46.407 3.133-11.517 8.682-19.539 20.155-22.373 30.572-2.357 4.445-3.211 9.117-2.165 13.624.732 3.155 2.335 5.958 4.62 8.355 5.758 10.389 20.157 19.546 37.37 22.636 22.899 4.112 42.103-4.07 42.892-18.274.327-5.89-2.57-11.888-7.697-17.188 2.806-4.76 3.886-9.822 2.756-14.692z" fill="#ffe6f9"/>
        <path d="M586.241 206.783c1.035 4.457 3.8 8.216 7.79 11.109-1.696 6.392-1.43 12.376 1.206 17.056 6.952 12.35 27.73 10.947 46.407-3.132 11.517-8.682 19.539-20.155 22.373-30.572 2.357-4.446 3.211-9.118 2.165-13.625-.732-3.155-2.335-5.958-4.62-8.354-5.758-10.39-20.157-19.546-37.37-22.637-22.899-4.112-42.103 4.07-42.892 18.275-.327 5.89 2.57 11.887 7.697 17.187-2.806 4.76-3.886 9.823-2.756 14.693z" fill="#ffe6f9"/>
        <path d="M699.414 180.047c3.42-2.159 6.772-4.376 9.78-7.3 5.25-5.12 9.316-12.878 9.928-27.688a90.2 90.2 0 0 0 .057-2.258c.065-5.265-.314-11.21-1.182-17.837a60.035 60.035 0 0 1 16.534 11.06c-4.35 12.83-8.393 22.994-12.925 29.64-6.426 9.762-13.997 12.737-22.192 14.383z" fill="#fbc4e9"/>
        <path d="M698.444 184.657c3.916.933 7.834 1.768 11.973 1.931 7.21.36 15.44-2.078 25.25-9.333a86.74 86.74 0 0 0 1.463-1.102c4.71-3.631 9.504-8.123 14.172-12.992a61.963 61.963 0 0 1 2.592 15.216c-12.552 6.882-22.102 10.795-29.849 12.216-11.247 2.146-18.659-1.22-25.601-5.936z" fill="#fbc4e9"/>
        <path d="M692.358 175.104c-2.125-3.474-4.305-6.884-7.185-9.94-5.037-5.334-12.668-9.468-27.242-10.09a83.598 83.598 0 0 0-2.222-.058c-5.18-.067-11.03.32-17.552 1.202a61.193 61.193 0 0 1 10.882-16.803c12.625 4.42 22.63 8.528 29.167 13.135 9.605 6.53 12.53 14.225 14.152 22.554z" fill="#fbc4e9"/>
        <path d="M696.894 176.09c.916-3.982 1.74-7.962 1.9-12.169.353-7.327-2.043-15.69-9.184-25.66a87.507 87.507 0 0 0-1.084-1.487c-3.575-4.79-7.995-9.66-12.784-14.403a59.215 59.215 0 0 1 14.973-2.635c6.772 12.757 10.622 22.462 12.02 30.335 2.112 11.43-1.202 18.962-5.841 26.02z" fill="#fbc4e9"/>
        <path d="M688.464 177.665c-3.917-.932-7.836-1.769-11.974-1.93-7.209-.361-15.44 2.077-25.25 9.332a84.91 84.91 0 0 0-1.462 1.102c-4.712 3.63-9.505 8.123-14.173 12.992a61.964 61.964 0 0 1-2.592-15.217c12.55-6.882 22.103-10.794 29.849-12.215 11.247-2.146 18.658 1.22 25.602 5.936z" fill="#fbc4e9"/>
        <path d="M694.55 187.218c2.125 3.474 4.304 6.884 7.184 9.94 5.039 5.334 12.668 9.469 27.244 10.09.724.029 1.464.048 2.22.058 5.18.067 11.03-.32 17.552-1.202a61.193 61.193 0 0 1-10.882 16.803c-12.624-4.42-22.627-8.528-29.165-13.135-9.607-6.531-12.534-14.226-14.154-22.554z" fill="#fbc4e9"/>
        <path d="M684.173 212.25c-2.112-11.429 1.2-18.962 5.84-26.019-.919 3.982-1.738 7.964-1.9 12.17-.352 7.327 2.044 15.691 9.184 25.66.351.494.713.99 1.084 1.487 3.57 4.788 7.994 9.659 12.784 14.403a59.221 59.221 0 0 1-14.972 2.635c-6.771-12.756-10.623-22.462-12.02-30.336z" fill="#fbc4e9"/>
        <path d="M687.493 182.275c-3.419 2.16-6.775 4.375-9.78 7.3-5.25 5.12-9.315 12.878-9.928 27.688a88.92 88.92 0 0 0-.057 2.258c-.066 5.264.314 11.21 1.183 17.837a60.036 60.036 0 0 1-16.534-11.06c4.349-12.83 8.39-22.995 12.924-29.64 6.425-9.762 13.996-12.738 22.192-14.383z" fill="#fbc4e9"/>
        <path d="M697.297 224.062c-7.14-9.97-9.536-18.334-9.184-25.661.162-4.206.981-8.188 1.9-12.17-4.64 7.057-7.952 14.59-5.84 26.02 1.397 7.873 5.249 17.579 12.02 30.335a59.66 59.66 0 0 1-15.007-1.227 60.016 60.016 0 0 1-12.275-4.001c-.87-6.627-1.249-12.573-1.183-17.837.01-.77.029-1.523.057-2.258.613-14.81 4.677-22.568 9.928-27.687 3.005-2.926 6.361-5.142 9.78-7.3-8.196 1.644-15.767 4.62-22.192 14.381-4.535 6.646-8.575 16.811-12.924 29.642-7.827-7.37-13.632-16.75-16.772-27.138 4.668-4.869 9.46-9.362 14.173-12.992.49-.378.978-.745 1.462-1.102 9.81-7.255 18.041-9.693 25.25-9.333 4.138.162 8.057.999 11.974 1.93-6.944-4.715-14.355-8.08-25.602-5.935-7.746 1.42-17.298 5.333-29.85 12.215a62.574 62.574 0 0 1 1.208-15.25 62.435 62.435 0 0 1 3.937-12.476c6.521-.883 12.372-1.269 17.552-1.202.758.01 1.497.03 2.222.058 14.574.622 22.205 4.756 27.242 10.09 2.88 3.056 5.06 6.466 7.185 9.94-1.621-8.329-4.547-16.023-14.152-22.554-6.538-4.607-16.542-8.716-29.167-13.135 7.252-7.953 16.482-13.853 26.703-17.044 4.79 4.744 9.21 9.614 12.784 14.403.371.498.733.994 1.084 1.486 7.14 9.97 9.537 18.334 9.184 25.661-.16 4.207-.984 8.187-1.9 12.17 4.639-7.058 7.953-14.59 5.84-26.02-1.397-7.873-5.247-17.578-12.02-30.335a59.656 59.656 0 0 1 15.007 1.227 60.017 60.017 0 0 1 12.276 4.001c.868 6.627 1.247 12.572 1.182 17.837a90.2 90.2 0 0 1-.057 2.258c-.612 14.81-4.678 22.568-9.928 27.687-3.008 2.925-6.36 5.142-9.78 7.3 8.195-1.645 15.766-4.62 22.192-14.382 4.532-6.646 8.576-16.81 12.925-29.64 7.826 7.37 13.631 16.75 16.77 27.137-4.667 4.869-9.46 9.361-14.17 12.992-.491.378-.98.745-1.464 1.102-9.81 7.255-18.04 9.693-25.25 9.333-4.14-.163-8.057-.998-11.973-1.93 6.942 4.715 14.354 8.081 25.601 5.935 7.747-1.42 17.297-5.334 29.85-12.216a62.562 62.562 0 0 1-1.208 15.251 62.435 62.435 0 0 1-3.937 12.476c-6.521.883-12.372 1.269-17.552 1.202a82.84 82.84 0 0 1-2.22-.059c-14.576-.62-22.205-4.755-27.244-10.09-2.88-3.055-5.059-6.465-7.185-9.94 1.62 8.33 4.547 16.024 14.154 22.555 6.538 4.607 16.54 8.716 29.165 13.135-7.252 7.953-16.482 13.853-26.703 17.044-4.79-4.744-9.213-9.615-12.784-14.403a91.37 91.37 0 0 1-1.084-1.486z" fill="#ffeefa"/>
        <path d="M31.988 169.676c.998-4.708 3.828-8.725 7.963-11.862-1.911-6.675-1.752-12.968.923-17.95 7.057-13.143 28.924-12.174 48.84 2.164 12.281 8.842 20.944 20.701 24.134 31.577 2.567 4.613 3.56 9.501 2.551 14.262-.706 3.333-2.334 6.317-4.688 8.89-5.841 11.055-20.79 21.026-38.819 24.691-23.986 4.877-44.336-3.252-45.452-18.158-.463-6.18 2.46-12.552 7.743-18.245-3.046-4.933-4.284-10.225-3.195-15.37z" fill="#ffe6f9"/>
        <path d="M258.458 221.352c-.998 4.708-3.828 8.724-7.963 11.861 1.911 6.675 1.752 12.969-.923 17.95-7.057 13.143-28.924 12.175-48.84-2.164-12.281-8.841-20.944-20.7-24.134-31.577-2.567-4.613-3.56-9.5-2.551-14.262.706-3.332 2.334-6.316 4.688-8.89 5.841-11.055 20.79-21.025 38.819-24.69 23.985-4.878 44.336 3.252 45.452 18.157.463 6.18-2.46 12.552-7.743 18.245 3.046 4.933 4.284 10.226 3.195 15.37z" fill="#ffe6f9"/>
        <path d="M138.936 194.488c-3.639-2.185-7.207-4.433-10.427-7.433-5.623-5.25-10.053-13.303-10.995-28.848a91.713 91.713 0 0 1-.106-2.371c-.175-5.53.103-11.785.882-18.77a63.456 63.456 0 0 0-17.154 12.022c4.83 13.374 9.286 23.956 14.184 30.828 6.951 10.1 14.97 13.042 23.616 14.572z" fill="#fbc4e9"/>
        <path d="M140.049 199.308c-4.098 1.075-8.198 2.048-12.546 2.32-7.57.553-16.27-1.808-26.728-9.192a90.7 90.7 0 0 1-1.56-1.123c-5.025-3.7-10.153-8.304-15.158-13.305a65.21 65.21 0 0 0-2.417 16.05c13.332 6.926 23.45 10.805 31.62 12.11 11.865 1.98 19.587-1.736 26.789-6.86z" fill="#fbc4e9"/>
        <path d="M146.252 189.123c2.163-3.7 4.385-7.338 7.35-10.617 5.188-5.728 13.125-10.257 28.43-11.264a87.954 87.954 0 0 1 2.335-.115c5.442-.196 11.6.067 18.472.837a63.964 63.964 0 0 0-11.778-17.39c-13.18 4.95-23.612 9.51-30.39 14.51-9.964 7.094-12.884 15.25-14.419 24.04z" fill="#fbc4e9"/>
        <path d="M141.505 190.27c-1.044-4.162-1.99-8.324-2.244-12.74-.52-7.689 1.83-16.535 9.134-27.184a94.78 94.78 0 0 1 1.11-1.588c3.66-5.118 8.207-10.342 13.145-15.443a62.16 62.16 0 0 0-15.79-2.404c-6.86 13.567-10.71 23.857-12.02 32.164-1.99 12.06 1.646 19.893 6.665 27.195z" fill="#fbc4e9"/>
        <path d="M150.397 191.72c4.098-1.075 8.2-2.05 12.546-2.32 7.57-.554 16.27 1.807 26.728 9.192.516.363 1.036.737 1.559 1.122 5.026 3.7 10.154 8.304 15.16 13.306a65.215 65.215 0 0 0 2.416-16.05c-13.33-6.926-23.45-10.805-31.62-12.11-11.864-1.98-19.586 1.735-26.79 6.86z" fill="#fbc4e9"/>
        <path d="M144.194 201.904c-2.164 3.702-4.386 7.338-7.35 10.618-5.189 5.727-13.124 10.256-28.432 11.263-.76.048-1.537.087-2.332.115-5.444.196-11.6-.067-18.473-.836a63.963 63.963 0 0 0 11.778 17.39c13.18-4.95 23.61-9.51 30.389-14.51 9.965-7.095 12.886-15.25 14.42-24.04z" fill="#fbc4e9"/>
        <path d="M155.606 227.952c1.989-12.059-1.645-19.893-6.665-27.195 1.047 4.162 1.989 8.325 2.244 12.74.518 7.69-1.832 16.536-9.134 27.184a96.42 96.42 0 0 1-1.11 1.588c-3.656 5.118-8.207 10.343-13.145 15.443a62.166 62.166 0 0 0 15.79 2.405c6.859-13.567 10.71-23.858 12.02-32.165z" fill="#fbc4e9"/>
        <path d="M151.51 196.54c3.637 2.185 7.21 4.431 10.427 7.432 5.623 5.25 10.051 13.303 10.995 28.848.045.772.08 1.562.106 2.372.175 5.53-.103 11.785-.882 18.769a63.457 63.457 0 0 0 17.154-12.021c-4.83-13.375-9.283-23.957-14.184-30.83-6.95-10.099-14.968-13.041-23.616-14.57z" fill="#fbc4e9"/>
        <path d="M142.051 240.681c7.302-10.648 9.652-19.494 9.134-27.184-.255-4.415-1.197-8.578-2.244-12.74 5.02 7.302 8.654 15.136 6.665 27.195-1.31 8.307-5.161 18.598-12.02 32.165a62.813 62.813 0 0 0 15.748-1.654 63.334 63.334 0 0 0 12.822-4.502c.779-6.984 1.057-13.24.882-18.77a90.714 90.714 0 0 0-.106-2.37c-.944-15.546-5.372-23.598-10.995-28.849-3.217-3-6.79-5.247-10.427-7.433 8.648 1.53 16.666 4.472 23.616 14.572 4.901 6.872 9.354 17.454 14.184 30.829 8.077-7.934 13.99-17.93 17.08-28.92-5.006-5.002-10.134-9.606-15.16-13.306a91.884 91.884 0 0 0-1.559-1.122c-10.458-7.385-19.158-9.746-26.728-9.192-4.346.27-8.448 1.245-12.546 2.32 7.203-5.125 14.925-8.84 26.789-6.86 8.17 1.305 18.29 5.184 31.62 12.11a65.665 65.665 0 0 0-1.577-15.994 65.365 65.365 0 0 0-4.39-13.012c-6.872-.77-13.03-1.033-18.472-.837-.797.03-1.574.068-2.335.115-15.305 1.007-23.242 5.536-28.43 11.264-2.965 3.28-5.187 6.916-7.35 10.617 1.535-8.79 4.455-16.945 14.419-24.04 6.778-4.999 17.21-9.56 30.39-14.51-7.783-8.18-17.603-14.154-28.41-17.258-4.939 5.1-9.486 10.325-13.146 15.443a94.78 94.78 0 0 0-1.11 1.588c-7.304 10.65-9.653 19.495-9.134 27.184.253 4.416 1.2 8.578 2.244 12.74-5.019-7.302-8.655-15.136-6.665-27.195 1.31-8.307 5.16-18.597 12.02-32.164a62.807 62.807 0 0 0-15.748 1.654 63.336 63.336 0 0 0-12.822 4.502c-.779 6.984-1.057 13.24-.882 18.769.026.808.061 1.598.106 2.37.942 15.546 5.372 23.598 10.995 28.85 3.22 3 6.788 5.247 10.427 7.432-8.647-1.53-16.665-4.472-23.616-14.572-4.898-6.872-9.354-17.454-14.184-30.828-8.077 7.933-13.99 17.93-17.08 28.92 5.006 5.001 10.134 9.605 15.158 13.305a90.7 90.7 0 0 0 1.56 1.123c10.46 7.384 19.159 9.745 26.729 9.192 4.348-.272 8.448-1.245 12.546-2.32-7.202 5.124-14.924 8.84-26.79 6.86-8.17-1.305-18.287-5.184-31.62-12.11a65.655 65.655 0 0 0 1.578 15.994 65.365 65.365 0 0 0 4.39 13.012c6.872.769 13.03 1.032 18.473.836a85.744 85.744 0 0 0 2.332-.115c15.308-1.007 23.243-5.536 28.431-11.263 2.965-3.28 5.187-6.916 7.35-10.618-1.533 8.79-4.454 16.945-14.42 24.04-6.779 5-17.209 9.56-30.388 14.51 7.783 8.18 17.603 14.154 28.41 17.258 4.94-5.1 9.49-10.325 13.146-15.443.38-.532.75-1.062 1.11-1.588z" fill="#ffeefa"/>
        <linearGradient gradientTransform="rotate(-3.261 2152.587 937.896)" y2="102.999" x2="685.269" y1="102.999" x1="615.668" gradientUnits="userSpaceOnUse" id="6f2f0f0e-dc20-4f58-abf9-64ecbbbc7087">
            <stop offset=".212" stop-color="#7ab9dd"/>
            <stop offset=".684" stop-color="#578db2"/>
        </linearGradient>
        <path d="M592.283 205.8c.275-.452.496-.828.643-1.079-.618.48-1.578 1.218-2.772 2.092 0 0-5.282 3.869-12.438 7.972.304-.317.608-.636.91-.958 10.842-11.564 15.757-24.207 15.757-24.207.163-.438.293-.801.38-1.045a77.56 77.56 0 0 1-1.756 1.96s-4.462 4.817-10.146 9.127a66.39 66.39 0 0 1-4.6 3.156l.088-.25c2.986-2.957 5.793-6.375 8.378-10.227 5.776-8.611 8.18-18.216 8.18-18.216.078-.333.141-.61.183-.794-.207.337-.53.852-.933 1.462 0 0-2.376 3.588-5.454 6.752a36.62 36.62 0 0 1-3.081 2.784 31.002 31.002 0 0 0 1.969-3.105c2.748-3.952 5.196-8.802 7.286-14.48 1.447-3.932 2.47-8.073 3.182-11.708 1.242 3.027 2.808 6.372 4.684 9.48 4.884 8.096 10.297 13.856 15.934 17.027-2.781-1.051-5.003-2.149-6.52-3.047-3.83-2.266-7.097-5.12-7.097-5.12-.555-.485-1.006-.9-1.297-1.173.09.168.226.42.393.72 0 0 4.928 8.651 12.84 15.483a70.783 70.783 0 0 0 7.653 5.773c-6.613-2.7-12.174-6.174-12.174-6.174a80.397 80.397 0 0 1-2.226-1.443c.15.213.374.53.65.91 0 0 8.177 10.943 21.779 19.33.417.256.835.51 1.254.76-8.123-2.145-14.379-4.57-14.379-4.57a121.992 121.992 0 0 1-3.242-1.31c.21.204.525.51.913.876 0 0 8.944 8.159 24.641 15.281l-69.2 8.995c13.207-10.88 19.618-21.034 19.618-21.034z" fill="url(#6f2f0f0e-dc20-4f58-abf9-64ecbbbc7087)"/>
        <linearGradient gradientTransform="rotate(-3.261 2152.587 937.896)" y2="89.144" x2="669.085" y1="89.144" x1="600.882" gradientUnits="userSpaceOnUse" id="96b76c05-e5d5-4cee-8fd3-0d321dc1b29e">
            <stop offset=".243" stop-color="#7ab9dd"/>
            <stop offset=".282" stop-color="#78b6da"/>
            <stop offset=".751" stop-color="#578db2"/>
        </linearGradient>
        <path d="M576.898 192.46c.284-.43.512-.787.664-1.026-.62.448-1.582 1.134-2.778 1.947 0 0-5.291 3.595-12.422 7.366.308-.299.616-.599.921-.902 10.982-10.882 16.206-22.972 16.206-22.972.174-.418.314-.767.407-1a77.017 77.017 0 0 1-1.782 1.847s-4.521 4.535-10.219 8.545a65.517 65.517 0 0 1-4.6 2.925l.093-.24c3.017-2.775 5.875-6.003 8.529-9.657 5.932-8.167 8.6-17.388 8.6-17.388.09-.319.16-.585.207-.763-.214.32-.546.81-.96 1.388 0 0-2.442 3.404-5.556 6.379a35.887 35.887 0 0 1-3.104 2.607 30.212 30.212 0 0 0 2.028-2.948c2.818-3.745 5.372-8.367 7.604-13.8 1.545-3.762 2.682-7.738 3.5-11.233 1.113 2.961 2.531 6.238 4.26 9.296 4.504 7.962 9.602 13.68 15.004 16.902-2.682-1.094-4.817-2.216-6.27-3.126-3.667-2.297-6.764-5.147-6.764-5.147a51.399 51.399 0 0 1-1.23-1.169c.084.165.208.411.361.707 0 0 4.528 8.5 12.032 15.324a68.518 68.518 0 0 0 7.286 5.793c-6.372-2.794-11.69-6.305-11.69-6.305a78.153 78.153 0 0 1-2.128-1.456c.139.21.348.523.605.898 0 0 7.626 10.805 20.638 19.288.4.26.8.517 1.2.771-7.866-2.298-13.899-4.815-13.899-4.815-1.34-.56-2.425-1.04-3.125-1.357.198.204.496.509.864.873 0 0 8.468 8.135 23.57 15.454l-67.926 6.792c13.27-10.156 19.874-19.798 19.874-19.798z" fill="url(#96b76c05-e5d5-4cee-8fd3-0d321dc1b29e)"/>
        <linearGradient y2="89.939" x2="414.621" y1="623.459" x1="417.082" gradientUnits="userSpaceOnUse" id="9590c627-05ec-4865-aded-431f33ce48f8">
            <stop offset=".289" stop-color="#e6fdff"/>
            <stop offset=".722" stop-color="#e4fdff"/>
            <stop offset=".878" stop-color="#ddfdff"/>
            <stop offset=".986" stop-color="#d2feff"/>
        </linearGradient>
        <path d="M777.965 199.307a555.304 555.304 0 0 0-62.18-6.164c-41.222-1.757-82.645 1.069-123.23 8.51-56.437 10.347-111.416 30.82-168.804 35.574-32.05 2.656-64.193-.015-96.183-2.218-28.862-1.987-59.927-5.96-88.404.818-8.392 1.67-12.402 2.751-21.555 4.323-9.149 1.571-15.952 2.373-19.66 2.815-4.881.582-10.728 1.099-19.656 1.594-21.065 1.168-61.739 2.68-98.153 3.491-16.378.366-32.76.628-49.141.797-3.166.032-18.61-1.052-30.999-1.247v107.719h831.024V210.774c-16.393-6.722-35.94-8.788-53.06-11.467z" fill="url(#9590c627-05ec-4865-aded-431f33ce48f8)"/>
        <linearGradient y2="107.828" x2="866.531" y1="246.351" x1="727.148" gradientUnits="userSpaceOnUse" id="82d1d076-1136-46cf-8c29-31e4779842a1">
            <stop offset=".226" stop-color="#578db2"/>
            <stop offset=".634" stop-color="#7ab9dd"/>
        </linearGradient>
        <path d="M798.727 225.401a190.987 190.987 0 0 1-2.43-2.585c1.997.967 5.095 2.441 8.924 4.16 0 0 10.488 4.71 25.803 10.223v-5.324c-30.419-23.75-47.662-49.511-47.662-49.511a199.526 199.526 0 0 1-1.685-2.64 226.78 226.78 0 0 0 6.04 4.37s15.107 10.551 33.304 19.114c-7.019-5.096-13.91-10.86-20.626-17.289-21.188-20.28-33.666-45.168-33.666-45.168-.421-.863-.764-1.584-.991-2.066.777.804 1.98 2.032 3.465 3.47 0 0 8.742 8.468 19.167 15.385 4.13 2.74 10.213 6.146 17.88 9.512-15.37-9.721-29.687-26.623-42.133-49.952-4.78-8.96-8.647-18.527-11.653-27.159-2.602 10.019-6.16 21.404-10.879 32.134-6.818 15.503-14.508 28.638-22.898 39.224-1.967 3.057-3.988 5.842-6.057 8.347 3.743-2.679 6.812-5.171 9.137-7.28 9.194-8.338 16.475-17.967 16.475-17.967a145.46 145.46 0 0 0 2.869-3.93c-.148.51-.37 1.272-.648 2.186 0 0-8.34 26.396-26.026 49.494-7.913 10.334-16.383 19.423-25.282 27.195l-.288.685c5.394-2.962 9.915-5.707 13.48-8.078 16.723-11.124 30.085-23.85 30.085-23.85a221.34 221.34 0 0 0 5.27-5.19c-.284.665-.712 1.658-1.243 2.852 0 0-15.913 34.473-48.36 65.01-.902.849-1.81 1.69-2.72 2.528 20.839-10.318 36.358-20.274 36.358-20.274a338.183 338.183 0 0 0 8.153-5.399c-.454.678-1.14 1.69-1.988 2.907 0 0-19.726 27.302-58.727 55.56l161.849-11.73v-23.2c-21.026-14.368-32.296-25.764-32.297-25.764z" fill="url(#82d1d076-1136-46cf-8c29-31e4779842a1)"/>
        <linearGradient y2="186.781" x2="799.744" y1="144.941" x1="660.004" gradientUnits="userSpaceOnUse" id="16a82aff-a561-425c-af3e-09b393cf8372">
            <stop offset=".287" stop-color="#7ab9dd"/>
            <stop offset=".402" stop-color="#6facd0"/>
            <stop offset=".637" stop-color="#5e95ba"/>
            <stop offset=".787" stop-color="#578db2"/>
        </linearGradient>
        <path d="M704.269 189.632a153.956 153.956 0 0 0 1.457-2.395 245.006 245.006 0 0 1-6.019 4.422s-11.458 8.15-26.866 16.567c.67-.688 1.339-1.38 2.003-2.077 23.89-25.093 35.47-53.551 35.47-53.551.387-.985.697-1.806.903-2.355-.865.984-2.207 2.49-3.878 4.266 0 0-9.837 10.46-22.18 19.57-2.633 1.942-5.972 4.187-9.958 6.607l.209-.565c6.556-6.383 12.785-13.86 18.59-22.37 12.977-19.024 18.989-40.838 18.989-40.838.2-.756.36-1.385.466-1.806-.469.747-1.196 1.89-2.103 3.237 0 0-5.342 7.931-12.113 14.781-1.713 1.732-3.976 3.778-6.737 5.973 1.52-2.062 3.002-4.356 4.44-6.876 6.16-8.717 11.78-19.55 16.737-32.35 3.431-8.86 5.995-18.268 7.858-26.55 2.293 7.168 5.232 15.118 8.845 22.57 9.406 19.402 20.16 33.493 31.643 41.642-5.719-2.836-10.26-5.696-13.347-7.992-7.792-5.794-14.345-12.864-14.345-12.864a120.795 120.795 0 0 1-2.598-2.896c.173.401.432 1 .75 1.718 0 0 9.443 20.694 25.322 37.626 5.033 5.367 10.192 10.186 15.441 14.45-13.576-7.206-24.87-16.041-24.87-16.041a174.585 174.585 0 0 1-4.518-3.658c.292.513.73 1.28 1.27 2.198 0 0 16.013 26.457 43.651 47.816.848.655 1.698 1.3 2.55 1.942-16.797-6.147-29.654-12.666-29.654-12.666a250.624 250.624 0 0 1-6.658-3.502 153.14 153.14 0 0 0 1.824 2.157s17.903 20.148 50.059 38.898l-145.87 10.572c28.774-23.166 43.237-45.66 43.237-45.66z" fill="url(#16a82aff-a561-425c-af3e-09b393cf8372)"/>
        <linearGradient gradientTransform="rotate(7.604 1810.304 943.724)" y2="416.429" x2="212.517" y1="416.429" x1="118.018" gradientUnits="userSpaceOnUse" id="46bb56a3-95b7-4c08-b931-3753213fa0ff">
            <stop offset=".478" stop-color="#578db2"/>
            <stop offset=".88" stop-color="#70acd0"/>
        </linearGradient>
        <path d="M264.064 228.601a99.15 99.15 0 0 1-.818-1.606c.814.72 2.079 1.825 3.655 3.136 0 0 6.97 5.802 16.473 11.977a166.83 166.83 0 0 1-1.186-1.432c-14.127-17.277-20.155-36.075-20.155-36.075a98 98 0 0 1-.463-1.553c.507.674 1.296 1.706 2.283 2.928 0 0 5.81 7.195 13.304 13.656 1.598 1.378 3.636 2.985 6.082 4.737l-.106-.372c-3.902-4.42-7.538-9.521-10.85-15.264-7.402-12.835-10.177-27.097-10.177-27.097a92.092 92.092 0 0 1-.21-1.179c.264.502.676 1.27 1.192 2.178 0 0 3.042 5.348 7.06 10.077 1.015 1.196 2.37 2.62 4.039 4.166a45.29 45.29 0 0 1-2.515-4.626c-3.529-5.892-6.605-13.11-9.154-21.552-1.764-5.843-2.942-11.994-3.726-17.388-1.837 4.469-4.13 9.403-6.833 13.985-7.036 11.929-14.672 20.391-22.48 25.015 3.827-1.521 6.896-3.118 9-4.428 5.312-3.307 9.888-7.493 9.888-7.493.778-.71 1.41-1.32 1.82-1.72-.131.248-.329.618-.57 1.061 0 0-7.124 12.753-18.205 22.77-3.512 3.175-7.078 5.993-10.674 8.452 9.108-3.913 16.829-8.986 16.829-8.986 1.323-.87 2.399-1.617 3.093-2.108-.213.313-.534.78-.928 1.34 0 0-11.647 16.104-30.526 28.35-.579.375-1.159.744-1.74 1.11 11.13-3.07 19.74-6.58 19.74-6.58a158.67 158.67 0 0 0 4.466-1.9c-.295.302-.739.75-1.284 1.287 0 0-12.547 11.97-34.205 22.315l93.436 14.245c-17.37-16.295-25.555-31.426-25.555-31.426z" fill="url(#46bb56a3-95b7-4c08-b931-3753213fa0ff)"/>
        <linearGradient gradientTransform="rotate(-.644 1628.973 918.28)" y2="122.968" x2="176.056" y1="122.968" x1="33.252" gradientUnits="userSpaceOnUse" id="1cfd39fc-ee84-4573-a6e7-8390e4034807">
            <stop offset=".204" stop-color="#7ab9dd"/>
            <stop offset=".751" stop-color="#578db2"/>
        </linearGradient>
        <path d="M125.27 174.412a175.664 175.664 0 0 1-1.453-2.329c1.327.983 3.385 2.487 5.94 4.262 0 0 11.307 7.853 26.483 15.923a246.7 246.7 0 0 1-1.984-2.012c-23.662-24.301-35.312-52.032-35.312-52.032-.389-.96-.702-1.76-.91-2.295.858.954 2.189 2.413 3.843 4.133 0 0 9.745 10.13 21.93 18.913 2.598 1.873 5.891 4.034 9.82 6.359 0 0-12.879-13.977-18.656-22.245-12.913-18.48-19.038-39.768-19.038-39.768-.204-.738-.367-1.352-.476-1.763a115.56 115.56 0 0 0 2.095 3.146s5.316 7.705 12.02 14.336c1.695 1.677 3.933 3.654 6.66 5.773a115.884 115.884 0 0 1-4.925-6.403c-8.568-11.98-12.749-22.668-16.237-31.763a202.878 202.878 0 0 1-7.985-25.905c-2.165 7.043-4.955 14.858-8.41 22.192-8.994 19.097-19.366 33.01-30.517 41.113 5.566-2.84 9.98-5.69 12.977-7.97 7.564-5.758 13.9-12.75 13.9-12.75a113.43 113.43 0 0 0 2.512-2.865c-.164.395-.411.984-.716 1.69 0 0-9.015 20.362-24.373 37.112-4.867 5.31-9.865 10.083-14.956 14.316 13.21-7.204 24.17-15.977 24.17-15.977 1.878-1.504 3.4-2.79 4.381-3.63-.28.505-.7 1.26-1.219 2.165 0 0-15.384 26.076-42.205 47.289-.822.65-1.647 1.291-2.474 1.929 16.375-6.202 28.89-12.725 28.89-12.726a246.188 246.188 0 0 0 6.479-3.501c-.404.498-1.012 1.24-1.762 2.132 0 0-17.304 19.92-48.576 38.629l142.911 8.743c-14.647-11.92-25.037-22.173-30.178-27.88-6.687-7.424-12.366-15.896-12.65-16.341z" fill="url(#1cfd39fc-ee84-4573-a6e7-8390e4034807)"/>
        <linearGradient gradientTransform="rotate(-.644 1628.973 918.28)" y2="153.012" x2="12.818" y1="153.012" x1="189.407" gradientUnits="userSpaceOnUse" id="640e2cd5-5481-46a4-9e98-7fc2bc25f479">
            <stop offset=".316" stop-color="#66a0c4"/>
            <stop offset=".707" stop-color="#7ab9dd"/>
        </linearGradient>
        <path d="M105.164 208.306c-.775-1.085-1.4-1.988-1.816-2.592a305.019 305.019 0 0 0 7.381 4.769s14.045 8.79 32.876 17.85a260.41 260.41 0 0 1-2.47-2.245c-29.465-27.11-44.113-57.926-44.113-57.926a177.046 177.046 0 0 1-1.144-2.55 199.54 199.54 0 0 0 4.787 4.61s12.136 11.3 27.274 21.126c3.228 2.096 7.318 4.516 12.195 7.123 0 0-16.043-15.588-23.258-24.794-16.126-20.576-23.886-44.21-23.886-44.21-.259-.82-.467-1.5-.604-1.957.583.808 1.489 2.045 2.616 3.501 0 0 6.64 8.58 14.986 15.98 2.11 1.87 4.894 4.078 8.284 6.447a127.739 127.739 0 0 1-4.964-5.662c-11.446-13.86-17.185-26.794-21.535-36.79a211.018 211.018 0 0 1-10.1-28.765c-2.614 7.787-5.993 16.423-10.197 24.522-10.947 21.088-23.642 36.42-37.354 45.31 6.855-3.1 12.286-6.224 15.97-8.727 9.298-6.32 17.067-14.018 17.067-14.018a133.807 133.807 0 0 0 3.08-3.153c-.2.436-.5 1.086-.87 1.866 0 0-10.962 22.49-29.795 40.927-5.97 5.844-12.104 11.094-18.36 15.744 16.265-7.878 29.733-17.512 29.733-17.512a203.71 203.71 0 0 0 5.383-3.988c-.341.558-.854 1.39-1.487 2.39 0 0-18.783 28.77-51.745 52.061a308.59 308.59 0 0 1-3.04 2.118c20.184-6.743 35.594-13.872 35.594-13.872a310.537 310.537 0 0 0 7.977-3.828 172.63 172.63 0 0 1-2.158 2.348S26.891 219.473 0 236.29v11.651l158.496 9.697c-35.33-24.999-53.332-49.332-53.332-49.332z" fill="url(#640e2cd5-5481-46a4-9e98-7fc2bc25f479)"/>
        <path d="M161.468 132.925c.064-.945-.729-1.52-1.572-1.627-.846-.075-1.743.316-1.882 1.254-.164.828.691 1.34 1.592 1.436.9.099 1.845-.22 1.862-1.063z" fill="#ababab"/>
        <path d="M176.861 139.714c.541-.775.16-1.683-.502-2.219-.683-.51-1.65-.647-2.25.082-.566.621-.1 1.51.618 2.066.716.558 1.686.784 2.134.071z" fill="#ababab"/>
        <path d="M666.813 125.167c-.56-.784-1.552-.714-2.284-.244-.714.498-1.167 1.395-.672 2.223.404.757 1.407.596 2.177.08.771-.515 1.31-1.386.78-2.059z" fill="#ababab"/>
        <path d="M683.291 120.372c-.074-.964-.958-1.426-1.825-1.41-.865.048-1.714.576-1.717 1.543-.044.86.895 1.251 1.818 1.215.923-.033 1.83-.493 1.724-1.348z" fill="#ababab"/>
        <linearGradient y2="415.296" x2="639.256" y1="151.553" x1="-56.068" gradientUnits="userSpaceOnUse" id="f7cf998e-27be-45d4-8f2e-0cd03b7ba896">
            <stop offset=".194" stop-color="#b3efff"/>
            <stop offset=".654" stop-color="#c7eeff"/>
        </linearGradient>
        <path d="M713.389 261.443c-2.709-2.41-8.036-2.732-11.4-3.309-7.81-1.338-15.727-2.1-23.613-2.818-64.213-5.835-128.576-5.501-192.98-5.332-47.18.124-94.038-.479-140.798-7.618a671.693 671.693 0 0 1-26.015-4.473c-32.535-6.284-64.786-13.917-97.213-20.716-16.163-3.389-32.505-5.824-48.89-7.854-42.301-5.24-74.531-6.529-108.258-4.33A508.57 508.57 0 0 0 0 213.316V355.32h718.42c8.578-29.378 17.065-74.203-5.031-93.876z" fill="url(#f7cf998e-27be-45d4-8f2e-0cd03b7ba896)"/>
        <linearGradient y2="171.908" x2="415.702" y1="484.778" x1="415.282" gradientUnits="userSpaceOnUse" id="c5223812-a757-405d-b269-27fd20a57dd6">
            <stop offset=".289" stop-color="#e6fdff"/>
            <stop offset=".722" stop-color="#e4fdff"/>
            <stop offset=".878" stop-color="#ddfdff"/>
            <stop offset=".986" stop-color="#d2feff"/>
        </linearGradient>
        <path d="M796.665 215.708c-69.318-4.192-139.693 8.922-207.11 22.913-43.346 8.996-86.904 17.8-130.975 22.633-59.322 6.548-117.715 1.992-176.98-2.272-41.017-2.952-81.808-8.571-122.886-10.779-41.207-2.214-83.228-1.175-123.153 10.244A258.334 258.334 0 0 0 0 271.524v83.795h831.024V219.296c-11.412-1.72-22.87-2.893-34.359-3.588z" fill="url(#c5223812-a757-405d-b269-27fd20a57dd6)"/>
    </g>
</svg>
