<?xml version="1.0" encoding="UTF-8"?>
<svg data-bbox="0 0 1407.671 1353.457" viewBox="0 0 1407.671 1353.457" xmlns="http://www.w3.org/2000/svg" data-type="ugc">
    <g>
        <g>
            <path d="M259.57 639.185c-32.148 0-57.782 30.142-56.14 66.098l.032.701c1.798 39.123 3.321 42.87 6.76 93.015 4.92 71.735 3.95 89.225 8.964 144.103 2.473 27.069 5.067 48.623 6.81 62.188 1.616 11.261 5.943 42.314 7.818 68.816.457 6.461.798 11.124.865 17.721.183 18.112-2.017 27.707.277 52.182 1.956 20.88 4.19 20.644 6.916 49.628.914 9.696 1.544 19.87 2.804 40.213 1.078 17.4 1.683 27.182 1.993 35.596.044 1.188.082 2.355.114 3.514.106 3.743.02 2.93.177 17.303.204 18.683.31 28.11.55 31.86 1.1 17.296 4.626 32.57 5.92 31.255 1.343-1.357-1.176-19.12 1.71-40.235 1.198-8.777 2.15-9.493 3.27-20.116.982-9.305 1.238-18.115 1.45-25.36.241-8.264.268-14.727.222-17.48-.224-12.82-1.328-20.866-1.527-42.372-.003-.303-.01-.554-.012-.865-.154-19.627.711-29.995 1.693-40.5.53-5.666 1.093-11.372 1.547-18.596.689-10.914.79-19.492.871-24.739.112-7.249.177-19.64-.416-34.62a546.156 546.156 0 0 0-.267-5.85c-1.063-20.907-2.613-23.28-3.188-42.204-.579-19.109.477-34.036 1.015-41.362 1.126-15.32 2.43-33.063 6.913-46.974 3.076-9.537 4.314-6.677 7.625-17.923 4.234-14.383 4.357-25.76 6.599-26.963 3.069-1.65 6.767 17.809 9.138 33.68 5.072 33.953 4.448 84.53 7.067 99.409.028.154.05.365.078.513.536 2.828 1.046 4.769 1.173 5.19.911 3.02.784 7.669 2.233 15.347.623 3.303.666 2.542 1.961 8.761.715 3.444.935 5.275 1.239 5.15.963-.399.845-13.14.953-15.306.325-6.47.943-12.802 1.838-18.746.722-4.792.694-10.107.816-15.256.132-5.54.81-9.32 1.548-14.274.682-4.58.733-10.028.67-14.984-.01-.79-.043-2.702-.058-5.507-.009-1.657-.004-2.92-.008-4.654-.002-1.54.016-3.359.076-5.754.112-4.427.192-4.81.343-10.472.21-7.936.15-10.113.619-17.066 1.25-18.547 2.822-19.906 4.4-38.58 1.619-19.155.157-20.015 1.8-36.052 1.591-15.545 2.877-13.9 5.708-34.385 2.955-21.39 2.586-23.788 4.921-32.731 2.132-8.161 5.676-18.96 9.238-18.082 3.305.827 6.191 6.932 9.101 11.456 2.795 4.352 5.247 7.017 7.763 13.362 2.48 6.263 5.412 10.138 8.49 12.073 2.5 1.561 4.217 4.045 5.558 11.467 2.327 12.874 1.951 28.915 3.806 42.391 2.336 16.979 3.56 14.705 7.574 40.187 2.35 14.912 3.524 22.368 4.186 32.665.424 6.581.505 13.151.483 19.836-.013 4.373.036 8.746.131 13.109.05 2.237.112 4.467.185 6.692.08 2.46.148 3.939.351 5.752.16 1.423.26 1.778.437 3.088.168 1.233.303 2.583.514 6.792.269 5.329.244 6.983.545 12.605 0 0 .062 1.288.132 2.34.577 8.547 2.087 11.147 3.4 19.686.305-7.123.706-12.82 1.025-16.804.396-4.923.739-8.102 1.03-13.911.108-2.153.29-5.791.321-9.99.07-9.61-.727-11.839-.9-20.38-.13-6.34.303-5.51.643-18.218.223-8.345.206-15.027.193-20.182-.023-9.054-.188-15.783.34-23.995.193-2.998.424-5.548.424-5.548.4-3.893.874-5.982 1.386-12.058.362-4.304.509-7.847.544-10.915.172-14.976-.276-17.328.171-24.016.7-10.472 4.049-21.001 7.448-22.393 1.478-.61 3.58-1.103 5.614.462 1.443 1.107 2.392 2.708 4.225 2.874 1.25.115 1.636-.552 2.985-1.032 1.654-.592 4.662-1.658 6.915 2.335 1.947 3.448 1.1 6.725 3.5 12.804 1.92 4.861 2.779 3.562 5.206 9.4 1.458 3.507 2.378 6.933 2.915 8.959 1.488 5.606 2.22 10.826 3.053 15.657 2.33 13.523 3.937 27.786 5.16 42.694.388 4.739.78 10.648 1.156 19.04 1.09 24.402.022 24.711 1.07 47.773.756 16.58 1.376 17.931 4.463 56.126 2.331 28.848 3.496 43.272 3.94 56.135.454 13.132.213 16.712.156 29.265-.076 16.731-.396 20.153.14 26.051.38 4.171.907 7.363 1.267 9.309.982-3.137 2.44-8.29 3.777-15.484 1.118-6.009 1.225-8.445 2.56-17.04 1.73-11.13 2.36-12.248 3.561-20.013 1.297-8.401 1.77-14.93 2.499-24.977.912-12.574 1.882-31.864 2.197-47.23.064-3.122.129-6.315.564-10.504.562-5.422 1.7-10.128 2.477-15.266 1.2-7.947 2.127-15.993 2.842-24.379 1.335-15.66.71-30.9.477-46.749a3920.84 3920.84 0 0 1-.338-34.209c-.11-17.694-.111-29.623.753-45.265.536-9.714 1.196-17.075 2.491-30.067 4.078-40.88 6-61.443 7.863-67.07 5.293-15.998 13.867-19.844 20.075-13.676 3.897 3.875 3.44 8.692 7.609 12.555 7.455 6.911 10.45-6.624 16.48.717 4.484 5.459 7.02 18.044 8.607 25.933 2.087 10.364 3.09 20.65 3.853 33.278 2.077 34.325-.102 40.825.773 76.494.512 20.869 1.894 36.703 4.468 66.187 3.569 40.896 4.877 38.37 4.719 52.781-.118 10.726.402 59.416.563 59.638 1.615 2.181 8.28-29.775 11.672-60.547.96-8.718 1.417-15.147 1.644-20.628.494-11.988.464-20.588.449-25.114-.04-11.574.668-16.587 5.041-61.025 2.554-25.944 3.83-38.918 3.965-41.934 1.35-30.11-1.583-38.508 1.049-55.415 2.205-14.17 4.602-10.447 9.136-29.573 4.274-18.041 3.329-6.23 6.862-20.386 1.352-5.415 6.644 1.111 13.311 1.037 8.142-.092 8.688 30.766 20.074 38.95 5.306 3.822 9.338.1 11.85 10.402 1.511 6.194 1.465 13.318 4.31 22.194 1.58 4.927 2.225 4.707 3.26 9.205 1.454 6.317 1.18 11.107 1.837 22.619 1.055 18.473 2.457 18.314 2.772 32.623.208 9.354-.37 10.368-.135 20.161l.968 38.907 4.24-36.836c.216-1.887.907-8.05 1.545-16.595 1.318-17.706.421-19.1 1.55-27.852 1.494-11.575 4.424-19.688 5.193-21.816 1.857-5.142 2.925-6.18 4.028-11.76 1.237-6.26 1.086-10.991 1.506-16.314 1.286-16.278 7.36-31.086 10.546-27.591 2.59 2.835 1.237 15.54 5.447 31.555 2.551 9.707 3.722 7.6 5.867 17.484 1.603 7.39 2.307 16.233 3.005 24.683.55 6.667 1.309 13.137 1.937 19.735.759 7.965 1.138 16.106 1.261 24.374.146 9.766-.048 16.882.894 28.506.708 8.731 2.123 33.256 2.69 40.282.937 11.63 3.455 22.914 3.458 22.828.002.086 2.52-11.198 3.457-22.828.567-7.026 1.982-31.55 2.69-40.282.942-11.624.748-18.74.894-28.506.123-8.268.502-16.41 1.26-24.374.63-6.598 1.389-13.068 1.939-19.735.697-8.45 1.402-17.293 3.005-24.683 2.144-9.885 3.315-7.777 5.866-17.484 4.21-16.015 2.857-28.72 5.447-31.555 3.186-3.495 9.26 11.313 10.546 27.59.42 5.324.269 10.055 1.507 16.315 1.102 5.58 2.17 6.618 4.027 11.76.77 2.128 3.7 10.24 5.193 21.816 1.13 8.751.232 10.146 1.55 27.852.638 8.545 1.329 14.708 1.545 16.595l4.24 36.836.968-38.907c.235-9.793-.343-10.807-.135-20.16.315-14.31 1.717-14.151 2.772-32.624.657-11.513.383-16.302 1.838-22.619 1.034-4.498 1.679-4.278 3.258-9.205 2.846-8.876 2.8-16 4.31-22.194 2.513-10.302 6.545-6.58 11.852-10.401 11.385-8.185 11.931-39.043 20.073-38.95 6.667.073 11.959-6.453 13.312-1.038 3.532 14.156 2.587 2.345 6.861 20.386 4.534 19.126 6.931 15.402 9.136 29.573 2.632 16.907-.301 25.305 1.05 55.415.134 3.016 1.41 15.99 3.964 41.934 4.373 44.438 5.081 49.451 5.041 61.025-.015 4.526-.045 13.126.45 25.114.226 5.481.683 11.91 1.644 20.628 3.391 30.772 10.056 62.728 11.67 60.547.162-.222.682-48.912.564-59.638-.157-14.41 1.15-11.885 4.72-52.781 2.574-29.484 3.955-45.318 4.467-66.187.875-35.669-1.303-42.169.773-76.494.763-12.628 1.766-22.914 3.853-33.278 1.588-7.889 4.123-20.474 8.608-25.933 6.03-7.341 9.024 6.194 16.48-.717 4.168-3.863 3.711-8.68 7.608-12.555 6.208-6.168 14.782-2.322 20.075 13.675 1.864 5.628 3.785 26.19 7.863 67.071 1.295 12.992 1.955 20.353 2.491 30.067.864 15.642.864 27.571.753 45.265a3920.45 3920.45 0 0 1-.338 34.209c-.233 15.85-.858 31.089.477 46.75.715 8.385 1.643 16.431 2.842 24.378.777 5.138 1.915 9.844 2.477 15.266.435 4.19.5 7.382.564 10.504.316 15.366 1.286 34.656 2.197 47.23.728 10.047 1.202 16.576 2.5 24.977 1.2 7.765 1.83 8.884 3.56 20.012 1.335 8.596 1.442 11.032 2.56 17.04 1.338 7.195 2.795 12.348 3.777 15.485.36-1.946.888-5.138 1.267-9.309.536-5.898.216-9.32.14-26.05-.057-12.554-.298-16.134.156-29.266.444-12.863 1.609-27.287 3.94-56.135 3.087-38.195 3.707-39.546 4.462-56.126 1.049-23.062-.018-23.371 1.07-47.772.377-8.393.769-14.302 1.158-19.04 1.222-14.91 2.829-29.172 5.16-42.695.833-4.83 1.564-10.05 3.052-15.657.538-2.026 1.457-5.452 2.915-8.958 2.427-5.84 3.285-4.54 5.206-9.4 2.4-6.08 1.553-9.357 3.5-12.805 2.253-3.993 5.261-2.927 6.915-2.335 1.35.48 1.736 1.147 2.985 1.032 1.833-.166 2.783-1.767 4.225-2.874 2.035-1.565 4.136-1.072 5.614-.462 3.4 1.392 6.748 11.921 7.448 22.393.447 6.688-.001 9.04.171 24.016.035 3.068.182 6.611.544 10.915.512 6.076.987 8.165 1.387 12.058 0 0 .23 2.55.423 5.548.528 8.212.363 14.94.34 23.995-.013 5.155-.03 11.837.193 20.182.34 12.708.772 11.877.643 18.218-.173 8.541-.97 10.77-.9 20.38.031 4.199.213 7.837.321 9.99.292 5.809.634 8.988 1.03 13.91.32 3.984.72 9.682 1.026 16.805 1.312-8.54 2.822-11.139 3.399-19.686.07-1.052.132-2.34.132-2.34.3-5.622.276-7.276.545-12.605.211-4.209.347-5.559.514-6.792.177-1.31.278-1.665.437-3.088.203-1.813.272-3.293.351-5.752.073-2.225.135-4.455.185-6.692.095-4.363.144-8.736.13-13.11-.02-6.684.06-13.254.484-19.835.662-10.297 1.837-17.753 4.186-32.665 4.014-25.482 5.238-23.208 7.575-40.187 1.854-13.476 1.478-29.517 3.805-42.39 1.341-7.423 3.057-9.907 5.558-11.468 3.078-1.935 6.01-5.81 8.49-12.073 2.516-6.345 4.968-9.01 7.763-13.362 2.91-4.524 5.796-10.629 9.101-11.456 3.563-.879 7.106 9.921 9.238 18.082 2.335 8.943 1.966 11.341 4.92 32.73 2.832 20.486 4.118 18.84 5.71 34.386 1.642 16.037.18 16.897 1.8 36.052 1.578 18.674 3.15 20.033 4.4 38.58.468 6.953.407 9.13.618 17.066.15 5.662.231 6.045.343 10.472.06 2.395.078 4.214.076 5.754-.003 1.735 0 2.997-.008 4.654-.015 2.805-.048 4.718-.058 5.507-.063 4.956-.012 10.404.67 14.984.738 4.953 1.416 8.733 1.548 14.274.123 5.149.095 10.464.816 15.256.895 5.944 1.514 12.276 1.838 18.746.108 2.166-.01 14.907.954 15.306.303.125.523-1.706 1.238-5.15 1.295-6.22 1.338-5.458 1.961-8.761 1.45-7.678 1.322-12.328 2.233-15.347.127-.421.638-2.362 1.173-5.19.028-.148.05-.36.078-.513 2.62-14.879 1.996-65.456 7.067-99.408 2.371-15.872 6.07-35.33 9.138-33.68 2.242 1.202 2.365 12.579 6.6 26.962 3.31 11.246 4.549 8.386 7.624 17.923 4.483 13.911 5.787 31.654 6.913 46.974.538 7.326 1.594 22.253 1.015 41.362-.575 18.924-2.125 21.297-3.188 42.205a538.023 538.023 0 0 0-.266 5.848 634.732 634.732 0 0 0-.417 34.621c.08 5.247.182 13.825.87 24.74.456 7.223 1.018 12.929 1.548 18.594.982 10.506 1.847 20.874 1.693 40.501-.002.311-.009.562-.012.865-.198 21.506-1.303 29.552-1.527 42.372-.046 2.753-.019 9.216.222 17.48.212 7.245.468 16.055 1.45 25.36 1.12 10.623 2.072 11.339 3.27 20.116 2.886 21.116.367 38.878 1.71 40.235 1.295 1.315 4.82-13.96 5.921-31.255.238-3.75.345-13.177.55-31.86.156-14.373.07-13.56.176-17.303.033-1.159.07-2.326.114-3.514.31-8.414.915-18.197 1.993-35.596 1.26-20.343 1.89-30.517 2.804-40.213 2.726-28.984 4.96-28.748 6.916-49.628 2.294-24.475.094-34.07.277-52.182.067-6.597.408-11.26.865-17.72 1.875-26.503 6.203-57.556 7.819-68.817 1.742-13.565 4.336-35.12 6.81-62.188 5.014-54.878 4.043-72.368 8.963-144.103 3.439-50.145 4.963-53.892 6.76-93.015l.032-.7c1.642-35.957-23.992-66.1-56.14-66.1H259.57Z" fill="#22d5ff"/>
            <g>
                <g>
                    <path d="M1407.127 357.848c-3.186-42.861-18.747-90.855-50.516-121.088-1.986-1.89-8.282-7.443-11.017-7.39 3.802-.072 8.795.31 14.294 2.103 14.067 4.586 21.688 15.217 24.308 19.3 6.137-77.561-43.45-135.796-106.355-173.38a289.777 289.777 0 0 0-24.947-13.31c-12.33-5.817-25.053-10.513-37.767-15.341.145-.031.29-.063.435-.092.325 0 .706-.146 1.026-.21 2.153 0 4.556-.82 6.71-1.093 2.135.001 4.242-.484 6.37-.608 7.484-.435 15.086-.031 22.497 1.08 3.213.47 6.388 1.1 9.557 1.805 2.717.604 5.487 1.159 7.946 2.525-7.21-6.755-15.114-12.79-23.355-18.228-62.347-41.133-133.73-33.764-161.237-30.787-18.807 2.035-37.48 6.216-55.503 11.866-42.952 13.455-81.737 41.874-105.388 80.403-9.972 16.242-17.261 34.114-21.604 52.669-2.91 12.433-4.81 24.522-4.55 36.486-59.556-31.573-126.948-49.657-195.47-49.958-67.833-.298-133.962 16.861-192.6 47.127-.022-11.137-1.837-22.401-4.525-33.963-4.314-18.56-11.575-36.444-21.522-52.702-23.592-38.565-62.333-67.044-105.264-80.567-18.015-5.675-36.68-9.884-55.484-11.95-27.503-3.02-98.875-10.5-161.284 30.538-8.25 5.425-16.164 11.447-23.384 18.192 2.713-2.535 6.838-2.798 10.337-3.387 2.344-.395 4.683-.828 7.048-1.075 7.194-.75 14.456-1.087 21.69-.709 5.083.266 10.125.357 15.016 1.94-1.584.75-3.186 1.578-4.965 1.657-8.454.38-16.835 2.02-23.697 6.971-10.749 7.755-22.48 13.19-33.64 19.835-62.965 37.485-112.64 95.644-106.624 173.214 2.626-4.078 10.263-14.697 24.339-19.263 5.501-1.783 10.494-2.159 14.297-2.082-2.736-.056-9.04 5.487-11.028 7.375C19.455 265.935 3.818 313.905.566 356.761c-.982 12.941-.743 25.935 1.164 38.787.7 4.717 1.584 9.408 2.639 14.06.78 3.44 3.297 8.504 3.114 11.968 0 0 2.147-40.486 27.312-71.457-4.117 5.067-4.768 19.007-5.942 25.401-1.608 8.766-2.753 17.626-3.225 26.527-.912 17.251.705 34.757 6.316 51.167 21.896 64.03 97.629 93.068 160.249 92.035 35.418-.588 70.177-10.83 101.022-28.044-.846 35.98 2.728 78.912 17.054 121.639h776.858c14.733-40.704 21.153-83.664 21.023-124.534 32.291 19.386 69.291 31.045 107.06 31.729 62.618 1.13 138.396-27.79 160.39-91.786 5.637-16.402 7.28-33.904 6.395-51.157-.458-8.903-1.59-17.764-3.184-26.532-1.162-6.396-1.793-20.338-5.902-25.41 25.117 31.01 27.202 71.497 27.202 71.497-.178-3.462 2.346-8.522 3.132-11.962a188.988 188.988 0 0 0 2.661-14.055c1.927-12.85 2.185-25.843 1.223-38.786Z" fill="#b7b7b7"/>
                    <g>
                        <path d="M324.331 358.661c13.431-46.693 46.468-93.679 88.343-119.478 1.219-.751 1.962-2.083 1.908-3.514-.766-20.382-5.844-40.524-16.158-58.169-18.138-31.03-53.177-48.53-88.047-52.359-15.328-1.683-55.105-5.852-89.887 17.02-4.598 3.022-9.008 6.38-13.032 10.138 1.372-.76 2.916-1.067 4.43-1.4a72.673 72.673 0 0 1 5.328-.998c4.132-.613 8.369-.832 12.54-.584 1.185.072 2.359.344 3.549.345 1.2.155 2.54.613 3.739.614.178.037.39.118.571.118l.242.053c-7.09 2.679-14.184 5.285-21.061 8.517a161.07 161.07 0 0 0-13.915 7.397c-32.286 19.223-58.304 48.196-59.645 86.379-.119 3.4 3.737 5.432 6.424 3.344a24.087 24.087 0 0 1 7.362-3.923 24.253 24.253 0 0 1 7.968-1.16c-1.524-.031-5.038 3.06-6.146 4.11-17.731 16.823-26.446 43.557-28.258 67.44-.548 7.213-.415 14.456.648 21.62.39 2.628.883 5.242 1.471 7.835.435 1.916 1.837 4.739 1.735 6.668 0 0 1.197-22.564 15.222-39.822-2.294 2.823-2.658 10.591-3.311 14.154-.897 4.887-1.535 9.824-1.798 14.785-.508 9.615.393 19.371 3.52 28.517 12.203 35.685 54.41 51.868 89.31 51.292 27.818-.46 53.977-8.186 77.238-21.181l1.859-1.039a3.645 3.645 0 0 0 1.86-3.226c-.117-14.737 1.97-29.515 5.991-43.493Z" fill="#2d2722"/>
                        <path d="M1073.89 359.24c-13.359-46.714-46.322-93.75-88.157-119.614-1.218-.753-1.96-2.086-1.903-3.517.797-20.38 5.907-40.515 16.248-58.143 18.186-31.004 53.252-48.45 88.127-52.223 15.331-1.66 55.114-5.768 89.861 17.158 4.593 3.03 8.999 6.394 13.017 10.158-1.37-.762-2.915-1.071-4.43-1.406a72.674 72.674 0 0 0-5.325-1.006c-4.13-.62-8.367-.845-12.538-.604-1.186.07-2.36.34-3.55.34-1.2.152-2.54.61-3.74.608-.179.036-.39.117-.572.117l-.242.053c7.085 2.69 14.176 5.306 21.048 8.55a161.07 161.07 0 0 1 13.903 7.418c32.257 19.272 58.23 48.286 59.512 86.47.114 3.401-3.746 5.427-6.429 3.335a24.087 24.087 0 0 0-7.356-3.935 24.253 24.253 0 0 0-7.966-1.173c1.524-.028 5.033 3.068 6.139 4.12 17.706 16.85 26.379 43.598 28.154 67.485.537 7.213.392 14.455-.681 21.618a105.312 105.312 0 0 1-1.484 7.833c-.438 1.915-1.844 4.736-1.745 6.666 0 0-1.162-22.566-15.16-39.847 2.29 2.827 2.641 10.596 3.29 14.16.888 4.888 1.519 9.826 1.774 14.787.493 9.617-.422 19.371-3.564 28.512-12.258 35.666-54.49 51.784-89.39 51.154-27.817-.503-53.963-8.27-77.204-21.3l-1.857-1.042a3.645 3.645 0 0 1-1.855-3.229c.14-14.737-1.926-29.519-5.925-43.502Z" fill="#2d2722"/>
                    </g>
                    <path d="M603.458 496.94c0-31.69-26.673-57.15-58.794-55.153-28.142 1.749-50.776 25.11-51.702 53.292-.243 7.391.967 14.47 3.365 20.972 2.726 7.388 13.509 5.34 13.448-2.534l-.001-.391c0-24.325 17.202-44.046 38.42-44.046s38.421 19.721 38.421 44.046l-.001.392c-.06 7.854 10.712 9.934 13.435 2.567a55.104 55.104 0 0 0 3.409-19.144Z" fill="#2d2722"/>
                    <path d="M898.382 496.94c0-31.69-26.674-57.15-58.794-55.153-28.143 1.749-50.776 25.11-51.703 53.292-.243 7.391.967 14.47 3.366 20.972 2.725 7.388 13.508 5.34 13.448-2.534l-.001-.391c0-24.325 17.201-44.046 38.42-44.046s38.42 19.721 38.42 44.046v.392c-.06 7.854 10.712 9.934 13.435 2.567a55.104 55.104 0 0 0 3.409-19.144Z" fill="#2d2722"/>
                    <path d="M754.235 598.903c.045-59.12-26.144-107.066-58.496-107.09-32.352-.025-58.615 47.88-58.661 107-.01 14.157 1.496 27.66 4.219 40.031h108.675c2.73-12.345 4.252-25.815 4.263-39.941Z" fill="#2d2722"/>
                    <path fill="#49423d" d="M686.419 517.087c6.444 2.473 6.258 18.58-.417 35.98-6.675 17.398-17.31 29.497-23.755 27.025-6.444-2.472-6.258-18.58.417-35.979s17.31-29.498 23.755-27.026z"/>
                    <path d="M477.627 642.082c-1.227-28.491-28.575-43.101-55.916-43.595-27.34.494-54.688 15.104-55.915 43.595-2.369 25.28 26.774 37.845 55.915 37.801 29.142.044 58.285-12.52 55.916-37.801Z" fill="#aaaaaa"/>
                    <path d="M1032.616 642.082c-1.227-28.491-28.575-43.101-55.916-43.595-27.341.494-54.688 15.104-55.916 43.595-2.368 25.28 26.774 37.845 55.916 37.801 29.142.044 58.285-12.52 55.916-37.801Z" fill="#aaaaaa"/>
                    <g>
                        <path d="M703.836 142.457c0-23.386-18.924-42.31-42.31-42.31" fill="none" stroke="#b7b7b7" stroke-linecap="round" stroke-miterlimit="10" stroke-width="2"/>
                        <path d="M703.836 142.457c0-19.469 15.753-35.223 35.222-35.223" fill="none" stroke="#b7b7b7" stroke-linecap="round" stroke-miterlimit="10" stroke-width="2"/>
                    </g>
                </g>
            </g>
        </g>
    </g>
</svg>
