<?xml version="1.0" encoding="utf-8"?>
<!-- Generator: Adobe Illustrator 28.3.0, SVG Export Plug-In . SVG Version: 6.00 Build 0)  -->
<svg version="1.1" id="Layer_1" xmlns="http://www.w3.org/2000/svg" xmlns:xlink="http://www.w3.org/1999/xlink" x="0px" y="0px"
	 viewBox="0 0 1407.6710205 1353.4570312" style="enable-background:new 0 0 1407.6710205 1353.4570312;" xml:space="preserve">
<style type="text/css">
	.st0{opacity:0.08;}
	.st1{fill:#22D5FF;}
	.st2{fill:#B7B7B7;}
	.st3{fill:#2D2722;}
	.st4{fill:#49423D;}
	.st5{fill:#AAAAAA;}
	.st6{fill:none;stroke:#B7B7B7;stroke-width:2;stroke-linecap:round;stroke-miterlimit:10;}
</style>
<g class="st0">
	<g>
		<path class="st1" d="M259.5700073,639.1849976c-32.147995,0-57.7819977,30.1420288-56.1399994,66.0980225l0.0319977,0.7009888
			c1.7980042,39.1229858,3.3209991,42.8699951,6.7599945,93.0150146
			c4.9199982,71.7349854,3.9499969,89.2249756,8.9640045,144.1030273
			c2.4730072,27.0689697,5.0670013,48.6229858,6.8099976,62.1879883c1.6159973,11.2609863,5.9429932,42.3139648,7.8179932,68.81604
			c0.4570007,6.4610596,0.7980042,11.1240234,0.8650055,17.7209473c0.1829987,18.1119385-2.0169983,27.7070312,0.2769928,52.1820068
			c1.9559937,20.8800049,4.1900024,20.644043,6.9160004,49.6280518c0.9140015,9.6960449,1.5440063,19.8699951,2.8040009,40.2130127
			c1.0780029,17.4000244,1.6829987,27.1820068,1.9929962,35.5959473c0.0440063,1.1879883,0.0820007,2.3549805,0.1139984,3.5140381
			c0.1060028,3.743042,0.0200043,2.9300537,0.177002,17.3029785c0.2039948,18.6829834,0.3099976,28.1099854,0.5500031,31.8599854
			c1.1000061,17.2960205,4.6260071,32.5699463,5.9199982,31.2550049c1.3430023-1.3570557-1.1759949-19.1199951,1.7100067-40.2349854
			c1.1980133-8.7769775,2.1500092-9.493042,3.2700043-20.1159668c0.9819946-9.3050537,1.2380066-18.1149902,1.4500122-25.3599854
			c0.2409973-8.2640381,0.2680054-14.7270508,0.2219849-17.4799805c-0.223999-12.8199463-1.3280029-20.8659668-1.5270081-42.3719482
			c-0.0029907-0.3029785-0.0100098-0.5539551-0.0119934-0.8649902c-0.1539917-19.6269531,0.7109985-29.9949951,1.6929932-40.5
			c0.5299988-5.6660156,1.0929871-11.3719482,1.5469971-18.5959473c0.6889954-10.9139404,0.7900085-19.4919434,0.8710022-24.7390137
			c0.1119995-7.2490234,0.177002-19.6400146-0.4159851-34.6199951c-0.0785522-1.9504395-0.1675415-3.9005127-0.2669983-5.8499756
			c-1.0629883-20.9069824-2.6130066-23.2800293-3.1879883-42.2039795
			c-0.57901-19.1090088,0.4769897-34.0360107,1.0150146-41.3619995c1.1260071-15.3200073,2.4299927-33.0629883,6.9129944-46.973999
			c3.0759888-9.5369873,4.3139954-6.677002,7.625-17.9229736c4.2340088-14.3829956,4.3569946-25.7600098,6.598999-26.9630127
			c3.0690002-1.6500244,6.7669983,17.809021,9.1380005,33.6799927c5.071991,33.9530029,4.447998,84.5300293,7.0669861,99.4090576
			c0.0280151,0.1540527,0.0499878,0.3649902,0.0780029,0.5129395c0.5360107,2.8280029,1.04599,4.769043,1.1730042,5.1899414
			c0.9110107,3.0200195,0.7839966,7.6689453,2.2330017,15.3470459c0.6229858,3.3029785,0.6659851,2.5419922,1.9609985,8.7609863
			c0.7149963,3.4439697,0.9349976,5.2750244,1.2390137,5.1500244c0.9630127-0.3990479,0.8450012-13.1400146,0.9530029-15.3060303
			c0.3250122-6.4699707,0.9429932-12.802002,1.8380127-18.7459717c0.7219849-4.7919922,0.6940002-10.1070557,0.8160095-15.2559814
			c0.1319885-5.539978,0.8099976-9.3200073,1.5480042-14.2739868c0.6820068-4.5800171,0.7330017-10.0280151,0.6700134-14.9840088
			c-0.0100098-0.789978-0.0429993-2.7020264-0.0580139-5.507019c-0.0090027-1.6569824-0.0039978-2.9199829-0.0079956-4.6539917
			c-0.0020142-1.539978,0.0159912-3.3590088,0.0759888-5.7540283c0.1119995-4.427002,0.1919861-4.8099976,0.3429871-10.4719849
			c0.2099915-7.9359741,0.1499939-10.1129761,0.618988-17.065979c1.25-18.5469971,2.821991-19.9060059,4.3999939-38.5800171
			c1.618988-19.1550293,0.1570129-20.0150146,1.7999878-36.052002c1.5910034-15.5449829,2.8770142-13.9000244,5.7080078-34.3850098
			c2.9549866-21.3900146,2.5859985-23.7880249,4.92099-32.7310181c2.1319885-8.1610107,5.6759949-18.960022,9.2380066-18.0819702
			c3.3049927,0.8270264,6.1910095,6.9320068,9.1010132,11.4559937c2.7950134,4.3519897,5.2470093,7.0170288,7.7630005,13.3619995
			c2.480011,6.2630005,5.4119873,10.1380005,8.4899902,12.072998c2.5,1.5609741,4.2170105,4.0449829,5.5580139,11.46698
			c2.3269958,12.8740234,1.9509888,28.914978,3.8059998,42.3909912c2.3359985,16.9790039,3.5599976,14.7050171,7.5740051,40.1870117
			c2.3500061,14.9119873,3.5239868,22.367981,4.1860046,32.664978c0.4240112,6.5809937,0.5050049,13.151001,0.4830017,19.8359985
			c-0.0130005,4.3729858,0.0360107,8.7459717,0.131012,13.1090088c0.0499878,2.2369995,0.1119995,4.46698,0.1849976,6.6920166
			c0.0799866,2.460022,0.1480103,3.9390259,0.3510132,5.7520142c0.1600037,1.4229736,0.2600098,1.7780151,0.4370117,3.0880127
			c0.1679993,1.2329712,0.303009,2.5830078,0.5140076,6.7919922c0.2690125,5.3289795,0.243988,6.9829712,0.5450134,12.6049805
			c0,0,0.0620117,1.2879639,0.1319885,2.3399658c0.5769958,8.5469971,2.0870056,11.1469727,3.3999939,19.6860352
			c0.3049927-7.1230469,0.7059937-12.8199463,1.0249939-16.8039551c0.3959961-4.9229736,0.7390137-8.1019897,1.0299988-13.9110107
			c0.1080017-2.1530151,0.2900085-5.7910156,0.3210144-9.9899902c0.0700073-9.6099854-0.7269897-11.8389893-0.8999939-20.3800049
			c-0.1300049-6.3400269,0.303009-5.5100098,0.6430054-18.2180176c0.2229919-8.3449707,0.2059937-15.0269775,0.1929932-20.1820068
			c-0.0230103-9.0540161-0.1879883-15.78302,0.3399963-23.9949951c0.1929932-2.9979858,0.4240112-5.5479736,0.4240112-5.5479736
			c0.3999939-3.8930054,0.8739929-5.9819946,1.3859863-12.0579834c0.3619995-4.3040161,0.5090027-7.8469849,0.5440063-10.914978
			c0.1719971-14.9760132-0.276001-17.3280029,0.17099-24.0159912c0.7000122-10.4719849,4.0490112-21.0009766,7.447998-22.3930054
			c1.4779968-0.6099854,3.5799866-1.1030273,5.6140137,0.4619751c1.4429932,1.1069946,2.3919983,2.7080078,4.2250061,2.8740234
			c1.25,0.1149902,1.6359863-0.552002,2.9849854-1.0319824c1.6539917-0.59198,4.6619873-1.65802,6.9150085,2.335022
			c1.946991,3.447998,1.1000061,6.7249756,3.5,12.8040161c1.9200134,4.8610229,2.7789917,3.5620117,5.2059937,9.4000244
			c1.4580078,3.507019,2.3779907,6.9329834,2.9150085,8.9589844c1.4880066,5.6060181,2.2200012,10.8259888,3.053009,15.6569824
			c2.3299866,13.5230103,3.9370117,27.7860107,5.1600037,42.6940308c0.3880005,4.7390137,0.7799988,10.6480103,1.1560059,19.039978
			c1.0899963,24.4019775,0.0220032,24.7109985,1.0700073,47.7730103c0.756012,16.5799561,1.3760071,17.9310303,4.4630127,56.1259766
			c2.3309937,28.8480225,3.4960022,43.2719727,3.9400024,56.1350098c0.45401,13.131958,0.2130127,16.7120361,0.1560059,29.2650146
			c-0.0759888,16.730957-0.3959961,20.1529541,0.1400146,26.0510254c0.3800049,4.1710205,0.9070129,7.3630371,1.2669983,9.30896
			c0.9819946-3.1369629,2.4400024-8.2900391,3.7770081-15.4840088c1.1180115-6.0090332,1.2250061-8.4449463,2.5599976-17.0400391
			c1.730011-11.1300049,2.3599854-12.2480469,3.5610046-20.0129395c1.2969971-8.401001,1.769989-14.9300537,2.4989929-24.9770508
			c0.9119873-12.5739746,1.8819885-31.8640137,2.196991-47.2299805c0.0639954-3.1219482,0.1289978-6.3149414,0.5639954-10.5040283
			c0.5620117-5.4219971,1.7000122-10.1280518,2.4769897-15.2659912c1.2000122-7.9470215,2.1270142-15.992981,2.8420105-24.3790283
			c1.3349915-15.6599731,0.7099915-30.9000244,0.4769897-46.7490234
			c-0.1624146-11.4024658-0.2750854-22.805542-0.3380127-34.2089844
			c-0.1099854-17.6939697-0.1109924-29.6229858,0.7529907-45.2650146
			c0.5360107-9.7139893,1.1960144-17.0750122,2.4909973-30.0670166c4.0780029-40.8800049,6-61.4429932,7.8630066-67.0700073
			c5.2929993-15.9979858,13.8670044-19.8439941,20.0750122-13.6760254c3.8970032,3.875,3.4400024,8.6920166,7.6089783,12.5549927
			c7.4550171,6.9110107,10.4500122-6.6240234,16.4799805,0.71698c4.4840088,5.4589844,7.0200195,18.0440063,8.6069946,25.9329834
			c2.0869751,10.3640137,3.0900269,20.6500244,3.8530273,33.2780151
			c2.0770264,34.3250122-0.1019897,40.8250122,0.7730103,76.4940186
			c0.5120239,20.8690186,1.8939819,36.7030029,4.4680176,66.1870117
			c3.5689697,40.8959961,4.8770142,38.3699951,4.7189941,52.7810059
			c-0.117981,10.7259521,0.4019775,59.4160156,0.5629883,59.6380615
			c1.6149902,2.1810303,8.2800293-29.7750244,11.6719971-60.5469971c0.960022-8.7180176,1.4169922-15.1469727,1.6439819-20.6279907
			c0.4940186-11.9879761,0.4639893-20.5880127,0.4489746-25.1140137
			c-0.039978-11.5739746,0.6680298-16.5869751,5.0410156-61.0250244c2.5540161-25.9440308,3.8300171-38.9180298,3.9650269-41.934021
			c1.3499756-30.1099854-1.5830078-38.5079956,1.0490112-55.414978c2.2050171-14.1699829,4.6019897-10.4470215,9.1359863-29.572998
			c4.2739868-18.0410156,3.3289795-6.2299805,6.8619995-20.3859863c1.3519897-5.414978,6.6439819,1.1110229,13.3109741,1.0369873
			c8.1420288-0.09198,8.6879883,30.7659912,20.0739746,38.9500122c5.3060303,3.8220215,9.3380127,0.0999756,11.8499756,10.4019775
			c1.5109863,6.1939697,1.4650269,13.3179932,4.3099976,22.1939697c1.5800171,4.927002,2.2249756,4.7069702,3.2600098,9.2050171
			c1.4539795,6.3170166,1.1799927,11.1069946,1.8369751,22.6190186c1.0549927,18.4730225,2.4569702,18.3140259,2.7719727,32.6229858
			c0.2080078,9.3540039-0.3699951,10.367981-0.1350098,20.1610107l0.9680176,38.9069824l4.2399902-36.8359985
			c0.2160034-1.8870239,0.9069824-8.0499878,1.5449829-16.5949707c1.3179932-17.7059937,0.4210205-19.0999756,1.5499878-27.8519897
			c1.4940186-11.5750122,4.4240112-19.6879883,5.1929932-21.815979c1.8569946-5.1420288,2.9249878-6.1799927,4.0280151-11.7600098
			c1.2369995-6.2600098,1.0859985-10.9910278,1.5059814-16.3140259
			c1.2860107-16.2780151,7.3599854-31.0859985,10.5460205-27.5910034c2.5900269,2.835022,1.2369995,15.539978,5.4470215,31.5549927
			c2.5510254,9.7069702,3.7219849,7.5999756,5.8670044,17.4840088c1.6030273,7.3900146,2.3070068,16.2329712,3.0050049,24.6829834
			c0.5499878,6.6669922,1.309021,13.1370239,1.9370117,19.7349854c0.7589722,7.9650269,1.1380005,16.1060181,1.2609863,24.3740234
			c0.1459961,9.7659912-0.0479736,16.882019,0.8939819,28.5059814c0.7080078,8.7310181,2.1229858,33.2559814,2.6900024,40.2819824
			c0.9370117,11.6300049,3.4550171,22.9139404,3.4580078,22.8280029c0.0020142,0.0860596,2.5200195-11.197998,3.4569702-22.8280029
			c0.5670166-7.026001,1.9819946-31.5499878,2.6900024-40.2819824c0.9420166-11.6240234,0.7479858-18.7399902,0.8939819-28.5059814
			c0.1229858-8.2680054,0.5020142-16.4099731,1.2600098-24.3740234c0.6300049-6.5980225,1.3889771-13.0679932,1.9390259-19.7349854
			c0.6970215-8.4500122,1.4019775-17.2929688,3.0050049-24.6829834c2.1439819-9.8850098,3.3150024-7.7769775,5.8660278-17.4840088
			c4.210022-16.0150146,2.8569946-28.7199707,5.4470215-31.5549927c3.1859741-3.4949951,9.2600098,11.3129883,10.5460205,27.5900269
			c0.4199829,5.3239746,0.2689819,10.0549927,1.507019,16.3150024c1.1019897,5.5800171,2.1699829,6.617981,4.0269775,11.7600098
			c0.7700195,2.1279907,3.7000122,10.2399902,5.1929932,21.815979c1.1300049,8.7509766,0.2319946,10.1459961,1.5499878,27.8519897
			c0.6380005,8.5449829,1.3289795,14.7080078,1.5449829,16.5949707l4.2399902,36.8359985l0.9680176-38.9069824
			c0.2349854-9.7930298-0.3430176-10.8070068-0.1350098-20.1599731c0.3150024-14.3099976,1.71698-14.151001,2.7719727-32.6240234
			c0.6569824-11.5130005,0.3829956-16.302002,1.8380127-22.6190186c1.0339966-4.4979858,1.6790161-4.2780151,3.2579956-9.2050171
			c2.8460083-8.8759766,2.7999878-16,4.3099976-22.1939697c2.5130005-10.302002,6.5449829-6.5800171,11.8519897-10.401001
			c11.3850098-8.1849976,11.9310303-39.0429688,20.072998-38.9500122c6.6669922,0.072998,11.9589844-6.4530029,13.3120117-1.0380249
			c3.5319824,14.1560059,2.5869751,2.3449707,6.8610229,20.3859863c4.5339966,19.1259766,6.9310303,15.4019775,9.1359863,29.572998
			c2.632019,16.9069824-0.3010254,25.3049927,1.0499878,55.414978c0.1339722,3.0159912,1.4099731,15.9899902,3.9639893,41.934021
			c4.3729858,44.4379883,5.0809937,49.4509888,5.0410156,61.0250244c-0.0150146,4.526001-0.0449829,13.1259766,0.4500122,25.1140137
			c0.2260132,5.480957,0.6829834,11.9100342,1.6439819,20.6280518
			c3.3909912,30.7719727,10.0560303,62.7280273,11.6699829,60.5469971
			c0.1619873-0.2220459,0.6820068-48.9119873,0.5640259-59.6379395
			c-0.1569824-14.4100342,1.1500244-11.8850098,4.7199707-52.7810059c2.5739746-29.4840088,3.9550171-45.3179932,4.46698-66.1870117
			c0.875-35.6690063-1.3029785-42.1690063,0.7730103-76.4940186c0.7630005-12.6279907,1.7659912-22.9140015,3.8530273-33.2780151
			c1.5880127-7.8889771,4.1229858-20.473999,8.6079712-25.9329834c6.0300293-7.3410034,9.0239868,6.1939697,16.4799805-0.71698
			c4.1680298-3.8629761,3.7109985-8.6799927,7.6079712-12.5549927c6.2080078-6.1680298,14.7819824-2.3220215,20.0750122,13.6749878
			c1.8640137,5.6279907,3.7849731,26.1900024,7.8629761,67.0709839c1.2949829,12.9920044,1.9550171,20.3530273,2.4910278,30.0670166
			c0.8640137,15.6420288,0.8640137,27.5709839,0.7529907,45.2650146
			c-0.0629272,11.4034424-0.1755981,22.8065186-0.3380127,34.2089844c-0.2329712,15.8499756-0.8579712,31.0889893,0.4769897,46.75
			c0.7150269,8.3850098,1.6430054,16.4309692,2.84198,24.3779907c0.7769775,5.1379395,1.914978,9.8439941,2.4769897,15.2659912
			c0.4349976,4.1899414,0.5,7.381958,0.5640259,10.5040283c0.315979,15.3659668,1.2860107,34.6560059,2.1970215,47.2299805
			c0.7280273,10.0469971,1.2020264,16.5760498,2.5,24.9770508c1.2000122,7.7650146,1.8300171,8.8840332,3.5599976,20.0119629
			c1.335022,8.5959473,1.4420166,11.0319824,2.5599976,17.0400391c1.3380127,7.1949463,2.7949829,12.3480225,3.7769775,15.4849854
			c0.3599854-1.9460449,0.8880005-5.1379395,1.2670288-9.30896c0.5360107-5.8979492,0.2160034-9.3199463,0.1400146-26.0500488
			c-0.0570068-12.5539551-0.2979736-16.1340332,0.1560059-29.2659912
			c0.4439697-12.8630371,1.6090088-27.2869873,3.9400024-56.1350098
			c3.0869751-38.1949463,3.7069702-39.5460205,4.4619751-56.1259766
			c1.0490112-23.0620117-0.0180054-23.3709717,1.0700073-47.7719727c0.3770142-8.3930054,0.7689819-14.302002,1.15802-19.039978
			c1.2219849-14.9099731,2.8289795-29.1719971,5.1599731-42.6950073c0.8330078-4.8300171,1.5640259-10.0499878,3.052002-15.6569824
			c0.5380249-2.026001,1.4569702-5.4520264,2.914978-8.9580078c2.427002-5.8400269,3.2849731-4.539978,5.2059937-9.4000244
			c2.4000244-6.0800171,1.5529785-9.3569946,3.5-12.8049927c2.2529907-3.992981,5.2609863-2.927002,6.914978-2.335022
			c1.3499756,0.4799805,1.7360229,1.1469727,2.9849854,1.0319824c1.8330078-0.1660156,2.78302-1.7670288,4.2249756-2.8740234
			c2.0349731-1.5650024,4.1359863-1.0720215,5.6140137-0.4619751c3.4000244,1.3920288,6.7479858,11.9210205,7.447998,22.3930054
			c0.4470215,6.6879883-0.0009766,9.039978,0.1710205,24.0159912c0.0349731,3.0679932,0.1820068,6.6110229,0.5440063,10.914978
			c0.5120239,6.0759888,0.9869995,8.164978,1.3870239,12.0579834c0,0,0.2299805,2.5499878,0.4229736,5.5479736
			c0.5280151,8.2119751,0.3629761,14.9400024,0.3400269,23.9949951c-0.0130005,5.1550293-0.0300293,11.8369751,0.1929932,20.1820068
			c0.3400269,12.7080078,0.7719727,11.8770142,0.6430054,18.2180176
			c-0.1729736,8.5410156-0.9699707,10.7700195-0.9000244,20.3800049c0.0310059,4.1989746,0.2130127,7.8369751,0.3209839,9.9899902
			c0.2919922,5.809021,0.6339722,8.9879761,1.0300293,13.9099731c0.3200073,3.9840088,0.7199707,9.6820068,1.026001,16.8050537
			c1.3120117-8.5400391,2.8220215-11.1390381,3.3989868-19.6860352c0.0700073-1.052002,0.132019-2.3399658,0.132019-2.3399658
			c0.2999878-5.6220093,0.276001-7.276001,0.5449829-12.6049805c0.2109985-4.2089844,0.3469849-5.559021,0.5139771-6.7919922
			c0.177002-1.3099976,0.2780151-1.664978,0.4370117-3.0880127c0.2030029-1.8129883,0.2719727-3.2930298,0.3510132-5.7520142
			c0.072998-2.2249756,0.1350098-4.4550171,0.1849976-6.6920166c0.0949707-4.3629761,0.144043-8.7360229,0.1300049-13.1099854
			c-0.0200195-6.684021,0.0600586-13.2540283,0.4840088-19.835022c0.6619873-10.2969971,1.8370361-17.7529907,4.1860352-32.664978
			c4.0140381-25.4819946,5.2380371-23.2080078,7.5749512-40.1870117
			c1.8540039-13.4760132,1.4780273-29.5170288,3.8050537-42.3900146c1.3409424-7.4229736,3.0570068-9.9069824,5.5579834-11.4680176
			c3.0780029-1.9349976,6.0100098-5.8099976,8.4899902-12.072998c2.5159912-6.3449707,4.9680176-9.0100098,7.7629395-13.3619995
			c2.9100342-4.5239868,5.7960205-10.6290283,9.1009521-11.4559937c3.5629883-0.8790283,7.105957,9.9210205,9.2380371,18.0819702
			c2.3349609,8.9429932,1.9659424,11.3410034,4.9200439,32.7299805c2.8320312,20.4860229,4.118042,18.8400269,5.7099609,34.3859863
			c1.6419678,16.0369873,0.1800537,16.8969727,1.8000488,36.052002c1.5780029,18.6740112,3.1500244,20.03302,4.4000244,38.5800171
			c0.4680176,6.9530029,0.4069824,9.1300049,0.618042,17.065979c0.1500244,5.6619873,0.230957,6.0449829,0.3430176,10.4719849
			c0.0600586,2.3950195,0.0780029,4.2139893,0.0760498,5.7540283c-0.0030518,1.7349854,0,2.9970093-0.0080566,4.6539917
			c-0.0150146,2.8049927-0.0479736,4.7180176-0.0579834,5.507019c-0.0629883,4.9559937-0.0119629,10.4039917,0.6700439,14.9840088
			c0.7380371,4.9530029,1.4160156,8.7329712,1.5479736,14.2739868c0.1230469,5.1490479,0.0949707,10.4639893,0.81604,15.2559814
			c0.8950195,5.9439697,1.5140381,12.276001,1.8380127,18.7459717c0.1080322,2.1660156-0.0100098,14.9069824,0.9539795,15.3060303
			c0.3029785,0.125,0.5229492-1.7060547,1.2380371-5.1500244c1.2950439-6.2199707,1.3380127-5.4580078,1.9610596-8.7609863
			c1.4499512-7.6779785,1.3220215-12.3280029,2.2330322-15.3470459c0.1269531-0.4210205,0.6379395-2.3620605,1.1729736-5.1899414
			c0.0279541-0.1479492,0.0500488-0.3599854,0.0780029-0.5129395c2.6199951-14.8790283,1.9959717-65.4559937,7.0670166-99.40802
			c2.3709717-15.8720093,6.0699463-35.3300171,9.1379395-33.6799927c2.2419434,1.2020264,2.3649902,12.5789795,6.5999756,26.9619751
			c3.3100586,11.2459717,4.5489502,8.3859863,7.6240234,17.9229736c4.4830322,13.9110107,5.7869873,31.6539917,6.9129639,46.973999
			c0.5379639,7.3259888,1.5939941,22.2529907,1.0150146,41.3619995c-0.5749512,18.9239502-2.125,21.2969971-3.1879883,42.2049561
			c-0.0992432,1.9488525-0.1879883,3.8981934-0.2659912,5.8480225c-0.4537354,11.5344238-0.5927734,23.0789795-0.4169922,34.6209717
			c0.0799561,5.2469482,0.1820068,13.8249512,0.8699951,24.7399902c0.4560547,7.2230225,1.0179443,12.9289551,1.5479736,18.5939941
			c0.9820557,10.5059814,1.8470459,20.8740234,1.6929932,40.5009766c-0.0019531,0.3110352-0.0090332,0.5620117-0.0119629,0.8649902
			c-0.197998,21.5059814-1.3029785,29.552002-1.5269775,42.3719482c-0.0460205,2.7530518-0.019043,9.2159424,0.2220459,17.4799805
			c0.2120361,7.2449951,0.4680176,16.0550537,1.4499512,25.3599854c1.1199951,10.6230469,2.0720215,11.3389893,3.2700195,20.1159668
			c2.8859863,21.1159668,0.3669434,38.8780518,1.7099609,40.2349854c1.2950439,1.3149414,4.8199463-13.9599609,5.9210205-31.2550049
			c0.2380371-3.75,0.3449707-13.177002,0.5500488-31.8599854c0.1560059-14.3730469,0.0699463-13.5600586,0.1760254-17.3029785
			c0.032959-1.1590576,0.0699463-2.3260498,0.1140137-3.5140381c0.3100586-8.4139404,0.9150391-18.1970215,1.993042-35.5959473
			c1.2600098-20.3430176,1.8900146-30.5169678,2.8039551-40.2130127
			c2.7259521-28.9840088,4.9599609-28.7480469,6.9160156-49.6280518
			c2.2939453-24.4749756,0.0939941-34.0699463,0.2769775-52.1820068c0.0670166-6.5970459,0.407959-11.2600098,0.8649902-17.7199707
			c1.875-26.5030518,6.2030029-57.5560303,7.8189697-68.8170166c1.7419434-13.5650024,4.3360596-35.1199951,6.8100586-62.1879883
			c5.0140381-54.8779907,4.0429688-72.367981,8.9630127-144.1030273
			c3.4389648-50.1450195,4.9630127-53.8919678,6.7600098-93.0150146l0.0319824-0.7000122
			c1.6419678-35.9569702-23.9919434-66.0999756-56.1400146-66.0999756h-888.531189V639.1849976z"/>
		<g>
			<g>
				<path class="st2" d="M1407.1269531,357.8479919c-3.1860352-42.8609924-18.7469482-90.855011-50.5159912-121.0879974
					c-1.9859619-1.8899994-8.2819824-7.4429932-11.0169678-7.3899994c3.802002-0.0720062,8.7950439,0.3099976,14.2939453,2.1029968
					c14.0670166,4.5859985,21.6879883,15.2169952,24.3079834,19.3000031
					c6.1369629-77.5609894-43.4499512-135.7960052-106.3549805-173.3800049
					c-8.0941162-4.8399734-16.4196777-9.281929-24.9470215-13.3099976
					c-12.3299561-5.8170013-25.0529785-10.5130005-37.7669678-15.3409996
					c0.1450195-0.0309982,0.2900391-0.0629997,0.4350586-0.0919991c0.3249512,0,0.7060547-0.1459999,1.026001-0.2099991
					c2.1529541,0,4.5560303-0.8199997,6.7099609-1.0929985c2.1350098,0.0009995,4.2419434-0.4840012,6.3699951-0.6080017
					c7.4840088-0.4350014,15.0860596-0.0309982,22.4969482,1.0800018c3.2130127,0.4700012,6.3879395,1.0999985,9.5570068,1.8050003
					c2.717041,0.6040001,5.4870605,1.1590004,7.9460449,2.5250015
					c-7.2099609-6.7550011-15.1140137-12.7900009-23.3549805-18.2280006
					C1183.9659424-7.2120018,1112.5830078,0.1569977,1085.0759277,3.133997
					c-18.8070068,2.0349998-37.4799805,6.2159996-55.5030518,11.8660002
					c-42.9520264,13.4550009-81.7369995,41.8740005-105.3880005,80.4029999
					c-9.9719849,16.2420044-17.2609863,34.1139984-21.6040039,52.6689911
					c-2.9099731,12.4329987-4.8099976,24.5220032-4.5499878,36.4859924
					c-59.5560303-31.572998-126.947998-49.6569977-195.4699707-49.9580078
					c-67.8330078-0.2980042-133.9620361,16.8609924-192.6000061,47.1269989
					c-0.0220032-11.1369934-1.8370056-22.401001-4.5249939-33.9629974
					c-4.3139954-18.5599976-11.5750122-36.4440002-21.5220032-52.7019958
					c-23.5920105-38.5649986-62.3330078-67.0439987-105.2640076-80.5670013
					C360.6348877,8.8199797,341.9699097,4.61098,323.1658936,2.54498c-27.5029907-3.02-98.875-10.5-161.2839966,30.538002
					c-8.25,5.4249992-16.1640015,11.4469986-23.3840027,18.1919975c2.7129974-2.5349998,6.8379974-2.7980003,10.3370056-3.387001
					c2.3439941-0.3950005,4.6829987-0.8279991,7.0480042-1.0750008c7.1940002-0.75,14.4559937-1.0870018,21.6900024-0.7089996
					c5.0830078,0.2659988,10.125,0.3569984,15.0160065,1.9399986c-1.5839996,0.75-3.1860046,1.5779991-4.9649963,1.6570015
					c-8.4539948,0.3800011-16.8350067,2.0200005-23.6970062,6.9710007
					c-10.7489929,7.7550011-22.4799957,13.1899986-33.6399994,19.8349953
					C67.3219147,113.9919739,17.6469116,172.1509705,23.6629105,249.7209778
					c2.6259995-4.0780029,10.2630005-14.6970062,24.3390007-19.2630005
					c5.5009995-1.7830048,10.4939995-2.1589966,14.2970009-2.0820007c-2.7360001-0.0559998-9.0400009,5.4869995-11.0279999,7.375
					C19.4549999,265.9349976,3.8180001,313.9049988,0.566,356.7609863c-0.982,12.9410095-0.743,25.9349976,1.164,38.7869873
					c0.7,4.7170105,1.5840001,9.4079895,2.6389999,14.0599976c0.7800002,3.4400024,3.2969999,8.5039978,3.1139998,11.9679871
					c0,0,2.1470003-40.4859924,27.3119984-71.4570007c-4.1170006,5.0669861-4.7679996,19.0069885-5.9419994,25.401001
					c-1.6079998,8.7659912-2.7530003,17.6260071-3.2250004,26.5270081c-0.9120007,17.2510071,0.7049999,34.7569885,6.316,51.1669922
					c21.895998,64.0299988,97.6289978,93.0680237,160.2489929,92.0350037
					c35.4179993-0.5880127,70.177002-10.8300171,101.0220032-28.0440063
					c-0.8460083,35.9799805,2.7279968,78.9119873,17.0539856,121.6389771h776.8579712
					c14.7330322-40.7039795,21.1529541-83.6640015,21.0229492-124.5339966
					c32.2910156,19.3859863,69.2910156,31.0449829,107.0600586,31.7290039
					c62.618042,1.1300049,138.3959961-27.789978,160.3900146-91.7860107
					c5.6369629-16.4020081,7.2800293-33.9039917,6.3950195-51.1570129
					c-0.4580078-8.9029846-1.5899658-17.7640076-3.18396-26.5320129
					c-1.1619873-6.3959961-1.7929688-20.3380127-5.9019775-25.4100037
					c25.1169434,31.0100098,27.2020264,71.4970093,27.2020264,71.4970093
					c-0.1779785-3.4620056,2.3459473-8.5220032,3.131958-11.9620056c1.0640869-4.6497498,1.9516602-9.3381042,2.6610107-14.0549927
					c1.927002-12.8500061,2.1850586-25.8429871,1.2230225-38.7860107L1407.1269531,357.8479919z"/>
				<g>
					<path class="st3" d="M324.3309937,358.6610107c13.4309998-46.6929932,46.4679871-93.6790161,88.3430176-119.4779968
						c1.2189941-0.7510071,1.9620056-2.0829926,1.9079895-3.5140076
						c-0.7659912-20.3820038-5.8439941-40.5240021-16.1579895-58.1690063
						c-18.1380005-31.0299988-53.177002-48.5299988-88.0469971-52.3590012
						c-15.3280029-1.6829987-55.1049957-5.8519974-89.8869934,17.0199966
						c-4.5980072,3.0220032-9.0079956,6.3800049-13.0319977,10.1380005c1.371994-0.7599945,2.9160004-1.0670013,4.4299927-1.3999939
						c1.76297-0.3988037,3.5402069-0.7317047,5.3280029-0.9980011c4.1320038-0.6130066,8.3690033-0.8320007,12.5399933-0.5839996
						c1.1849976,0.0720062,2.3589935,0.3439941,3.548996,0.3450012c1.1999969,0.1549988,2.5399933,0.6130066,3.7389984,0.6139984
						c0.1779938,0.0370026,0.3899994,0.1179962,0.5709991,0.1179962l0.2420044,0.0529938
						c-7.0899963,2.6790009-14.1840057,5.2850037-21.0610046,8.5169983
						c-4.7562408,2.2371521-9.4001312,4.7057648-13.9149933,7.3970032
						c-32.2859955,19.2229919-58.3040009,48.1959991-59.6450043,86.3789978
						c-0.1190033,3.3999939,3.7369995,5.4320068,6.423996,3.3439941c2.2071533-1.7258911,4.6985168-3.0534668,7.3619995-3.9230042
						c2.5728149-0.8279419,5.2659149-1.2200165,7.9680023-1.1600037c-1.5240021-0.0310059-5.0379944,3.0599976-6.1459961,4.1100006
						c-17.7310028,16.8230133-26.4459991,43.5569916-28.2579956,67.4399872
						c-0.5480042,7.2130127-0.4149933,14.4559937,0.647995,21.6199951c0.3899994,2.6279907,0.8829956,5.2420044,1.470993,7.8349915
						c0.4349976,1.9159851,1.8370056,4.7390137,1.7350006,6.6679993c0,0,1.1970062-22.5639954,15.2220001-39.821991
						c-2.2940063,2.822998-2.6580048,10.5910034-3.3110046,14.1539917
						c-0.8970032,4.8869934-1.5350037,9.8240051-1.7980042,14.7850037
						c-0.5079956,9.6149902,0.3930054,19.3710022,3.5200043,28.5169983
						c12.2030029,35.6849976,54.4100037,51.8680115,89.3099976,51.2919922
						c27.8179932-0.4599915,53.9769897-8.1860046,77.2380066-21.1809998l1.8590088-1.0390015
						c1.1639404-0.6536255,1.8775024-1.8912048,1.8599854-3.2260132
						c-0.1170044-14.7369995,1.9700012-29.5150146,5.9909973-43.4930115V358.6610107z"/>
					<path class="st3" d="M1073.8900146,359.2399902c-13.3590088-46.7139893-46.3220215-93.75-88.1569824-119.6139984
						c-1.2180176-0.753006-1.960022-2.0859985-1.9030151-3.5169983
						c0.7969971-20.3800049,5.9069824-40.5149994,16.2479858-58.1430054
						c18.1859741-31.0039978,53.2519531-48.4499969,88.1269531-52.2229996
						c15.3310547-1.6600037,55.1140137-5.7679977,89.8609619,17.1579971
						c4.5930176,3.0299988,8.9990234,6.3939972,13.0169678,10.1580048
						c-1.3699951-0.7619934-2.9150391-1.0709991-4.4300537-1.4060059c-1.7618408-0.401413-3.5380859-0.7369843-5.3249512-1.0059967
						c-4.1300049-0.6199951-8.3669434-0.8450012-12.5379639-0.6040039
						c-1.1860352,0.0700073-2.3599854,0.3399963-3.5500488,0.3399963c-1.1999512,0.1519928-2.5400391,0.6100006-3.7399902,0.6080017
						c-0.1789551,0.0359955-0.3900146,0.1170044-0.5720215,0.1170044l-0.2419434,0.0529938
						c7.0849609,2.6900024,14.1760254,5.3059998,21.0479736,8.5500031c4.7525635,2.2443542,9.3924561,4.719986,13.9029541,7.4179993
						c32.256958,19.2720032,58.2299805,48.2859955,59.5119629,86.4700012
						c0.1140137,3.4009857-3.7459717,5.4269867-6.4289551,3.3350067c-2.2044678-1.7295227-4.6937256-3.0611572-7.355957-3.9349976
						c-2.5714111-0.8321228-5.2637939-1.2285919-7.9659424-1.1730042c1.5240479-0.0279999,5.032959,3.0679932,6.1390381,4.1199951
						c17.7060547,16.8500061,26.3790283,43.5979919,28.1540527,67.4849854
						c0.5369873,7.2130127,0.3919678,14.4549866-0.6810303,21.6180115c-0.3956299,2.6287842-0.890625,5.2416687-1.4840088,7.8330078
						c-0.4379883,1.9150085-1.8439941,4.7359924-1.7449951,6.6659851c0,0-1.1619873-22.5660095-15.1600342-39.8469849
						c2.2900391,2.8269958,2.6409912,10.5960083,3.2900391,14.1600037c0.8879395,4.8880005,1.519043,9.8259888,1.7740479,14.7869873
						c0.493042,9.6170044-0.4219971,19.3710022-3.5639648,28.5119934
						c-12.2580566,35.6660156-54.4899902,51.7839966-89.3900146,51.1539917
						c-27.8170166-0.5029907-53.9630127-8.269989-77.2039795-21.2999878l-1.8570557-1.0419922
						c-1.1629639-0.655426-1.8746338-1.8941956-1.8549805-3.2290039
						c0.1400146-14.7369995-1.9260254-29.5190125-5.9250488-43.5020142V359.2399902z"/>
				</g>
				<path class="st3" d="M603.4580078,496.9400024c0-31.6900024-26.6729736-57.1499939-58.7940063-55.1530151
					c-28.1420288,1.7489929-50.776001,25.1099854-51.7019958,53.2919922
					c-0.2430115,7.3909912,0.9670105,14.4700012,3.3649902,20.9719849
					c2.7260132,7.3880005,13.5090027,5.3400269,13.447998-2.5339966l-0.0010071-0.3909912
					c0-24.3250122,17.2020264-44.04599,38.4199829-44.04599s38.4210205,19.7210083,38.4210205,44.04599l-0.0009766,0.3920288
					c-0.0599976,7.8540039,10.7119751,9.934021,13.4349976,2.5670166c2.262207-6.1288147,3.4165039-12.6110535,3.4089966-19.1440125
					V496.9400024z"/>
				<path class="st3" d="M898.382019,496.9400024c0-31.6900024-26.6740112-57.1499939-58.7940063-55.1530151
					c-28.1430054,1.7489929-50.776001,25.1099854-51.7030029,53.2919922
					c-0.242981,7.3909912,0.96698,14.4700012,3.3660278,20.9719849c2.7249756,7.3880005,13.5079956,5.3400269,13.447998-2.5339966
					l-0.0009766-0.3909912c0-24.3250122,17.2009888-44.04599,38.4199829-44.04599s38.4199829,19.7210083,38.4199829,44.04599
					v0.3920288c-0.0599976,7.8540039,10.7119751,9.934021,13.4349976,2.5670166
					c2.262207-6.1288147,3.4165039-12.6110535,3.4089966-19.1440125V496.9400024z"/>
				<path class="st3" d="M754.2349854,598.9030151c0.0449829-59.1199951-26.1439819-107.0660095-58.4959717-107.0899963
					c-32.3519897-0.0249939-58.6149902,47.8799744-58.6610107,106.9999695
					c-0.0100098,14.1569824,1.4959717,27.6599731,4.2189941,40.0310059h108.6749878
					C752.7019653,626.4990234,754.223999,613.0289917,754.2349854,598.9030151z"/>
				<path class="st4" d="M686.4190063,517.0869751c6.4439697,2.4730225,6.2579956,18.5800171-0.4169922,35.9799805
					c-6.6749878,17.3980103-17.3099976,29.4970093-23.7550049,27.0250244
					c-6.4439697-2.4719849-6.2579956-18.5800171,0.4169922-35.9790039S679.973999,514.6149902,686.4190063,517.0869751z"/>
				<path class="st5" d="M477.6270142,642.0819702c-1.2269897-28.4910278-28.5750122-43.1010132-55.9160156-43.5950317
					c-27.3399963,0.4940186-54.6879883,15.1040039-55.9150085,43.5949707
					c-2.368988,25.2800293,26.7739868,37.8449707,55.9150085,37.8010254
					c29.1419983,0.0440063,58.2850037-12.5200195,55.9160156-37.8010254V642.0819702z"/>
				<path class="st5" d="M1032.6159668,642.0819702c-1.2270508-28.4910278-28.5750122-43.1010132-55.9160156-43.5950317
					c-27.3410034,0.4940186-54.6879883,15.1040039-55.9160156,43.5949707
					c-2.367981,25.2800293,26.7739868,37.8449707,55.9160156,37.8010254
					c29.1420288,0.0440063,58.2850342-12.5200195,55.9160156-37.8010254V642.0819702z"/>
				<g>
					<path class="st6" d="M703.8359985,142.4570007c0-23.3860016-18.9240112-42.3099976-42.3099976-42.3099976"/>
					<path class="st6" d="M703.8359985,142.4570007c0-19.4690018,15.7529907-35.2229996,35.2219849-35.2229996"/>
				</g>
			</g>
		</g>
	</g>
</g>
</svg>
