<?xml version="1.0" encoding="UTF-8"?>
<svg id="Layer_2" data-name="Layer 2" xmlns="http://www.w3.org/2000/svg" viewBox="0 0 107.10967 93.99416">
  <defs>
    <style>
      .cls-1 {
        fill: #f453be;
        stroke-width: 0px;
      }

      .cls-2 {
        opacity: .36;
      }
    </style>
  </defs>
  <g id="Layer_1-2" data-name="Layer 1">
    <g class="cls-2">
      <path class="cls-1" d="M40.43933,0v40.43933c0,7.28619-.79073,14.15118-2.36795,20.58404-1.58268,6.43832-4.00716,12.0853-7.28619,16.94094-3.27903,4.86111-7.41139,8.74368-12.38677,11.65803-4.98084,2.91435-10.9925,4.37183-18.03375,4.37183v-18.21608c4.1269,0,7.52505-1.0302,10.20054-3.09669,2.67002-2.06041,4.85564-4.79304,6.55806-8.19727,1.69634-3.39816,2.85175-7.22359,3.46076-11.47569.60354-4.24663.91108-8.43613.91108-12.5691H0V0h40.43933ZM107.10967,0v40.43933c0,7.28619-.79134,14.15118-2.36795,20.58404-1.58269,6.43832-4.00777,12.0853-7.28619,16.94094-3.27963,4.86111-7.41261,8.74368-12.38676,11.65803-4.98084,2.91435-10.99249,4.37183-18.03374,4.37183v-18.21608c4.12689,0,7.52505-1.0302,10.20055-3.09669,2.67002-2.06041,4.85564-4.79304,6.55805-8.19727,1.69634-3.39816,2.85175-7.22359,3.46076-11.47569.60293-4.24663.91047-8.43613.91047-12.5691h-21.49451V0h40.43933Z"/>
    </g>
  </g>
</svg>