<?xml version="1.0" encoding="UTF-8"?>
<svg data-bbox="0 0 98.71 55.676" viewBox="0 0 98.71 55.676" xmlns="http://www.w3.org/2000/svg" data-type="color">
    <g>
        <g>
            <g>
                <path fill="#22d5ff" d="M51.065 21.125v-7.048l-1.71-1.036-1.71 1.036v7.048l1.71-1.037 1.71 1.037z" data-color="1"/>
                <path fill="#22d5ff" d="M51.065 11.078V4.031l-1.71-1.037-1.71 1.037v7.047l1.71-1.037 1.71 1.037z" data-color="1"/>
                <path d="M61.737 7.501 49.372.005a.032.032 0 0 0-.034 0L36.973 7.5a1.284 1.284 0 0 0-.296 1.948c.418.479 1.145.537 1.689.208l9.279-5.626 1.693-1.027a.032.032 0 0 1 .034 0l1.693 1.027 9.342 5.664a1.282 1.282 0 1 0 1.33-2.194Z" fill="#14e8f9" data-color="2"/>
                <path d="m61.737 17.548-10.672-6.47-1.71-1.037-1.71 1.037-10.672 6.47a1.283 1.283 0 0 0 1.33 2.193l9.342-5.664 1.71-1.036 1.71 1.036 9.342 5.664a1.282 1.282 0 1 0 1.33-2.194Z" fill="#14e8f9" data-color="2"/>
                <path d="m61.737 27.595-10.672-6.47-1.71-1.037-1.71 1.037-10.672 6.47a1.287 1.287 0 0 0-.162 2.081c.419.37 1.047.382 1.525.093l9.309-5.644 1.71-1.037 1.71 1.036 9.342 5.664a1.282 1.282 0 1 0 1.33-2.194Z" fill="#14e8f9" data-color="2"/>
                <path fill="#22d5ff" d="m20.053 39.061-6.46-2.816-1.634 1.153.267 1.982 6.46 2.817-.267-1.983 1.634-1.153z" data-color="1"/>
                <path fill="#22d5ff" d="m10.843 35.046-6.46-2.817-1.633 1.154.267 1.982 6.46 2.816-.268-1.982 1.634-1.153z" data-color="1"/>
                <path d="M13.737 24.35a1.284 1.284 0 0 0-1.907-.516L0 32.184l1.932 14.35a1.283 1.283 0 0 0 2.542-.342L3.017 35.365l-.267-1.982 1.634-1.154 8.875-6.264c.514-.362.745-1.045.478-1.615Z" fill="#14e8f9" data-color="2"/>
                <path d="M22.947 28.366a1.284 1.284 0 0 0-1.908-.516l-10.196 7.196-1.634 1.153.267 1.982 1.665 12.368a1.283 1.283 0 0 0 2.543-.342L12.226 39.38l-.267-1.982 1.634-1.153 8.875-6.264c.514-.363.745-1.045.479-1.615Z" fill="#14e8f9" data-color="2"/>
                <path d="M31.88 31.99c-.448-.44-1.168-.452-1.683-.089l-10.144 7.16-1.634 1.153.267 1.983 1.665 12.368a1.283 1.283 0 0 0 2.542-.343l-1.457-10.826-.267-1.982 1.634-1.154 8.925-6.3c.643-.453.742-1.39.153-1.97Z" fill="#14e8f9" data-color="2"/>
                <path fill="#22d5ff" d="m80.024 42.197 6.46-2.817.267-1.982-1.634-1.153-6.46 2.816 1.634 1.153-.267 1.983z" data-color="1"/>
                <path fill="#22d5ff" d="m89.234 38.181 6.46-2.816.266-1.982-1.634-1.154-6.46 2.817 1.634 1.153-.266 1.982z" data-color="1"/>
                <path fill="#22d5ff" d="m22.803 40.26-1.634 1.154.267 1.982 23.64 10.307 2.569 1.12v-3.729L22.803 40.26z" data-color="1"/>
                <path fill="#22d5ff" d="M75.907 40.26 51.065 51.092v3.731l2.57-1.12 23.64-10.307.266-1.982-1.634-1.154z" data-color="1"/>
                <path fill="#22d5ff" d="m49.355 23.088-1.71 1.037v30.698l1.71.746 1.71-.745V24.125l-1.71-1.037z" data-color="1"/>
                <path d="M86.88 23.834a1.284 1.284 0 0 0-1.908.517c-.265.57-.034 1.252.48 1.614l8.874 6.264 1.634 1.154-.267 1.982-1.458 10.827a1.283 1.283 0 0 0 2.543.342l1.932-14.35-11.83-8.35Z" fill="#14e8f9" data-color="2"/>
                <path d="m87.867 35.046-10.145-7.16c-.514-.363-1.235-.352-1.683.09-.59.58-.49 1.516.153 1.97l8.925 6.299 1.634 1.153-.267 1.982-1.458 10.827a1.283 1.283 0 0 0 2.542.342l1.666-12.368.266-1.982-1.633-1.153Z" fill="#14e8f9" data-color="2"/>
                <path d="m78.657 39.061-10.196-7.196a1.284 1.284 0 0 0-1.907.516c-.266.57-.035 1.253.478 1.615l8.875 6.264 1.634 1.154-.267 1.982-1.458 10.826a1.283 1.283 0 0 0 2.543.343l1.665-12.368.267-1.983-1.634-1.153Z" fill="#14e8f9" data-color="2"/>
            </g>
        </g>
    </g>
</svg>
