<?xml version="1.0" encoding="UTF-8"?>
<svg data-bbox="0 0 65.546 30.669" viewBox="0 0 65.547 30.667" xmlns="http://www.w3.org/2000/svg" data-type="color">
    <g>
        <g>
            <g>
                <g>
                    <g>
                        <path fill="#22d5ff" d="M40.629 17.35h8.312l1.224-2.016-1.224-2.018H40.63l1.223 2.018-1.223 2.017z" data-color="1"/>
                        <path fill="#22d5ff" d="M52.48 17.35h8.312l1.223-2.016-1.223-2.018H52.48l1.222 2.018-1.222 2.017z" data-color="1"/>
                        <path d="m56.699 29.938 8.842-14.585a.038.038 0 0 0 0-.039L56.7.729a1.514 1.514 0 0 0-2.297-.35c-.566.493-.635 1.351-.246 1.992l6.636 10.945 1.211 1.998a.038.038 0 0 1 0 .039l-1.211 1.998-6.68 11.018a1.512 1.512 0 1 0 2.587 1.569Z" fill="#14e8f9" data-color="2"/>
                        <path d="m44.848 29.938 7.632-12.587 1.222-2.017-1.222-2.018L44.848.73a1.513 1.513 0 0 0-2.587 1.569l6.68 11.018 1.224 2.018-1.224 2.017-6.68 11.018a1.512 1.512 0 1 0 2.587 1.569Z" fill="#14e8f9" data-color="2"/>
                        <path d="m32.997 29.938 7.632-12.587 1.223-2.017-1.223-2.018L32.997.73a1.518 1.518 0 0 0-2.455-.192c-.436.495-.45 1.235-.109 1.8l6.658 10.98 1.223 2.017-1.223 2.017L30.41 28.37a1.512 1.512 0 1 0 2.587 1.569Z" fill="#14e8f9" data-color="2"/>
                        <path fill="#22d5ff" d="m38.314 15.333-1.223-2.017H.88L0 15.333l.88 2.018h36.21l1.223-2.018z" data-color="1"/>
                    </g>
                </g>
            </g>
        </g>
    </g>
</svg>
