<?xml version="1.0" encoding="utf-8"?>
<!-- Generator: Adobe Illustrator 28.3.0, SVG Export Plug-In . SVG Version: 6.00 Build 0)  -->
<svg version="1.1" id="Layer_1" xmlns="http://www.w3.org/2000/svg" xmlns:xlink="http://www.w3.org/1999/xlink" x="0px" y="0px"
	 viewBox="0 0 107.1096725 93.9941635" style="enable-background:new 0 0 107.1096725 93.9941635;" xml:space="preserve">
<style type="text/css">
	.st0{opacity:0.36;}
	.st1{fill:#F453BE;}
</style>
<g class="st0">
	<path class="st1" d="M40.4393272,0v40.4393272c0,7.28619-0.7907333,14.1511841-2.3679504,20.5840378
		c-1.5826836,6.4383202-4.0071602,12.0853004-7.28619,16.940937c-3.2790279,4.8611069-7.4113941,8.7436752-12.3867664,11.6580276
		c-4.9808416,2.9143524-10.9924955,4.3718338-18.0337467,4.3718338V75.7780838
		c4.1268964,0,7.5250521-1.0302048,10.2005444-3.0966949c2.670023-2.0604095,4.8556366-4.7930374,6.5580578-8.1972656
		c1.6963444-3.398159,2.8517532-7.2235909,3.4607582-11.4756927c0.6035366-4.2466278,0.9110775-8.4361267,0.9110775-12.5691032H0V0
		H40.4393272z M107.1096725,0v40.4393272c0,7.28619-0.7913437,14.1511841-2.3679504,20.5840378
		c-1.5826874,6.4383202-4.0077744,12.0853004-7.2861938,16.940937c-3.2796326,4.8611069-7.4126053,8.7436752-12.3867645,11.6580276
		c-4.9808426,2.9143524-10.9924927,4.3718338-18.0337448,4.3718338V75.7780838
		c4.1268921,0,7.5250473-1.0302048,10.2005463-3.0966949c2.6700211-2.0604095,4.8556366-4.7930374,6.5580521-8.1972656
		c1.6963425-3.398159,2.8517532-7.2235909,3.460762-11.4756927c0.6029282-4.2466278,0.9104691-8.4361267,0.9104691-12.5691032
		H66.6703415V0H107.1096725z"/>
</g>
</svg>
